<svg xmlns="http://www.w3.org/2000/svg" width="138.47" height="243.464"><defs><style>.a{fill:#fff3c8}.b{fill:#dec48c}.c{fill:#d84853}.e{fill:#b82424}.f{fill:#fee48a}.l{fill:#a8acce}</style></defs><path class="a" d="M56.769 169.659c6.134 1.227 12.39 4.662 18.646 5.4 1.963.245 2.7-.736 5.03-.859.736.613 1.472 1.349 2.208 2.085a41.464 41.464 0 016.87 18.769c.245 2.208.245 3.8-.245 4.048-4.907 2.7-6.747 10.3-6.747 10.3s0 13-7.115 9.446-29.2-5.888-29.2-5.888-2.944-19.014 0-28.46c2.944-9.323 6.134-11.654 9.323-12.513.494.125.985-2.206 1.23-2.328z"/><path class="a" d="M80.568 177.142c-8.1-.245-16.929-2.576-24.9-4.048.123-4.416-.245-18.278-.491-21.223-.245-2.576.613-3.067.491-4.171l30.788-10.058c-.123-.124-5.275 22.694-5.888 39.5z"/><path class="b" d="M60.081 209.159a1.816 1.816 0 01.491-2.576l.736-.368c4.907-.859 14.23-3.067 12.145-6.992-2.7-5.4-6.134-9.323-3.19-11.777 2.453-2.085 6.134-5.643 3.435-8.833-3.926-4.784-.981-15.334 1.84-17.665s1.717-9.814-4.294-10.673-8.1-3.19-8.1-3.19 16.438-2.085 20 6.256a1.688 1.688 0 01.123 1.349 139.636 139.636 0 00-2.453 18.892c0 .491-.123 1.1.245 1.472 1.84 1.717 7.238 7.728 9.569 23.063 1.1 6.134-14.6 19.137-19.628 23.185a1.793 1.793 0 01-2.576-.368l-.123-.123z"/><path class="c" d="M86.456 153.71a32.79 32.79 0 014.907-.123c2.7.491 9.323-1.1 13.617-2.208 3.312-.859 2.208-6.134 3.68-9.446 7.728-18.033 12.758-54.345 10.673-84.645-2.7-41.341 1.84-57.289 1.84-57.289h-90.9s-6.5 111.388-3.312 143.038c.736 7.728 28.46 8.833 28.46 8.833-.123-1.595 1.472-2.822 2.822-3.558 5.03-2.453 22.449-3.067 25.271 5.52z"/><path d="M90.259 153.591c.123.368 1.472-29.564-21.713-33.367-8.1-1.349-7.36-12.145 1.84-16.929 9.2-4.907 11.163-14.108 5.643-22.2s-15.457-18.646-5.03-29.564c5.275-5.52 15.334-5.52 15.825-11.041s-3.435-12.145-7.238-16.07c-2.822-2.822-9.323.368-18.278-4.784s7.606-15.212-10.918-17.3l68.7 8.219s-2.576 34.717.245 53c0 0-9.691 7.851.368 40.114 16.314 52.25-29.444 49.922-29.444 49.922z" fill="#bf4853"/><path class="e" d="M67.319 145.86H65.97c-10.673.368-11.654 5.52-11.654 5.766a.786.786 0 00.736.981c.491 0 .981-.245.981-.736 0-.123.981-4.048 9.937-4.294 9.569-.368 14.476 2.7 16.07 5.52a.906.906 0 001.595-.859c-.859-1.472-4.417-6.378-16.316-6.378z"/><path class="a" d="M4.51 88.325s-1.1-34.962 9.2-49.56c9.569-13.494 42.936-18.769 53.731-21.959 7.606-2.208 15.212-1.227 25.148-6.87 7.975-4.542 49.439 4.785 26.376 15.458S95.657 28.829 92.59 29.32a116.3 116.3 0 00-33.249 12.635c-5.643 3.312-13.249 5.4-17.542 9.446-6.624 6.134-9.814 17.542-10.673 27.356-.245 3.558-.613 9.446-.613 9.446s-28.211 7.115-26.003.122z"/><path class="f" d="M97.743 8.097c-1.227 0-2.576.123-3.8.245a17.421 17.421 0 00-6.5 2.453 12.87 12.87 0 01-3.435 1.717c-4.048 1.472-14.966 3.558-15.089 3.558-.245 0-16.684 3.926-37.661 9.937-16.438 4.784-19.014 11.777-21.1 17.42-.245.736-.613 1.595-.859 2.331-3.8 8.833-5.4 32.141-5.4 33.122a.922.922 0 001.84.123c0-.245 1.595-24.044 5.275-32.631.368-.736.613-1.595.981-2.453 2.085-5.52 4.416-11.777 20-16.316 20.977-6.011 37.416-9.937 37.538-9.937.368-.123 11.041-2.085 15.334-3.558a21.741 21.741 0 003.8-1.84 15.207 15.207 0 015.888-2.331c5.4-.981 21.1 1.472 24.289 3.19a.906.906 0 10.859-1.595c-3.311-1.35-14.723-3.435-21.96-3.435z"/><path class="f" d="M122.522 13.495a.839.839 0 00-.859.859 1.242 1.242 0 00.491.859c.736.245 2.576 1.349 2.944 2.822a2.5 2.5 0 01-.613 2.208c-2.7 3.558-11.163 7.238-16.07 8.587l-.981.245c-4.048 1.1-6.379 1.84-14.721-.491h-.368a133.99 133.99 0 00-34.472 13.372c-.613.245-16.07 7.728-20.241 13.249-4.416 5.888-6.5 22.327-6.747 25.271a.922.922 0 001.84.123c.368-4.539 2.576-19.383 6.379-24.412 3.926-5.152 19.505-12.635 19.628-12.635A133.7 133.7 0 0192.59 30.426c8.587 2.331 11.409 1.595 15.457.491l.981-.245c4.171-1.1 13.862-4.907 17.052-9.2a4.041 4.041 0 00.859-3.68c-.736-2.576-3.8-3.926-3.926-3.926-.248-.371-.368-.371-.491-.371z"/><path class="a" d="M93.939 68.212a4.82 4.82 0 016.379 2.576 5.73 5.73 0 01.368 2.085c-.368 9.323 3.19 24.289 4.416 27.847 1.717 5.275 23.308-4.171 23.308-4.171s3.436-64.037-12.757-61.337c-32.263 5.4-50.91 30.178-57.289 37.784l10.182 6.87c-.123.118 10.795-5.402 25.393-11.654z"/><path class="c" d="M137.489 94.827a9.45 9.45 0 00-9.446-9.446h-.854c-11.041.981-27.234-1.349-31.037 2.453-2.944 2.944-3.558 63.668 5.766 63.545s24.9-5.643 29.074-22.572c3.553-14.227 6.374-25.638 6.497-33.98zM.953 85.749a3.826 3.826 0 013.68-3.926h.613c9.937 1.472 33 1.1 34.962 2.822 3.067 2.822 3.558 63.668-5.766 63.545s-24.9-5.643-29.074-22.572C1.934 111.878 1.198 94.09.953 85.749z"/><path d="M43.03 72.623h18.4a3.691 3.691 0 013.68 3.68v36.435a3.691 3.691 0 01-3.68 3.68h-18.4a3.691 3.691 0 01-3.68-3.68V76.304a3.615 3.615 0 013.68-3.681z" fill="#17335b"/><path class="a" d="M65.236 67.962s-22.449 13.985-25.516 21.1c-2.7 6.256-5.152 9.814-.491 11.9 6.992 3.19 18.156-9.691 22.2-10.182s.491 9.323 4.662 7.851c2.085-.736 2.208-5.275 1.963-9.323a98.067 98.067 0 01.981-13.371z"/><path d="M65.11 100.593a.839.839 0 00-.859.859v7.851a6.663 6.663 0 01-.859 4.294 5.225 5.225 0 01-3.558 1.963H44.868c-.613-.123-4.416-1.349-4.416-4.416v-7.115a.859.859 0 10-1.717 0v6.992c0 4.662 5.643 6.011 5.888 6.134h15.458a6.665 6.665 0 004.907-2.7 7.71 7.71 0 001.227-5.4v-7.601a1.31 1.31 0 00-1.1-.859zM55.051 71.764H44.624c-3.926 0-5.766 3.926-6.134 6.011v7.974a.859.859 0 001.717 0v-7.851s.859-4.416 4.416-4.416h10.428a.859.859 0 000-1.717z" fill="#20467e"/><path class="f" d="M116.143 35.085c-8.1 0-19.873 5.03-27.847 9.569a111.766 111.766 0 00-30.791 26.5c-1.472 1.1-16.684 12.758-19.137 18.892-.245.613-.491 1.1-.736 1.717-1.349 3.067-2.331 5.52-1.595 7.483a4.382 4.382 0 002.576 2.331 8.8 8.8 0 006.134 0 33.254 33.254 0 006.011-2.7.885.885 0 10-.981-1.472 46.844 46.844 0 01-5.643 2.576 6.447 6.447 0 01-4.784 0 2.9 2.9 0 01-1.595-1.349c-.491-1.349.368-3.558 1.472-6.134.245-.613.491-1.1.736-1.717 2.453-5.888 18.524-18.033 18.646-18.156l.123-.123a106.76 106.76 0 0130.3-26.13c10.918-6.256 22.449-9.937 28.583-9.2 3.067.368 6.011 6.747 8.1 17.42.981 5.275 1.84 28.706 1.84 28.951a.839.839 0 00.859.859.839.839 0 00.859-.859c0-.981-.859-23.921-1.84-29.319-2.331-12.022-5.52-18.4-9.691-18.892-.245-.245-.859-.245-1.595-.245z"/><path class="f" d="M96.27 67.102a11.388 11.388 0 00-4.048.859l-7.851 3.435c-.613.245-14.721 6.87-16.316 7.728-1.472.736-1.472 3.926-1.1 10.55.123 1.84.245 3.558.245 4.662a2.926 2.926 0 01-1.349 2.822 1.344 1.344 0 01-.981 0 15.534 15.534 0 01-.736-3.435c-.368-2.331-.491-3.19-1.1-3.558-1.227-.736-4.539.859-9.814 4.784a.872.872 0 001.1 1.349c2.944-2.208 6.5-4.416 7.728-4.662.123.491.245 1.595.368 2.208.368 2.331.613 3.8 1.227 4.416a3.152 3.152 0 002.944.368c.736-.245 2.331-1.349 2.453-4.416 0-1.227-.123-2.944-.245-4.907-.123-2.822-.491-8.1.123-8.955 1.595-.736 16.07-7.606 16.193-7.728l7.852-3.434c.859-.368 3.558-1.227 5.275-.245a3.03 3.03 0 011.472 2.331 54.748 54.748 0 01.736 10.059v1.595c.123.491.491.859.981.736s.859-.491.736-.981v-1.349a72.777 72.777 0 00-.736-10.3 4.793 4.793 0 00-2.331-3.558 10.456 10.456 0 00-2.822-.368z"/><path class="e" d="M135.771 107.34a1.052 1.052 0 00-.859.736c0 .245-3.68 20.241-7.728 27.724-4.294 8.1-13.985 11.9-21.836 14.353-9.323 2.944-20.487 2.7-20.609 2.7a.859.859 0 100 1.717 72.339 72.339 0 0021.1-2.822c8.219-2.576 18.278-6.624 22.94-15.212 4.171-7.728 7.728-27.356 7.851-28.215a.786.786 0 00-.736-.981zm-15.457-22.572H101.79a5.882 5.882 0 00-4.42 1.471c-2.208 1.84-3.435 5.03-3.558 9.691-.491 11.409-.491 19.014-.368 22.449a.839.839 0 00.859.859h.127a.948.948 0 00.859-.981c-.123-3.435-.123-11.041.368-22.327.123-4.048 1.227-6.87 2.944-8.342a4.8 4.8 0 013.19-1.1h28.705c4.907.123 6.011 7.36 6.256 8.342l-.981 9.446c0 .491.368.981.736.981a1.069 1.069 0 00.981-.736l.982-9.571v-.245c0-.368-1.227-9.814-7.974-9.937zM1.811 101.452a.839.839 0 00-.859.859c0 .736-.245 18.769 6.992 31.773 7.238 13.249 24.9 14.966 25.639 14.966 7.238 1.717 19.014 3.067 19.137 3.067a.933.933 0 00.981-.736c0-.491-.245-.981-.736-.981-.123 0-11.9-1.349-19.137-3.067-.245 0-17.542-1.595-24.289-14.108-6.87-12.635-6.747-30.791-6.747-30.914a.875.875 0 00-.981-.859zM7.7 80.965h-.981c-2.944.123-4.907.859-6.011 2.208a3.03 3.03 0 00-.613 2.7l.613 12.758a.839.839 0 00.859.859h.123a.948.948 0 00.859-.981l-.613-12.881v-.245a1.384 1.384 0 01.368-1.349c.491-.613 1.717-1.349 4.539-1.472 6.747-.245 27.234 1.717 28.706 1.963a1.041 1.041 0 00.981-.859.933.933 0 00-.736-.981c-1.474.12-20.366-1.72-28.094-1.72z"/><path d="M38.368 213.33s-11.041 23.8 5.03 27.724c16.193 3.926 10.8-6.624 16.193-9.814 5.52-3.19 7.483-1.1 14.966-.368s12.881-3.066 15.089-10.427-2.085-7.36 2.7-10.059c2.944-1.595 4.539-8.465 1.595-15.825-1.227-3.067-2.208-4.907-3.19-5.888l-3.558-4.171c-.736 3.19-1.595 1.963-.859 5.152 1.349 5.03 3.312 2.7-2.576 11.531-1.595 2.331-6.134 6.87-7.606 6.5-4.662-1.227-6.379-3.8-13.126-4.539s-19.26-3.923-24.658 10.184z" fill="#e9e9e9"/><path d="M45.851 187.446s-4.539 15.825-2.822 23.063c1.472 6.134 3.558 3.312 3.558 3.312l2.576-8.832c-5.888.368-3.067-16.316-3.312-17.543z" fill="#d4d6e8"/><path d="M68.423 204.498s3.312 2.453 6.747 5.52c2.822 2.453 5.4-1.963 8.833-1.472 9.2 1.472 11.041-2.822 11.531-5.888s-1.472-7.974-1.472-7.974a34.021 34.021 0 00-3.19-5.888c-1.717-2.085-3.558-4.171-3.558-4.171a13.081 13.081 0 01-.859 2.331c-.981 1.717 1.349 5.643 1.472 6.87a7.471 7.471 0 01-1.595 3.8 43 43 0 01-3.312 4.907c-1.717 1.963-5.4 5.52-6.624 5.275a45.51 45.51 0 01-7.973-3.31z" fill="#c0c3e8" opacity=".5"/><path class="b" d="M55.662 152.975a.809.809 0 00-.859.981c.613 5.4 1.1 14.721.123 16.561a9.618 9.618 0 01-3.19 2.7.885.885 0 10.981 1.472 11.31 11.31 0 003.8-3.435c1.472-2.822.368-15.089.123-17.542a1.069 1.069 0 00-.978-.737zm-5.272 21.836a.937.937 0 00-.613.245c-1.84 1.963-4.907 8.465-4.907 12.267a.839.839 0 00.859.859.839.839 0 00.859-.859c0-3.19 2.822-9.446 4.416-11.041a.82.82 0 000-1.227.937.937 0 00-.613-.245zm32.632-20.364a.673.673 0 00-.736.491c-1.1 1.963-1.717 10.673-1.963 17.542a7.585 7.585 0 001.349 4.539c1.595 2.331 3.067 4.784 4.416 7.238a.906.906 0 101.595-.859c-1.349-2.576-2.944-5.03-4.539-7.483a5.739 5.739 0 01-1.1-3.435c.368-9.078.981-15.58 1.717-16.684a.876.876 0 00-.368-1.227c-.123 0-.245-.123-.368-.123z"/><path class="l" d="M44.87 190.39a.9.9 0 00-.859.736c-.123.491-2.453 10.427-2.331 14.844-1.1 1.595-6.5 9.569-7.238 16.193l-.123 1.227c-.736 6.747-1.84 15.948 10.427 19.383 10.182 2.822 12.022-3.68 12.881-7.115a7.085 7.085 0 01.736-2.085 20.784 20.784 0 014.416-2.823.934.934 0 10-.736-1.717 21.044 21.044 0 00-4.907 3.19 6.415 6.415 0 00-1.227 2.822c-.981 3.68-2.208 8.219-10.8 5.888-10.8-2.944-9.937-10.673-9.078-17.42l.123-1.227c.736-6.747 6.992-15.58 7.115-15.7a.919.919 0 00.123-.613c-.368-4.048 2.208-14.6 2.208-14.721a.878.878 0 00-.613-1.1c0 .245-.123.245-.123.245zm43.549-5.271a.839.839 0 00-.859.859c0 .245 0 .368.123.491a57.205 57.205 0 015.767 9.442c1.595 3.68 1.1 12.267-.736 13.249-2.576 1.349-3.558 2.944-3.435 5.275.123 1.84.123 2.7-1.1 7.606-1.1 4.539-6.5 7.238-9.569 8.1-2.208.613-9.691-.613-12.39-1.227a.938.938 0 10-.368 1.84c.981.245 10.182 2.085 13.249 1.227.981-.245 9.2-2.822 10.8-9.323 1.227-5.03 1.227-6.011 1.1-7.851-.123-1.595.245-2.576 2.576-3.8 3.19-1.717 3.067-11.777 1.595-15.457a61.856 61.856 0 00-6.011-9.814c-.251-.498-.497-.617-.742-.617z"/><path class="l" d="M86.333 186.096c-.613.123-.981.491-.859.981.123.981.736 5.888 1.717 7.238.123.245.123.859-.613 2.331-2.208 4.416-7.974 9.814-9.2 9.937a18.012 18.012 0 01-5.152-1.595c-3.68-1.349-8.219-2.944-12.39-3.19l-1.227-.123c-5.275-.368-8.71-.491-11.163.491a41.911 41.911 0 01-1.1-7.728 1.041 1.041 0 00-.859-.981.933.933 0 00-.981.736v.122c-.123 3.067 1.349 9.078 1.349 9.323a1.008 1.008 0 00.613.613 1.077 1.077 0 00.859-.123c1.84-1.349 5.275-1.227 11.041-.859l1.227.123c3.8.245 8.219 1.84 11.777 3.067a19.027 19.027 0 005.883 1.596c2.453-.123 8.587-6.624 10.673-10.8.981-1.84 1.1-3.312.491-4.171a23.615 23.615 0 01-1.349-6.5c.118-.12-.246-.488-.737-.488z"/></svg>