<svg xmlns="http://www.w3.org/2000/svg" width="145.272" height="373.065"><defs><style>.a{fill:#fff3c8}.b{fill:#3e4496}.c{fill:#62433b}.g{opacity:.5}.f,.g{fill:#ffb340}.i{fill:#d8881e}.l{fill:#c90528}</style></defs><path class="a" d="M28.91 350.487l-3.576 16.407H14.503l2.337-18.962zm37.421-5.943s-.2 21.355.059 20.888l.434.826 10.919.55-.755-18.857z"/><path class="b" d="M80.055 361.556c-2.2-.914-2.8-.09-4.189.105-2.255.317-5.9.6-8.3-.335-3.7-1.445-3.685 6.774-3.2 10.641l37.85-.053s1.265-11.2-6.439-10.8c-5.651.296-12.567 1.754-15.722.442zm-52.276.357c-2.2-.914-2.8-.09-4.189.105-2.255.317-5.9.6-8.3-.335-3.7-1.445-3.685 6.774-3.2 10.641l37.85-.053s1.265-11.2-6.439-10.8c-5.652.298-12.567 1.752-15.722.442z"/><path class="c" d="M86.717 195.487s3.2 64.262 1.35 84.827c-1.6 17.743-3.153 58.708-3.815 68.575-.525 7.824-13.96 7.576-19.013 4.284s-1.89-41.7-4.786-53.088-14.47-44.421-15.208-59.18 25.733-62.377 41.472-45.418z"/><path class="c" d="M21.69 199.075l2.172 38.569c.158 4.167 3.245 32.837 3.1 37a97.031 97.031 0 01-1.552 15.05c-.592 2.727-6.832 43.09-11.899 58.981-.775 2.432.675 5.907 3.117 6.652 5.12 1.561 13.907 2.756 18.1-1.717 5.532-5.906 19.206-49.076 24.815-66.91a106.864 106.864 0 013.722-10.13c3.556-8.277 10.946-30.95 13.223-79.94z"/><path d="M64.272 262.114s-5.608 34.967-.147 38.269c3.846 2.325 7.018 10.734 3.672 13.695-3.486 3.085-7.815 11.645-1.537 16.223s1.893 6.909 1.537 12.091 2.45 8.9 15.4 9.024c0 0-.754 2.36-4.274 3.271a19.91 19.91 0 01-11.351-.394s-2.916-.881-3.084-2.012c-1.126-1.457-1.6-5.993-1.912-9.116l-.834-25.86-.833-14.065c-.021-.181-2.918-11.557-2.929-11.739l4.633-17.884c.232-.632 1.414-3.933 1.6-4.582z" opacity=".5" fill="#ae5637"/><path class="b" d="M77.474 360.824h.03a.743.743 0 00.71-.771l-.155-3.856a.784.784 0 00-.771-.71.743.743 0 00-.71.771l.155 3.856a.741.741 0 00.741.71zm-11.217-.556a.74.74 0 00.74-.74v-3.852a.74.74 0 00-1.48 0v3.852a.74.74 0 00.74.74z"/><path class="b" d="M64.139 370.261h.074a.742.742 0 00.665-.809c-.22-2.221.291-6.136 1.589-7.219a.892.892 0 01.895-.192c2.876.826 9.738.189 10.027.163a.742.742 0 00.668-.807.769.769 0 00-.807-.668c-.07.007-6.869.639-9.48-.111a2.363 2.363 0 00-2.25.477c-1.864 1.553-2.364 5.991-2.117 8.5a.741.741 0 00.736.668zm18.527-7.375a2.582 2.582 0 00.753-.094c.62-.189 5.683-.506 8.4-.675 1.4-.088 2.588-.162 3.189-.213a.739.739 0 00.675-.8.753.753 0 00-.8-.675c-.594.049-1.77.123-3.158.21-4.509.28-8.017.514-8.747.737a8.7 8.7 0 01-3.272-.578.741.741 0 10-.459 1.408 13.213 13.213 0 003.413.679zm19.616 8.07a.741.741 0 00.723-.9c0-.025-.15-.752-.5-4.2a6.351 6.351 0 00-5.309-5.422.741.741 0 10-.247 1.46c.152.026 3.74.69 4.084 4.109.354 3.547.506 4.293.522 4.366a.74.74 0 00.723.583z"/><path d="M.74 373.065h143.792a.74.74 0 100-1.48H.74a.74.74 0 100 1.48z" fill="#000222"/><path class="b" d="M15.344 360.824a.741.741 0 00.733-.649l.454-3.678a.74.74 0 00-.644-.826.73.73 0 00-.826.643l-.454 3.678a.74.74 0 00.644.826.684.684 0 00.093.006zm12.192-.584c.7-3.2.7-3.2-.016-3.36l-.328 1.443.162-.721-.724-.149-.539 2.472z"/><path class="b" d="M11.865 370.632a.74.74 0 00.74-.74l-.013-1.562c-.046-1.168-.19-4.721 1.084-5.747a1.544 1.544 0 011.425-.184c3.778.991 9.768.029 10.934-.173a20.368 20.368 0 007.618.889c.933-.085 2.014-.256 3.159-.437 3.545-.559 7.952-1.253 9.882.372 1.219 1.025 1.453 1.551 1.49 1.66a.743.743 0 00.571.727.733.733 0 00.891-.552c.114-.49-.14-1.4-2-2.968-2.446-2.059-7.03-1.339-11.066-.7-1.121.176-2.179.343-3.064.424a19.038 19.038 0 01-7.18-.875.7.7 0 00-.382-.029c-.066.013-6.7 1.216-10.483.231a2.95 2.95 0 00-2.727.462c-1.855 1.493-1.7 5.323-1.635 6.96l.012 1.5a.74.74 0 00.74.74zm38.155.739a.74.74 0 00.74-.716 34.169 34.169 0 00-.466-4.239.74.74 0 10-1.46.24 32.19 32.19 0 01.445 3.95.741.741 0 00.716.765z"/><path class="f" d="M30.289 153.056c-.786-3.67-4.5-19.534-3.71-23.2 3-13.865 10.394-42.487 1.508-52-6.025-6.445-19.115 9.772-21.239 18.435-5.984 24.391-7.782 43.913 3.075 68.02 5.081 11.283 7.745 21.73 10.321 29.253.812 2.369 3.789 2.469 6.177 1.829 3.619-.971 4.726-1.268 6.647-2.436 2.026-1.232 4.142-2.911 3.882-5.294-.958-8.805-4.507-24.55-6.661-34.607z"/><path class="f" d="M42.194 74.695c-1.545-2.661-17.923.853-21.95 3.406-5.665 3.591-1.435 10.275-.715 20.471 1.734 24.569-2.59 91.276 2.427 103.49 0 0 67.8 3.383 68.433-4.573.359-4.506-1.112-15.964-1.05-27.585.172-32.085.682-78.479-3.245-83.3-3.276-4.021-1.6-10.024-7.446-10.031-4.407-.005-12.715-2.414-12.742-1.455-.08 2.8-1.419 6.939-11.188 6.266-3.258-.225-9.069-.741-12.524-6.689z"/><path class="g" d="M51.959 81.094S30.844 100.321 48.705 97.8c8.555-1.208 12.863 9.935 5.879 12.526s-18.138 13.2-12.954 18.257 26.632 5.306 24.5 16.152c-2.8 14.2-29.252 16.606-25.181 23.268s16.94 9.677 12.81 14.485 3.373 18.377 14.658 19.751c0 0-42.076 1.989-46.461-.177-1.165-.576-2.191-12.371-2.844-28.513-.327-8.083 2.589-14.44-.673-26.655-3.168-11.864-6.408-14.249.251-36.076 1.985-6.507 6.3-10.558.934-18.242-5.427-7.777 1.915-15.583 3.535-15.788a54.823 54.823 0 0111.57-2.666c1.708-.225 6.8-.519 7.466.573 3.112 5.121 8.83 6.617 9.764 6.399z"/><path class="i" d="M23.851 196.531a5.042 5.042 0 001.152-.14c9.5-2.23 13.767-5.986 12.694-11.16l-1.716-8.234c-2.8-13.385-7.475-35.788-7.83-37.968a87.516 87.516 0 00-.291-1.657c-.444-2.449-1-5.5-.562-7.35.119-.5.332-1.343.6-2.377 1.42-5.553 2.8-11.128 2.668-12.958a.762.762 0 00-.791-.687.741.741 0 00-.687.791c.123 1.745-1.664 8.734-2.624 12.489-.267 1.045-.484 1.9-.6 2.4-.506 2.154.053 5.235.546 7.953.1.572.2 1.121.286 1.631.36 2.212 5.043 24.634 7.841 38.031l1.718 8.232c.878 4.237-3.02 7.407-11.584 9.419-3.169.743-4.222-3.093-4.264-3.256l-2.612-8.274-9.064-23.828a.741.741 0 10-1.385.526l9.045 23.792 2.589 8.2c.433 1.636 1.974 4.425 4.871 4.425z" opacity=".5"/><path class="i" d="M46.59 203.169h.022c1.362-.042 33.416-1.018 38.819-1.929 6.068-1.022 5.43-5.582 5.423-5.628l.009-27.62a.74.74 0 10-1.48 0v27.734c.052.432.315 3.293-4.2 4.054-5.3.895-38.284 1.9-38.617 1.908a.74.74 0 10.022 1.481zm-22.16 0a.74.74 0 00.107-1.472l-1.968-.295-1.287-5.838a.74.74 0 10-1.445.318l1.4 6.336a.74.74 0 00.615.572l2.472.366a.718.718 0 00.106.013zM6.72 157.061a.723.723 0 00.267-.051.738.738 0 00.422-.957 55.034 55.034 0 01-3.3-12.209c-.184-1.087-.356-2.1-.583-3.1-.84-3.721.013-26.027 2.037-36.691 2.108-11.1 8.7-22.21 15.006-25.283 6.52-3.179 20.267-3.917 20.4-3.924a.739.739 0 00.7-.776.7.7 0 00-.776-.7c-.577.029-14.185.759-20.977 4.071S6.329 92.069 4.107 103.775c-2.1 11.053-2.911 33.376-2.026 37.292.22.979.387 1.965.565 3.025a57 57 0 003.383 12.5.739.739 0 00.691.469z"/><path class="a" d="M34.822 191.35c1.082 1.254 1.647 3.092 3.62 4.2s6.887 6.292 2.419 8.883-12.51 5.184-13.85 2.223-2.342-8.409-3.808-10.931c-.379-.653 2.615-.394 5.581-1.159a18.147 18.147 0 006.037-3.215z"/><path class="c" d="M43.051 200.51s-13.063 7.28-16.579 5.737c0 0 2.777 8.573 6.017 11.772 3.997 3.948 21.487 2.715 10.562-17.509z"/><path d="M36.807 220.518a14.529 14.529 0 009.418-4.258c2.8-2.974-.911-12.661-1.343-13.755a.74.74 0 10-1.376.544c1.5 3.8 3.269 10.467 1.641 12.2a13.146 13.146 0 01-8.339 3.792h-.013a4.942 4.942 0 01-3.765-1.524 20.163 20.163 0 01-4.821-8.63.74.74 0 00-1.448.3 21.37 21.37 0 005.187 9.341 6.366 6.366 0 004.845 1.991z" fill="#f96a34"/><path class="i" d="M28.453 207.155a.755.755 0 00.255-.045c.461-.169 11.322-4.147 13.021-5.053a.741.741 0 10-.7-1.307c-1.287.688-8.956 3.551-12.833 4.969a.74.74 0 00.255 1.436zm13.657-6.886a.74.74 0 00.534-1.253c-.694-.723-2.358-2.542-3.179-3.441-.319-.35-.644-.687-.98-1.021-1.321-1.307-1.9-1.912-1.991-2.03a.74.74 0 10-1.177.9 29.856 29.856 0 002.127 2.186c.32.317.626.636.928.967.827.906 2.505 2.74 3.205 3.468a.74.74 0 00.533.224zm-15.638 6.718a.71.71 0 00.236-.039.739.739 0 00.466-.937l-2.806-8.368a.74.74 0 00-1.4.471l2.806 8.368a.738.738 0 00.7.5z"/><path class="a" d="M54.673 59.42c-7.938.825-12.062-4.344-13.9-12.111-.864-3.656.476-8.556-.247-13.732-2.269-16.264-2.027-20.8 34.3-4.688 0 0 6.871 29.037-12.337 30.631a45.457 45.457 0 00-7.816-.1z"/><path class="a" d="M45.533 53.449c7.661.278 12.913 3.3 20.41 4.838a55.185 55.185 0 00-.038 16.83c.3 2.018-2.192 4.556-2.943 4.842-3.067 1.167-9.072 3.986-18.826-2.682-1.331-.91-2.269-1.335-1.787-2.873.846-2.699 3.368-13.477 3.184-20.955z"/><path d="M64.34 28.536s-7.2-.634-7.693 1.956 2.794 5.058 0 6.169-7.325 1.6-6.125 4.195 5.922 5.182 2.1 8.513c-2.626 2.288-7.067 3.939-3.914 6.292 5.173 3.859 1.835 10.612 0 12.091-4.592 3.7-.6 12.67 3.254 13.343a13.7 13.7 0 01-9.765-6.4s2.251-3.428 3.392-18.048c0 0-4.863-5.375-5.5-11.94l-1.658-17.546s22.826-8.971 25.909 1.375z" fill="#dec48c"/><path class="l" d="M76.553 45.174c.88-.1 7.773-4.565 7.094-10.33-.3-2.56 4.3-7.159 1.193-12.056-2.2-3.462 2.46-7.819-3.63-10.307-3.2-1.306-3.657-8.822-8.544-8.9s-4.599-1.723-7.984-2.528-4.041-.008-6.8 1.807c-3.395 2.234-3.177.159-7.814.157S45.052 6.12 42.966 8.41s-4.04-1.336-7.415 2.071c-3.54 3.574-.193 6.371-3.187 7.73-3.554 1.614-4.657 7.153-3.589 9.281 1.6 3.18 4.3 5.74 2.888 9.447-1.773 4.671 9.375 18.289 11.086 8.6.657-3.717-2.852-6.5-.882-7.873 3.907-2.73.018-4.894 3.571-7.018 4.668-2.791 4.9.7 8.311-2.208 3.51-2.992 4.971 2.057 10.062.5s4.244 3.145 9.392 3.092c5.714-.056-.153 13.556 3.35 13.142z"/><path class="i" d="M65.65 74.485h.019a.741.741 0 00.723-.757c0-.106-.243-10.63 0-13.34.088-1 .283-1.054.866-1.223a10.813 10.813 0 004.3-2.759c3.448-3.58 4.564-9.377 4.609-9.623a.74.74 0 10-1.454-.272c-.01.055-1.084 5.612-4.222 8.868a9.3 9.3 0 01-3.528 2.329 2.423 2.423 0 00-2.047 2.549c-.247 2.792-.013 13.068 0 13.505a.742.742 0 00.734.723zM45.434 58.251a.739.739 0 00.727-.61l.155-.863a.738.738 0 00-.143-.583c-.961-1.246-3.554-4.827-3.99-6.419a.74.74 0 10-1.428.39c.528 1.924 3.27 5.643 4.047 6.671l-.1.544a.74.74 0 00.6.859.8.8 0 00.131.012z"/><path class="l" d="M34.664 46.381c-4.77-5.355-3.914-8.9-3.4-11.018l.051-.21c.346-1.449-1.1-3.846-2.381-5.96a94.623 94.623 0 01-.794-1.328c-1.819-3.135.386-7.92 2.76-9.617 2.224-1.59 2.422-1.9 2.133-3.337a6.1 6.1 0 011.168-4.65 5.09 5.09 0 013.847-2c3.581-.214 4.563-.609 5.831-2.347 1.668-2.283 5.219-4.053 7.184-3.593l.5.126a7.956 7.956 0 005.982-.25 20.886 20.886 0 017.737-2.2 8.231 8.231 0 013.924 1.56 9.572 9.572 0 002.623 1.251l.211.029c1.933.267 4.125.57 4.679 2.166.392 1.121 4.251 6.434 5.22 6.995a7.9 7.9 0 013.255 3.976 9.449 9.449 0 01-.085 2.641 9.84 9.84 0 00-.078 2.955c.085.1.191.192.305.3.9.843 2.578 2.411 1.081 6.59-1.281 3.578-1.865 5.809-2.011 6.4.418 2.179-.692 4.836-3.3 7.906-1.255 1.469-4.366 3.309-5.679 2.717-.9-.409-.854-1.852-.583-5.964a40.649 40.649 0 00.15-4.882c-.178-2.18-3.092-2.01-3.213-2a1.164 1.164 0 01-.123 0c-1.574-.153-3.61-2.027-5.644-4.015-.437-.424-1.366-.082-2.633.452a6.788 6.788 0 01-2.886.762 7.915 7.915 0 01-2.89-1.1 9.158 9.158 0 00-1.639-.769c-1.046 1.619-4.126 2.251-6.447 2.3s-4.723 2.059-5.007 3.609a11.476 11.476 0 01-2.374 4.584 16.167 16.167 0 00.326 1.817 20.036 20.036 0 01.614 4.587 4.638 4.638 0 01-2.618 4.211 3.037 3.037 0 01-1.031.177c-1.174 0-2.774-.633-4.765-2.871zm23.634-18.957a7.049 7.049 0 002.3.928 5.68 5.68 0 002.209-.649c1.44-.609 3.071-1.293 4.329-.064 1.113 1.089 3.412 3.335 4.615 3.51 1.567-.1 4.488.492 4.719 3.363a41.056 41.056 0 01-.148 5.1 31.2 31.2 0 00-.12 4.506 8.1 8.1 0 003.773-2.321c2.942-3.457 3.228-5.6 2.951-6.79a.766.766 0 010-.334 66.166 66.166 0 012.1-6.719c1.168-3.262.09-4.271-.7-5.008a7.99 7.99 0 01-.4-.392c-.616-.687-.521-2.008-.292-4.1a10.643 10.643 0 00.117-2.143 6.588 6.588 0 00-2.555-3.033c-1.388-.8-5.412-6.451-5.879-7.789-.257-.74-2.2-1.009-3.483-1.186l-.214-.03a9.975 9.975 0 01-3.156-1.439 8.067 8.067 0 00-3.09-1.356 19.32 19.32 0 00-7.151 2.04 9.335 9.335 0 01-7.028.361l-.482-.12c-1.274-.311-4.239 1.106-5.64 3.026-1.658 2.27-3.186 2.728-6.941 2.951a3.608 3.608 0 00-2.768 1.427 4.612 4.612 0 00-.889 3.454c.487 2.416-.541 3.273-2.722 4.833-1.9 1.356-3.7 5.332-2.341 7.671.249.428.513.866.779 1.306 1.495 2.474 3.041 5.03 2.555 7.07l-.051.212c-.473 1.955-1.186 4.91 3.068 9.685 1.648 1.851 3.142 2.66 4.193 2.287a3.24 3.24 0 001.636-2.878 19.069 19.069 0 00-.581-4.219c-.38-1.787-.536-2.526-.081-3.007a10.08 10.08 0 002.118-3.975c.39-2.129 3.346-4.755 6.432-4.822 2.757-.058 4.755-.879 5.234-1.622a1.287 1.287 0 011.148-.639 5.936 5.936 0 012.433.9z"/><path class="i" d="M42.918 73.724a.739.739 0 00.723-.59c.1-.471 2.38-11.543 2.456-13.589a.743.743 0 00-.713-.768.76.76 0 00-.768.713c-.058 1.54-1.612 9.4-2.425 13.343a.739.739 0 00.574.875.673.673 0 00.153.016zm13.757 8.619q.607 0 1.233-.023c7.193-.279 8.639-6.173 8.653-6.234a.741.741 0 10-1.443-.336c-.05.214-1.242 4.856-7.268 5.089-6.769.269-11.783-1.709-14.492-5.7a.741.741 0 10-1.226.833c2.841 4.181 7.849 6.371 14.543 6.371z"/><path d="M58.641 148.004H44.032a3.1 3.1 0 01-3.1-3.1v-32.642a3.1 3.1 0 013.1-3.1h14.609a3.1 3.1 0 013.1 3.1v32.642a3.1 3.1 0 01-3.1 3.1z" fill="#1b305a"/><path class="a" d="M56.234 142.4s-9.485-9.376-10.4-13.571-1.277-11.6 5.2-9.13 12.8 14.309 12.8 14.309z"/><path class="b" d="M52.33 139.015a.74.74 0 00.516-1.271c-1.622-1.579-5.91-6.275-6.279-9.012-.062-.469-.135-.947-.208-1.428-.458-3.032-.931-6.168.8-7.509a.74.74 0 10-.9-1.171c-2.423 1.874-1.858 5.607-1.361 8.9.071.474.143.944.205 1.4.51 3.8 6.46 9.63 6.713 9.876a.735.735 0 00.516.21zm9.412-8.591a.732.732 0 00.4-.119.74.74 0 00.22-1.024 30.308 30.308 0 00-11.715-10.647.827.827 0 00-1.073.278.667.667 0 00.23.951l.347-.653-.317.669.142.075a28.816 28.816 0 0111.144 10.132.74.74 0 00.622.338z"/><path class="b" d="M40.935 134.753a.74.74 0 00.74-.74v-19.134a5.788 5.788 0 011.34-4.337 2.4 2.4 0 011.665-.642h13.233c2.938 0 3.084 4.76 3.085 4.807v10.778a.74.74 0 101.481 0v-10.8c-.052-2.18-1.073-6.27-4.566-6.27H44.759a3.886 3.886 0 00-2.735 1.018c-1.213 1.1-1.829 2.925-1.829 5.438v19.145a.74.74 0 00.74.74zm3.823 13.991h11.188a.74.74 0 000-1.481H44.758a2.826 2.826 0 01-2.251-.865 5.009 5.009 0 01-.834-3.412v-6.084a.74.74 0 10-1.481 0v5.993a6.351 6.351 0 001.2 4.479 4.272 4.272 0 003.366 1.371z"/><path class="f" d="M111.671 127.844c-2.842-15.308-6.917-48.535-33.023-51.271-4.941-.518 2.268 37.147 3.041 39.381 4.331 12.522 4.195 10.162 6.662 18.551 2.3 7.812-4.749 6.589-8.647 5.271-9.487-3.208-7.467-8.3-15.865-8.479-3.672-.077-5.787 2.24-7.157 4.379-3.793 5.922-3.544 8.22-1.248 10.193a144.818 144.818 0 0025.077 17.953 21.212 21.212 0 0030.881-13.158q.078-.3.152-.615c1.837-7.715.434-20.55.127-22.205z"/><path class="g" d="M86.022 125.489s4.49 8.883 3.062 13.324c-1.308 4.071-11.4 1.628-16.482-3.377a12.347 12.347 0 00-4.334-2.878c-2.978-1.1-7.438-1.919-10.231 1.452-5.524 6.667-4.28 10.539-4.28 10.539l14.225 11.77s-5.787-6.684-7.245-11.384c-.8-2.587 4.343-7.735 8.229-4.827s5.043 5.093 8.513 5.737c3.219.6 5.243-3.331 8.543-1.665s10.148.74 7.927-2.961-1.48-6.395-2.036-10.415-5.891-5.315-5.891-5.315z"/><path class="i" d="M90.936 167.122c5.523 0 10.975-2.108 16.317-6.324 7.787-6.145 6.114-24.9 4.18-38.477-1.505-10.557-7.787-27.064-7.851-27.23a.741.741 0 10-1.384.531c.062.163 6.285 16.518 7.767 26.909 1.086 7.614 4.388 30.778-3.63 37.106-9.757 7.7-19.483 8.044-29.734 1.056-11.225-7.654-20.613-15.271-22.151-16.531-.123-1.16-.224-6.143 6.065-11.326.711-.281 5.6-2.034 9.191 1.055.34.315 8.89 8.166 16.388 7.482a3.64 3.64 0 003.045-1.9c2.258-4.266-3.087-14.261-3.7-15.386a.74.74 0 10-1.3.711c1.57 2.866 5.293 10.962 3.694 13.982a2.145 2.145 0 01-1.878 1.113c-6.833.665-15.173-7.032-15.259-7.109-4.6-3.956-10.6-1.386-10.859-1.275a.741.741 0 00-.171.105c-7.855 6.416-6.685 12.807-6.632 13.076a.734.734 0 00.255.425c.1.084 10.2 8.419 22.485 16.8a26.852 26.852 0 0015.162 5.207zm8.684-76.71a.74.74 0 00.6-1.173c-9.306-12.966-19.366-13.16-19.79-13.162l-11.909-1.713a.752.752 0 00-.839.627.741.741 0 00.628.839l12.012 1.725c.2.009 9.86.243 18.7 12.554a.74.74 0 00.6.308z"/></svg>