<svg xmlns="http://www.w3.org/2000/svg" width="163.861" height="392.792"><defs><style>.a{fill:#fff5bd}.b{fill:#3e4496}.c{fill:#9e0473}.f{fill:#faed94}.g{fill:#4c322d}</style></defs><path class="a" d="M115.212 349.941s2.52 18.616 2.926 25.109c.046.736-11.251 4.678-11.148 5.263.81 4.576 15.382 4.4 23.439 4.433 3.509.013 2.045-4.2 1.083-11.734-1.277-10.008-1.8-24.136-1.8-24.136z"/><path class="b" d="M133.773 381.389l-1.156 10.1h-4.973l-.511-6.666z"/><path class="b" d="M131.512 373.015s6.171 5.849 1.149 10.313-6.583 1.583-13.116 4.481c-5.033 2.232-1.495 3.2-11.54 3.636-9.94.432-12.49.28-12.186-5 .179-3.1 16.485-8.6 16.485-8.6s-8.727 3.041-2.537 3.551c2.876.234 17.145-3.475 21.745-8.381z"/><path class="b" d="M112.304 378.854a1.012 1.012 0 01-.2-2c2.2-.443 4.772-1.429 5.1-2.2.184-.822-.542-6.656-1.362-11.782a1.013 1.013 0 112-.32c.838 5.237 1.73 11.728 1.22 12.907-.907 2.093-5.252 3.113-6.563 3.376a1 1 0 01-.2.02zm18.816-8.206a1.012 1.012 0 01-1.006-.923s-.65-7.447-.668-7.631a1.026 1.026 0 01.233-.747 1.011 1.011 0 01.692-.36c1.03-.083 1.006-.067 1.759 8.56a1.013 1.013 0 01-.919 1.1c-.031-.001-.061.001-.091.001z"/><path class="b" d="M101.565 392.769a13.5 13.5 0 01-5.527-.836 2.413 2.413 0 01-1.425-1.708c-.053-.279-.115-.548-.176-.813-.97-4.183.18-6.674 14.854-11.418a1.012 1.012 0 01.787 1.856l-.217.121c3.912-.293 12.851-1.769 16.667-4.646 5.055-3.815 5.059-3.821 5.762-3.023a.813.813 0 01.095.125 9.007 9.007 0 012.378 9.888l-1.048 8.5a1.012 1.012 0 01-1 .888h-5.126a1.013 1.013 0 01-1.01-.935l-.259-3.4a71.4 71.4 0 00-9.123 3.023c-1.836.879-9.751 2.378-15.632 2.378zm4.987-11.718c-11.074 3.89-10.659 5.683-10.145 7.905.067.29.137.589.194.9 0 .022.077.132.354.273 3.165 1.613 16.6-.234 19.359-1.56a84.594 84.594 0 0110.661-3.469.979.979 0 01.842.154 1.007 1.007 0 01.421.747l.282 3.679h3.29l.955-7.733a1.013 1.013 0 01.063-.247 6.917 6.917 0 00-1.469-7.423c-.548.384-1.6 1.147-3.62 2.669-5.207 3.924-18.372 5.49-20.156 5.007a1.382 1.382 0 01-1.036-.9z"/><path class="c" d="M129.265 226.604c-10.048 4.187-19.991 7.559-26.607 16.308-.535 6.091-6.215 7.4-3.076 24.556 2.085 11.4 4.771 28.837 5.549 35.468.771 6.571 1.579 24.527 3.995 39.849a107.78 107.78 0 002.889 13.521c1.3 4.372 5.428 4.274 9.989 4.274 9.968 0 14.423-1.389 13.561-15.94-1.781-30.062-2.915-50.629-2.915-67.367 0-41.121 4.649-36.652 9.105-52.479.782-2.776-4.715-1.43-12.49 1.81z"/><path class="c" d="M107.846 332.173c1.182 3.326 3.227 10.685 5.588 13.047s6.219 7.422 11.038 1.687a38.068 38.068 0 008.262-15.182c1.85-5.805 1.124-12.971 1.124-12.971s.847 9.386 1.422 18.58c.373 5.972.983 11.36-.028 15.759-.616 2.678-1.768 4.812-4.261 5.967a17.512 17.512 0 01-2.451.692 16.835 16.835 0 01-4.151.784c-6.942.239-9.6-.338-11.433-2.807a9.382 9.382 0 01-1.268-3.262c-.679-2.394-1.611-6.736-2.295-10.943a243.86 243.86 0 01-1.547-11.351z"/><path class="b" d="M118.904 361.549c-9-.858-9.623-8.477-10.08-14.041-.113-1.38-.219-2.683-.427-3.8-1.087-5.845-8.411-67.291-8.722-69.9a1.012 1.012 0 012.009-.241c.077.64 7.629 63.993 8.7 69.772.227 1.218.338 2.572.455 4.005.464 5.652.943 11.5 8.158 12.185a1.013 1.013 0 01-.095 2.021zm7.174-.201a12.236 12.236 0 01-2.208-.182 1.011 1.011 0 11.39-1.984c.043.006 4.594.85 7.6-1.732 1.995-1.71 2.931-4.582 2.781-8.534-.223-5.958-.842-17.094-1.439-27.863-.779-14.037-1.583-28.551-1.567-32.432v-.611c.032-8.176.128-33.052 1.417-39.485a120.263 120.263 0 015.256-16.894 1.012 1.012 0 011.878.755 117.82 117.82 0 00-5.15 16.534c-.828 4.141-1.293 17.3-1.378 39.1v.611c-.016 3.819.789 18.305 1.566 32.311.6 10.777 1.216 21.923 1.441 27.9.174 4.608-1 8.026-3.5 10.157a10.891 10.891 0 01-7.087 2.349z"/><path class="a" d="M85.712 353.457s2.6 13.866 3.011 20.359c0 0-16.047 6.745-14.209 7.725 4.1 2.187 18.772.858 26.828.888 4.084.015.241-9.369-1.511-16.658-2.214-9.207-2.214-12.285-2.214-12.285z"/><path class="b" d="M104.255 381.541l-1.871 10.153h-4.767v-6.715z"/><path class="b" d="M102.014 373.166s6.171 5.849 1.149 10.313-7.077 1.174-13.61 4.072c-5.033 2.232-2.529 4.093-11.046 4.046-9.95-.056-14-.436-13.7-5.72.179-3.1 18.3-9.585 18.3-9.585s-8.364 3.381-2.954 3.937c1.639.168 7.031-.558 12.213-2.125 3.897-1.179 7.673-2.833 9.648-4.938z"/><path class="b" d="M84.961 376.464a1.012 1.012 0 01-.425-1.931c3.414-1.58 2.916-3.92 2.847-4.181l-.9-6.393a1.012 1.012 0 01.862-1.143 1.024 1.024 0 011.142.862l.878 6.265c.387 1.309.1 4.542-3.975 6.428a1.018 1.018 0 01-.425.093zm15.718-6.472a1.014 1.014 0 01-.982-.769l-1.556-6.272a1.012 1.012 0 111.965-.487l1.556 6.273a1.011 1.011 0 01-.739 1.225 1.025 1.025 0 01-.244.03z"/><path class="b" d="M102.385 392.706a.884.884 0 01-.1-.006l-6.565-.674a1.01 1.01 0 01-.91-1.006v-3.289a76.694 76.694 0 00-8.761 3.406 1.042 1.042 0 01-.362.091c-1.613.1-15.882.963-19.211-.041-3.161-.949-3.177-2.289-2.857-4.08a11.031 11.031 0 00.18-1.3c.162-2.341 8.745-6.361 15.919-9.323a1.011 1.011 0 011.137 1.613c-.455.5-.484.728-.484.729.64.524 5.675.261 11.685-1.686a37.477 37.477 0 009.358-4.79 1.008 1.008 0 011.093-.069c6.521 3.635 1.431 18.122.83 19.76a1.012 1.012 0 01-.951.664zm-5.553-2.6l4.863.5c1.441-4.268 3.637-13.442.328-16.21a38.8 38.8 0 01-9.344 4.671c-.121.04-12.027 3.847-14.047.725a1.761 1.761 0 01-.239-.552c-6.008 2.6-12.072 5.7-12.6 6.82a10.091 10.091 0 01-.184 1.4c-.225 1.257-.229 1.281 1.445 1.785 2.5.745 13.883.241 18.315-.03 1.1-.5 6.923-3.112 10.254-3.77a1 1 0 01.838.21 1.019 1.019 0 01.37.783z"/><path d="M92.283 291.451c-1.013-3.679 7.16-20.825 13.455-32.288a41.277 41.277 0 0113.655-14.774c5.67-3.686 24-18.457 27.171-20.858a54.945 54.945 0 0012.237-34.738.93.93 0 00-.117-.309c-3.9-10.19-58.4-9.1-64.946-2.547l-6.146 6.146a3.054 3.054 0 00-.622.881c-1.984 4.32-7.565 31.377-16.316 51.57-11.039 25.472-15.182 36.268-10.138 51.07 5.086 14.925 17.286 46.42 20.532 61.06a5.385 5.385 0 004.784 3.918h10.623a7.883 7.883 0 007.816-8.986c-2.362-16.382-9.137-49.782-11.988-60.145z" fill="#e20080"/><path d="M139.253 228.96s-25.382 9.648-32.179 16.4-18.605 16.285-16.244 25.011-7.085 14.8-10.121 22.559 6.073 28.149 11.133 36.678 7.422 11.032 2.361 18.89-13.855 4.579-13.855 4.579.263 6.43 4.7 7.174 12.571 1.25 15.209-.988c1.237-1.049 4.675-3.532 4.1-8.048s-5.048-28.5-5.048-28.5-5.953-30.85-6.94-31.648a38.026 38.026 0 014.354-14.056c3.767-6.606 7.436-17.7 14.434-25.816a44.629 44.629 0 015.035-4.792c.6-.5 1.278-1.056 2.012-1.56 9.895-6.793 21.049-15.883 21.049-15.883z" opacity=".5" fill="#457ed1"/><path class="b" d="M59.158 291.706a1.01 1.01 0 01-.974-.744c-1.4-5.052-.085-14.709-.028-15.116.741-7.2 8.287-25.033 14.777-39.756 2.032-4.608 11.972-39.461 12.61-42.13a1.037 1.037 0 01.063-.281 1.051 1.051 0 01.814-.658.987.987 0 01.949.391 1.862 1.862 0 01-.027.933l.154.065a1.016 1.016 0 01-.227.348c-1.386 7.354-12.333 41.806-12.485 42.15-5.929 13.448-13.893 32.143-14.619 39.179-.018.132-1.317 9.686-.032 14.338a1.009 1.009 0 01-.706 1.244.977.977 0 01-.269.037zm31.066 70.021c-4.165 0-8.393-.935-9.447-3.533-1.194-2.94-5.849-18.728-6.047-19.4L59.562 295.94a1.013 1.013 0 011.909-.676l15.186 42.907c.063.215 4.841 16.415 6 19.26.809 1.991 6.939 2.892 12.389 1.825a1.012 1.012 0 01.391 1.985 27.672 27.672 0 01-5.207.486zm8.417-.947a1.012 1.012 0 01-.287-1.983c.279-.083 6.777-2.117 4.918-9.678-.753-3.06-1.977-9.835-3.392-17.677-2.669-14.767-5.988-33.145-8.469-40.03a1.011 1.011 0 01-.057-.4c.024-.475.767-11.865 14.737-33.23.551-1.271 6.039-12.493 33.806-29.684.122-.079 13.359-8.686 15.211-22.405a1.011 1.011 0 112 .269c-1.978 14.668-15.561 23.483-16.139 23.85-28.176 17.441-33 28.711-33.047 28.824-12.8 19.584-14.373 30.745-14.535 32.3 2.528 7.2 5.826 25.449 8.478 40.145 1.411 7.808 2.629 14.555 3.367 17.554 2.329 9.467-6.227 12.078-6.314 12.1a1.064 1.064 0 01-.277.045z"/><path class="f" d="M93.435 104.102a18.306 18.306 0 00.943 6.43c2.18 6.424 4.036 12.683 5.383 18.482 2.877 12.244 3.546 22.394.614 27.565-4.32 7.624-19.708 28.072-12.721 33.7s26.6 3.959 39.912 2.892 29.6 15.4 34.42 3.51c2.853-7.041-16.129-37.93-15.084-54.086s13.157-43.441 11.545-59.4S133.86 67.84 133.86 67.84s-12.487-.73-14.483-5.642c.001.004-25.567 22.794-25.942 41.904z"/><path class="a" d="M137.821 79.876s14.848 4.076 12.481 12.786-20.766 13.843-17.945 25.965 2.919 24.66.358 27.847c-6.559 8.162-3.443 16.171 3.855 22.064s10.067 19 2.482 17.2-17.139-9.4-20.519-6.157-17.525 9.426-29.365-3.186c0 0-11.16 14.266 7.5 17.169a70.9 70.9 0 0015.31.586 108.023 108.023 0 0012.947-.79 27.3 27.3 0 017.91.174c3.932.728 8.968 2.517 16.075 5.794 9.885 4.559 15.606-.683 12.329-9.863-3.033-8.5-4.876-13.876-4.876-13.876l-5.664-14.638c-.257-.719-2.5-8.267-2.694-9-2.156-8.067-1.1-9.345 2.6-23.623 3.62-13.938 9.912-37.28 8.59-44.412-1.151-6.207-.755-6.315-3.134-8.837s-18.24 4.797-18.24 4.797z"/><path class="g" d="M126.72 36.707a1 1 0 01-.464-.113c-2.554-1.318-10.687-14.644-15.307-22.47a4.269 4.269 0 01-.33-3.612c4.242-11.839 23.823-10.5 24.655-10.44a1.011 1.011 0 01.931 1.085.987.987 0 01-1.083.935c-.2-.022-18.873-1.291-22.6 9.1a2.234 2.234 0 00.168 1.9c6.411 10.859 11.72 18.95 13.844 21.154 1.176-1.455 3.762-4.114 6.613-3.38a1.011 1.011 0 11-.494 1.961c-2-.5-4.4 2.374-5.088 3.422a1.011 1.011 0 01-.845.458z"/><path class="b" d="M93.721 101.626a1.181 1.181 0 01-.318-.047c-.631-.18-.86-.245-.65-1.366.123-.66.39-1.653.8-3.212 3.07-11.5 21.371-31.835 22.148-32.694a1.012 1.012 0 011.5 1.356c-.188.208-18.75 20.838-21.694 31.861-.387 1.447-.6 2.245-.708 2.688a.993.993 0 01-.042.344c-.206.712-.558 1.07-1.036 1.07zm19.975 93.432c-5.509 0-16.344-.492-22.658-1.848a7.59 7.59 0 01-6.079-5.075c-1.218-3.657.166-8.643 3.446-12.408 4.454-5.116 10.6-18.5 12-21.8.635-1.493.65-8.629.51-12.776a1.013 1.013 0 112.024-.067c.037 1.143.346 11.244-.672 13.634-.067.16-7.085 16.309-12.333 22.336-2.779 3.195-4.035 7.486-3.052 10.44a5.652 5.652 0 004.583 3.736c7.453 1.6 21.974 1.981 24.908 1.738a1.045 1.045 0 011.091.925 1.01 1.01 0 01-.925 1.091c-.584.046-1.571.074-2.843.074zm42.488 8.099c-6.266 0-23.609-8.627-23.8-8.722-2.979-1.493-10.266-.294-12.822.289a1.012 1.012 0 01-.45-1.973c.4-.093 9.943-2.244 14.178-.126 8.144 4.07 21.185 9.417 23.514 8.443.261-.111.542-.217.834-.33 1.528-.585 3.11-1.192 3.814-2.961 1.1-2.75-.1-7.808-3.566-15.035-8.384-17.509-12.409-33.315-11.986-37.548.174-1.765 2.311-10.663 4.784-20.964 3.108-12.942 6.974-29.049 7.225-32.38.453-5.96.441-7.081-.1-10a1.012 1.012 0 111.989-.371c.583 3.119.6 4.4.136 10.528-.265 3.491-3.989 19.009-7.277 32.7-2.354 9.8-4.578 19.062-4.74 20.691-.35 3.515 3.291 18.709 11.8 36.472 3.768 7.868 4.952 13.316 3.622 16.659-1.034 2.594-3.309 3.465-4.972 4.1-.269.1-.528.2-.771.306a3.718 3.718 0 01-1.412.222z"/><path class="a" d="M40.089 104.182s7.1-7.642 3.739-11.3-10.644-6.046-15.221-11.467c-4.651-5.509-7.108-7.673-10.483-4.692-3.831 3.383-2.853 5.434-1.55 7.913 3.585 6.822 2.837 5.934 7.806 11.284s15.709 8.262 15.709 8.262z"/><path class="b" d="M27.413 99.499a1 1 0 01-.556-.166c-1.382-.909-4.982-4.707-8.927-9.955-4.549-6.051-2.853-10.536-2.777-10.726a1.012 1.012 0 111.884.739c-.063.174-1.3 3.707 2.51 8.769 4.432 5.893 7.587 8.933 8.421 9.481a1.012 1.012 0 01-.555 1.858z"/><path d="M.412 63.234l4.284-5.677a.619.619 0 01.867-.12L38.5 82.295a.619.619 0 01.12.867l-4.284 5.677a.619.619 0 01-.867.12L.533 64.1a.619.619 0 01-.121-.866z" fill="#457ed1"/><path class="b" d="M32.852 89.505a1.012 1.012 0 01-.609-.2L.535 65.367a1.01 1.01 0 01-.336-.445 4.513 4.513 0 01.81-4.173c.471-.623.751-1.054.986-1.415a9.134 9.134 0 011.526-1.894 1.012 1.012 0 111.411 1.451 7.186 7.186 0 00-1.24 1.544c-.255.391-.557.86-1.067 1.536a2.655 2.655 0 00-.585 2l31.42 23.716a1.012 1.012 0 01-.609 1.821z"/><path class="b" d="M35.603 88.83l-1.613-1.222 2.71-3.59a1.768 1.768 0 00.34-1.56L6.732 59.583a1.012 1.012 0 011.218-1.617l30.542 23.051a1.038 1.038 0 01.293.348 3.741 3.741 0 01-.469 3.874z"/><path class="f" d="M141.953 98.597c-.3 7.446-8.468 14.675-12.85 20.1-9.138 11.306-36.342 22.923-43.2 21.234-10.346-2.555-55.031-31.655-54.681-37.431s6.551-25.4 15.522-13.83 24.084 20.448 32.271 23.572 32.869-28.936 38.926-32.274 16.89-7.116 19.876-.093a55.371 55.371 0 014.136 18.722z"/><path class="b" d="M82.141 113.64c-2.394 0-6.276-1.544-15.362-6.478-13.381-7.267-17.683-13.456-19.751-16.429a14.135 14.135 0 00-1.022-1.372c-1.081-1.162-3.151-3.4-5.4-3.068-1.825.273-3.594 2.155-5.256 5.595a1.013 1.013 0 11-1.823-.882c1.971-4.076 4.252-6.335 6.779-6.715 3.305-.5 5.873 2.273 7.108 3.608a15.022 15.022 0 011.279 1.678c1.979 2.846 6.1 8.769 19.054 15.807 13.452 7.3 14.526 6.658 16.469 5.492.36-.217.747-.449 1.2-.67 6.174-3 30.072-27.857 30.313-28.108a1.012 1.012 0 111.459 1.4c-.992 1.034-24.392 25.372-30.886 28.527-.4.192-.731.393-1.046.581a5.6 5.6 0 01-3.114 1.032zm3.762 27.3c-2.534-.089-6.591-2.384-10.169-4.41-.836-.472-1.629-.921-2.341-1.3-3.7-2-32.2-21.095-35.017-23.32-2.955-2.337-6.9-6.5-8.067-8.975-1.208-2.564 1.253-7.433 1.759-8.384a1.012 1.012 0 011.787.951c-1.058 1.992-2.291 5.349-1.716 6.571.931 1.973 4.432 5.828 7.494 8.249 2.789 2.208 31.05 21.142 34.721 23.127.724.39 1.528.844 2.376 1.325 3.04 1.722 7.205 4.078 9.208 4.148a1.012 1.012 0 11-.036 2.024zm3.69.001a1.012 1.012 0 01-.219-2 101.42 101.42 0 0035.513-17.349 1.012 1.012 0 111.237 1.6 103.589 103.589 0 01-36.308 17.725 1.06 1.06 0 01-.223.024z"/><path d="M112.943 12.435s-9.881 21.069-4.232 32.042a8.065 8.065 0 006.895 4.261c3.765.129 5.189 2.9 3.833 12.716-1.22 8.822 14.417 6.39 14.417 6.39l14.333-41.472z" fill="#fff3c8"/><path d="M112.894 16.331s10.214 13.8 6.364 18.672 3.654 10.751 6.085 15.469-3.845 10.511-3.618 14.512 22.537 3.165 22.537 3.165 2.986-40.827 1.512-41.107-27.069-14.282-27.069-14.282z" fill="#dec48c"/><path d="M112.588 8.78a15.588 15.588 0 018.524-5.971c8.774-2.533 28.169-5.46 35.92 14.822 7.1 18.585 4.416 43.556 2.705 54.067-.383 2.352-2.75 6.444-4.145 8.376-4.2 5.819-11.463 9.094-20.074 3.786-5.249-3.236-9.825-6.369-9.919-14.927-.075-6.735 3.2-15.62 4.526-25.851 0 0 6.659-5.655 4.615-9.32-1.584-2.841-5.276-4.008-8.02 1.938-.794 1.72-13.4-17.821-15.389-22.33-.578-1.315.161-3.02 1.257-4.59z" fill="#62433b"/><path class="g" d="M119.657 60.769a.942.942 0 01-.128-.008 1.012 1.012 0 01-.878-1.131c.166-1.315-.1-6.3-.218-8.1-.212-1.085-.4-1.192-3.355-1.775-.484-.1-1.026-.2-1.627-.33-4.7-1-6.826-7.72-6.913-8.006-2.588-5.258 2.758-22.287 3.376-24.212a1.011 1.011 0 011.925.621c-1.609 5.011-5.363 18.888-3.426 22.848.075.2 1.921 6.017 5.456 6.769.593.126 1.123.231 1.6.324 2.884.571 4.474.886 4.966 3.511a81.247 81.247 0 01.221 8.609 1.012 1.012 0 01-1 .886zm4.414 8.008a1.016 1.016 0 01-.346-.061 7.57 7.57 0 01-5.359-6.476 1.015 1.015 0 01.975-1.05 1.088 1.088 0 011.05.967 5.6 5.6 0 004.027 4.657 1.012 1.012 0 01-.346 1.963z"/><path class="g" d="M144.511 86.887a24.711 24.711 0 01-10.872-3.024c-10.438-5.211-9.3-14.587-8.874-18.116.04-.328.075-.613.095-.85.253-2.908 4.112-21.249 4.276-22.03a1.01 1.01 0 01.259-.488l2.775-2.91a6.113 6.113 0 001.591-5.45 1.013 1.013 0 011.957-.526 8.133 8.133 0 01-2.086 7.374l-2.576 2.7c-.5 2.37-3.954 18.906-4.181 21.5-.022.257-.059.565-.1.919-.451 3.728-1.392 11.487 7.771 16.062 11.408 5.7 16.825 1.591 20.264-2.623 4.155-5.086 7.039-31.914 5.379-42.6l-.251-1.647c-1.6-10.612-4.58-30.362-21.158-32.623a1.01 1.01 0 01-.866-1.139 1 1 0 011.139-.866c18.08 2.465 21.207 23.19 22.887 34.325l.249 1.637c1.641 10.562-.909 38.192-5.81 44.194-3.374 4.131-7.259 6.181-11.868 6.181z"/></svg>