<svg xmlns="http://www.w3.org/2000/svg" width="428.568" height="180.308"><defs><style>.a{fill:#fff3c8}.b{fill:#3e4496}.c{fill:#ffe1a8}.d{fill:#af9869}.f{fill:#db5461}.g{fill:#ffb340;opacity:.5}.h{fill:#88041b}.j{fill:#457ed1}</style></defs><path class="a" d="M33.837 139.828l-16.591-.6-.534 13.747 19.573.5z"/><path class="b" d="M17.876 154.435c1.55-2.431.692-3.316.75-5.017.094-2.754.511-7.156 2.133-9.825 2.5-4.105-7.306-5.809-12.018-6.034L.895 178.694s13.082 3.847 14.217-5.42c.832-6.803.541-15.352 2.764-18.839zm5.168-14.31h2.579a.9.9 0 100-1.792h-2.579a.9.9 0 100 1.792z"/><path class="b" d="M20.127 153.619h5.491a.9.9 0 000-1.792h-5.491a.9.9 0 100 1.792z"/><path class="b" d="M6.505 180.306a15.215 15.215 0 004.809-.707c4.632-1.559 5.055-9.063 5.309-13.546l.077-1.26a64.967 64.967 0 012.038-10.115.895.895 0 10-1.722-.49 65.164 65.164 0 00-2.105 10.482l-.077 1.281c-.227 4.032-.611 10.778-4.091 11.95-3.22 1.081-7.148.462-8.807.115l8.179-43.445c4.312.478 9.778 1.9 10.1 3.883-.562 1.237-3.123 7.2-2.443 11.9a.925.925 0 001.015.759.9.9 0 00.759-1.015c-.67-4.616 2.357-11.03 2.389-11.093a.9.9 0 00.088-.4c-.051-4.592-10.473-5.722-12.563-5.9a.887.887 0 00-.957.726l-8.49 45.093a.9.9 0 00.641 1.029 23.956 23.956 0 005.848.75z"/><path class="c" d="M126.562 154.567h-95.6a3.769 3.769 0 01-3.538-2.423c-1.382-3.654-3.2-10.442 1.037-13.212 5.928-3.877 149.646-12.536 156.941-17.789s11.457 33.424 11.457 33.424z"/><path class="d" d="M52.808 136.318a.794.794 0 00.093-.005c3.349-.343 47.232-4.3 47.674-4.345a.9.9 0 10-.161-1.785c-.443.04-44.335 4-47.7 4.349a.9.9 0 00.089 1.787zm-25.389 16.723a.885.885 0 00.291-.049.894.894 0 00.557-1.137c-.005-.017-.613-1.8-1.571-5.759-1.01-4.144 2.592-6.326 3.719-6.9 1.619-.821 12.137-1.946 18.388-2.464a.894.894 0 00.819-.966.928.928 0 00-.966-.819c-1.69.14-16.587 1.4-19.051 2.649-2.935 1.486-5.7 4.609-4.649 8.919.983 4.049 1.592 5.843 1.619 5.917a.9.9 0 00.847.605z"/><path class="a" d="M87.655 71.5l-9.047-12.7-12.764 8.109 13.957 16.808z"/><path class="b" d="M65.571 69.3c2.821-.593 2.854-1.825 4.109-2.973 2.034-1.86 5.472-4.64 8.514-5.348 4.679-1.088-.959-9.284-4.094-12.809L36.357 74.136s6.4 12.04 13.818 6.369C55.62 76.342 61.524 70.152 65.571 69.3zm7.023 6.638a.9.9 0 00.69-1.468l-3.14-3.782a.9.9 0 10-1.379 1.144l3.139 3.782a.893.893 0 00.69.324z"/><path class="b" d="M81.928 64.357a.9.9 0 00.73-1.416l-1.33-1.865a.9.9 0 10-1.459 1.039l1.33 1.865a.9.9 0 00.729.376zM46.09 82.906a6.857 6.857 0 002.027-.311.866.866 0 00.276-.142c.082-.061 8.14-6.174 10.329-7.9 3.136-2.473 5.936-4.226 6.966-4.361a.9.9 0 10-.234-1.778c-1.923.254-5.738 3.073-7.841 4.732-2.023 1.594-9.115 6.979-10.17 7.78-4.608 1.279-8.629-4.49-9.89-6.525l36.351-25c2.672 3.565 5.279 7.712 5.162 8.65-.285 1.439-.716 1.684-2.693 2.6a29.356 29.356 0 00-7.357 5.08.9.9 0 101.33 1.2 27.928 27.928 0 016.779-4.658c2.011-.935 3.225-1.5 3.7-3.883.42-2.107-4.067-8.23-6.014-10.763a.893.893 0 00-1.218-.193L35.85 73.4a.9.9 0 00-.282 1.162c.201.373 4.548 8.344 10.522 8.344z"/><path class="c" d="M90.489 70.521s35.093 41.174 41.7 47.027c9.9 8.77 24.444 10.342 34.911-1.394 8.2-9.2 34.557-15.54 45.831-6.535l7.667 44.808h-94.554a11.008 11.008 0 01-9.052-5.029c-10.334-15.159-40.45-59.963-42.077-69.608-1.24-7.372 7.719-20.984 15.574-9.269z"/><path d="M91.988 111.4s13.859 9.967 15.651 14.746 8.362 9.5 10.751 11.319 9.855 5.718 14.634 8.7 23.892-6.494 29.566-2.5 20.383-5.081 29.268-3.831c10.986 1.546 23.523-2.362 23.523-2.362l1.531 17.4-92.473-.577s-5.344-1.8-7.442-4.89S91.988 111.4 91.988 111.4z" fill="#ffebcc"/><path class="d" d="M151.87 125.449c6.907 0 13.315-6.105 18.064-10.629l.564-.537c4.991-4.744 15.711-6.692 22.117-7.855 7.176-1.305 17.961 2.69 18.069 2.73a.9.9 0 00.63-1.677c-.46-.175-11.352-4.215-19.021-2.817-6.6 1.2-17.651 3.208-23.03 8.321l-.565.537c-4.762 4.537-11.327 10.753-17.812 10.086-6.935-.709-14.449-2.226-23.356-12.113-8.879-9.859-37.453-43.011-37.74-43.343-.219-.208-3.712-3.363-7.091-3.132a4.71 4.71 0 00-3.414 1.834c-3.6 4.441-6.713 8.8-5.214 13.222 1.391 4.107 10.55 20.978 10.939 21.694a.9.9 0 001.575-.854c-.095-.175-9.474-17.452-10.816-21.414-1.206-3.563 1.634-7.482 4.91-11.521a2.946 2.946 0 012.152-1.172c2.172-.193 4.833 1.815 5.673 2.588.217.259 28.8 33.425 37.7 43.3 9.33 10.359 17.541 11.985 24.5 12.694a11.354 11.354 0 001.167.059zm-31.853 27.582a.9.9 0 00.418-1.689c-2.769-1.461-4.762-5.526-4.781-5.566l-26.373-40.419a.9.9 0 00-1.5.98l26.317 40.319c.035.089 2.219 4.539 5.5 6.271a.9.9 0 00.419.1z"/><path class="a" d="M354.764 136.477s22.627-7.357 23.651-4.249c.959 2.91 1.379 12.627-21.009 9.1-1.525-.239-.877-4.521-2.642-4.851z"/><path class="f" d="M309.955 87.016s9.941 16.433 11.456 43.338c.409 7.271 30.836 1.9 35.871 1.875s5.11 8.9-.43 10.645-62.014 3.255-57.482-6.4 6.052-48.41 10.585-49.458z"/><path class="g" d="M360.785 138.6s-10.306 3.449-12.136 2.441-6.5-3.114-9.632-2.5-10.4 1.579-14.988-.242-6.832-2.765-8.344-1.525c-.9.738 2.844-14.882.918-18.578l-6.847 23.048s33.542 2.814 41.169 2.416c6.533-.338 8.706-1.331 9.86-5.06z"/><path class="h" d="M362.493 135.06a.959.959 0 00.231-.03l2.15-.574a.9.9 0 10-.462-1.733l-2.151.574a.9.9 0 00.231 1.762z"/><path class="h" d="M349.885 145.057a21.317 21.317 0 0010.48-3.656c1.575-1.157 1.876-3.9 1.489-5.965-.409-2.173-1.5-3.652-3-4.055-1.8-.478-8.127.012-17.583.821-5.649.483-11 .934-13.03.849l-.987-.04c-4.193-.154-5.32-.2-5.134-5.365.236-6.566-4.872-27.017-5.089-27.885a.9.9 0 10-1.739.438c.053.21 5.264 21.069 5.036 27.384-.236 6.646 2.189 7.047 6.86 7.218l.973.038c2.177.095 7.558-.364 13.262-.85 6.834-.585 15.345-1.309 16.965-.875.784.21 1.437 1.227 1.7 2.653.329 1.752-.025 3.631-.788 4.191a19.558 19.558 0 01-9.432 3.307.9.9 0 10.012 1.792z"/><path class="a" d="M337.229 54.508s-1.1 28.7-20.684 22.954c-.63-.185-1.034-.031-1.516.791-.613 1.043-6.806 18.47-6.806 18.47-.289.721-.514.272-1.289.323a27.748 27.748 0 01-19.522-6.646c-1.191-1.008.445-3.45 1.482-4.615 3.241-3.643 5.648-8.6 8.486-18.544 4.364-15.277 10.822-37.941 39.849-12.733z"/><path d="M333.244 51.182s-.992 12.358-3.057 14.646-4.977.944-7.665 2.96-5.536 6.35-7.84 5.6c-4.256-1.387-7.758 2.7-7.989 4.985s-2.024 9.379-11.132 7.644c0 0 5.555 5.031 10.456 5.883a4.26 4.26 0 004.451-1.776 63.119 63.119 0 002.471-6.565c1.743-5.019 2.079-7.595 3.674-7.1 3.96 1.239 10.574 3.664 16.3-6.537s5.275-15.056 4.379-17.892-4.048-1.848-4.048-1.848z" fill="#dec48c"/><path class="d" d="M322.973 79.53a6.24 6.24 0 00.943-.07c2.777-.416 5.269-2.117 7.84-5.351 3.675-4.623 6.441-15.135 6.557-15.581a.9.9 0 10-1.732-.451c-.028.1-2.788 10.592-6.228 14.916-2.3 2.9-4.369 4.345-6.7 4.7a5.524 5.524 0 01-3.333-.648c-2.3-1.191-3.614-.819-4.308-.3a.9.9 0 101.078 1.431c.383-.289 1.305-.115 2.406.455a7.59 7.59 0 003.482.9zm-11.262 8.382a.9.9 0 00.891-.817 52.424 52.424 0 012.716-7.264.9.9 0 00-1.645-.71c-.453 1.048-2.725 6.352-2.856 7.817a.9.9 0 00.814.971c.025.002.052.003.08.003zm-19.825-6.345a.892.892 0 00.611-.24c1.393-1.3 2.653-4.508 2.793-4.868a.9.9 0 00-1.673-.644 14.877 14.877 0 01-2.341 4.2.9.9 0 00.611 1.552z"/><path class="f" d="M290.976 82.836s-13.871-3.794-27.364 10.989c-17.736 19.431-31.636 18.894-38.573 19.561a17.673 17.673 0 01-12.111-3.768l3.983 45.246h69.319c4.46.039 27.385-4.316 29.931-26.526a67.678 67.678 0 00-5.7-37.215s-3.209 7.691-19.485-8.287z"/><path class="g" d="M299.807 105.694s4.343 14.035 4.94 19.709 1.792 6.421 2.987 9.407a22.628 22.628 0 011.439 4.778s-6.765 2.084-8.283-5.977-1.083-27.917-1.083-27.917zm-56.88 48.594s-21.79-4.74-23.737-8.077a61.071 61.071 0 01-3.809-8.742l1.531 17.4z"/><path class="h" d="M303.115 92.95c-3.234-1.736-10.883-6.076-12.057-8.891a.9.9 0 011.655-.689c.486 1.167 3.724 3.964 11.248 8 2.247 1.2 4.007 1.557 4.954 1a2.526 2.526 0 00.975-1.965.9.9 0 111.792 0 4.308 4.308 0 01-1.838 3.495 3.881 3.881 0 01-2.028.52 10.378 10.378 0 01-4.7-1.473z"/><path class="h" d="M313.721 138.176a.9.9 0 00.637-.264c3.708-3.742 3.341-16.073 3.139-19.764-.357-6.515-4.338-25.508-4.508-26.313a.9.9 0 00-1.754.367c.04.2 4.123 19.665 4.473 26.044.4 7.435-.25 16.008-2.625 18.4a.9.9 0 00.637 1.528zm-97.051 14.855a.911.911 0 00.894-.975l-3.582-40.688 1.22.789c9.154 4.933 20.15 1.053 26.723-1.265l1.141-.4c3.872-1.346 12.643-8.664 20.381-15.121 4.8-4.009 9.341-7.8 11.719-9.311 4.293-2.733 13.9-2.765 14.018-2.765a.9.9 0 000-1.792c-.5 0-10.263.04-14.981 3.045-2.474 1.577-6.845 5.223-11.9 9.448-7.245 6.044-16.258 13.565-19.821 14.8l-1.148.4c-6.293 2.219-16.829 5.93-25.216 1.412l-2.7-1.75a.9.9 0 00-1.379.831l3.743 42.517a.9.9 0 00.891.817z"/><path class="b" d="M331.677 153.672l18.716-4.149 23.1-.6-1.642 4.746z"/><path class="a" d="M337.666 146.648s25.905-5.33 26.946-1.747a10.118 10.118 0 01.46 4.543 1.805 1.805 0 01-1.916 1.412l-6.735-.2q-1.639-.047-3.278.059l-17.626 2.085z"/><path class="f" d="M270.887 109.646a27.5 27.5 0 0110.61-21.346c4.932-3.733 8.572-5.8 13.258 1.735 9.372 15.078 3.82 40.543 6.944 46.74s36.382.794 42.109 2.985 5.614 12.97 3.532 13.45-63.559 2.575-68.766.368c-3.942-1.67-8.071-27.385-7.687-43.932z"/><path class="g" d="M348.32 146.107s-.717 3.487-8.183 3.785-13.29-1.941-15.38 0-2.538 2.514-12.394 1.406-9.407-1.257-19.263-.66-8.609 1.993-11.722-1.717c-5.893-7.024-1.12-8.736-2.315-14.858s-7.014-13.257-6.717-17.081a15.787 15.787 0 00-1.458-7.337s-.122 24.363 4.549 37.979a11.355 11.355 0 003.138 5.954c2.579 2.361 15.122.708 15.122.708l54.623-1.338s.705-4.56 0-6.841z"/><path class="h" d="M349.324 145.524c4.144-.39 10.871-1 11.647-.929a.9.9 0 10.122-1.788c-1.172-.084-10.764.826-11.854.929a.9.9 0 00.084 1.788z"/><path class="h" d="M348.108 149.754l-.669-3.477c-.749-3.894-2.4-5.6-5.7-5.88-1.557-.133-6.172.013-11.514.184-9.4.3-21.093.67-24.473-.21-4.537-1.183-5-2.607-5.425-5.022-.08-.453-.168-.954-.311-1.514-.418-1.631-1.68-28.313.859-29.818a.9.9 0 011.061 1.431c-1.118 2.219-1.01 24.716-.184 27.942.156.609.252 1.153.339 1.647.341 1.929.467 2.649 4.112 3.6 3.13.812 15.172.43 23.965.152 5.622-.18 10.058-.318 11.724-.178 5.311.455 6.692 4.154 7.3 7.325l.668 3.477a.9.9 0 01-.71 1.05.937.937 0 01-.172.016.9.9 0 01-.878-.726zm-69.533 4.721a.9.9 0 00.593-1.566c-.067-.063-3.547-3.4-5.122-15.555-1.855-14.309-2.639-23.86-2.266-27.62a.9.9 0 00-.8-.98.917.917 0 00-.98.8c-.388 3.948.376 13.378 2.273 28.026 1.69 13.044 5.556 16.529 5.72 16.671a.887.887 0 00.586.219z"/><path class="j" d="M427.505 121.245l-10.1 32.427h-57.41l10.606-34.183a2.966 2.966 0 012.833-2.087h51.937c2.024-.002 2.657 2.574 2.134 3.843z"/><path class="b" d="M369.744 119.223a3.843 3.843 0 013.689-2.718h51.937a2.951 2.951 0 012.509 1.37 4.266 4.266 0 01.469 3.669l-10.284 33.024h-59.285zm56.931 1.68a2.479 2.479 0 00-.285-2.031 1.165 1.165 0 00-1.02-.574h-51.935a2.06 2.06 0 00-1.977 1.458l-10.246 33.021h55.532s9.9-31.8 9.932-31.873z"/><path class="j" d="M418.246 154.288h-87.31v-2.153h87.31z"/><path class="b" d="M330.265 151.463h88.655v3.5h-88.655zm87.311 1.344h-85.967v.809h85.967z"/><path class="b" d="M360.472 152.135l-.556 1.628h-28.979v-1.628z"/><path class="a" d="M391.023 136.777c0 1.914 1.839 3.466 4.106 3.466s4.107-1.552 4.107-3.466-1.839-3.466-4.107-3.466-4.106 1.551-4.106 3.466z"/><path class="b" d="M390.127 136.777c0-2.406 2.245-4.362 5-4.362s5 1.956 5 4.362-2.245 4.362-5 4.362-5-1.956-5-4.362zm1.792 0c0 1.417 1.44 2.571 3.211 2.571s3.211-1.153 3.211-2.571-1.44-2.571-3.211-2.571-3.211 1.153-3.211 2.571z"/><path d="M344.171 44.139c1.654-3.077 3.3-8.168 2.712-12.349a7.415 7.415 0 00-2.716-5.079c-3.244-2.427-6.083-6.414-4.323-10.33a8.208 8.208 0 00-.728-7.075 11.874 11.874 0 00-11.319-6.27 19.425 19.425 0 01-9.944-1.945c-1.84-.772-3.291-1.391-4.679-.937-2.922.945-3.838 3.653-4.509 5.629-.639 1.887-.815 2.095-1.306 2.032a1.168 1.168 0 00-1.179 1.173v.043c-.552-.074-1.177-.177-1.886-.246a1.233 1.233 0 00-1.014-1.36c-.273-.02-6.527-.41-8.453 4.4a6.16 6.16 0 00-.4 3.974c-.038.1-.075.2-.115.3-.225.089-.523.2-.992.341l-1.115.334c-3.995 1.183-8.521 2.523-9.168 7.824-.273 2.262-2.137 4.469-3.635 6.242a18.9 18.9 0 00-2.036 2.693l-.213.382c-1.335 2.356-3.819 6.746-1.179 9.725 2.22 2.508 2.3 3.394 1.407 4.952a7.623 7.623 0 00-1.062 4.268 2.815 2.815 0 01-.148 1.221l-.188.413c-.787 1.712-2.258 4.9-.426 7.389.622.849 1.276 1.92 1.923 2.979a30.2 30.2 0 002.516 3.729c1.357 1.568 4.138 4.787 7.63 6.284a4.847 4.847 0 001.917.365 8.12 8.12 0 003.14-.715 14.761 14.761 0 004.179 2.454 4.708 4.708 0 001.586.252 8.691 8.691 0 004.819-1.638 5.738 5.738 0 002.7-4.685c-.024-2.616.357-3.043.842-3.584a6.321 6.321 0 00.565-.707c1.043-1.563.469-3.251-.457-5.465-.877-2.1-.518-5.073.042-5.353a.9.9 0 00.4-1.2l-.009-.012a5.32 5.32 0 01.937-.352.892.892 0 00.618.733c.432.135 1.715.709 1.932 1.549a1.517 1.517 0 001.1 1.188 1.587 1.587 0 00.4.052c.7 0 1.736-.469 3.664-2.546 1.256-1.355 1.713-1.743 3.064-1.243a8.368 8.368 0 007.421-.8 3.131 3.131 0 013.131-.033c4.08 2.492 11.189 6.226 13.388 3.489 1.529-1.9 3.43-6.077 2.866-9.409a5.041 5.041 0 00-1.7-3.077z" fill="#332817"/></svg>