<svg xmlns="http://www.w3.org/2000/svg" width="187.249" height="208.197"><defs><style>.a{fill:#fff3c8}.c{fill:#79ccaa}.e{fill:#3e4496}.f{fill:#3d5d91}.g{fill:#254470}.h{fill:#ffc730}.i{fill:#db971f}</style></defs><path class="a" d="M100.379 56.727c-4.723-.9-9.531-3.572-14.3-4.191-1.509-.2-2.043.575-3.825.614a15.57 15.57 0 01-1.673-1.585 31.528 31.528 0 01-5.289-14.442c-.168-1.655-.177-2.925.152-3.108 3.761-2.1 5.137-7.957 5.137-7.957s0-9.971 5.439-7.252 22.438 4.532 22.438 4.532 2.24 14.613.014 21.85c-2.216 7.2-4.744 8.929-7.19 9.582-.258.068-.684 1.833-.903 1.957z"/><path class="a" d="M82.161 50.971c6.25.176 13.005 1.94 19.124 3.11-.051 3.41.175 14.057.341 16.344.145 2-.425 2.391-.341 3.159l-23.604 7.765s4.026-17.481 4.48-30.378z"/><path d="M97.886 26.347a1.439 1.439 0 01-.916 2.251c-3.8.669-10.9 2.352-9.337 5.389 2.115 4.1 4.7 7.118 2.431 9.082-1.873 1.624-4.725 4.287-2.669 6.8 3.017 3.686.723 11.755-1.393 13.577s-1.36 7.563 3.324 8.168 6.26 2.489 6.26 2.489-12.645 1.616-15.369-4.767a1.562 1.562 0 01-.1-1.005 118.57 118.57 0 001.892-14.479c.033-.415.075-.82-.232-1.1-1.4-1.282-5.52-5.942-7.38-17.679-.785-4.953 11.2-14.918 15.089-18.008a1.439 1.439 0 012.073.3z" fill="#dec48c"/><path class="c" d="M77.672 68.965a20.649 20.649 0 01-3.745.056c-2.053-.333-7.167.875-10.429 1.721-2.584.67-1.688 4.71-2.785 7.27-5.93 13.842-9.759 41.776-8.211 65 2.115 31.726-1.41 43.964-1.41 43.964h69.776s5.022-85.566 2.572-109.815c-.6-5.964-21.813-6.741-21.813-6.741.1 1.194-1.131 2.178-2.211 2.7-3.829 1.846-17.241 2.348-19.436-4.276z"/><path d="M74.744 69.09c-.06-.309-1.135 22.728 16.667 25.634 6.227 1.017 5.608 9.281-1.443 13.006s-8.588 10.788-4.331 17.02 11.887 14.295 3.827 22.662c-4.094 4.25-11.758 4.235-12.16 8.466s2.661 9.324 5.6 12.377c2.12 2.2 7.167-.246 14.016 3.682s-5.8 11.715 8.357 13.246l-52.771-6.285s1.947-26.672-.2-40.74c0 0 7.408-6.045-.3-30.831C39.55 67.296 74.744 69.09 74.744 69.09z" fill="#55b78d"/><path class="e" d="M53.158 163.281h.036a.68.68 0 00.643-.715l-.069-1.314a.663.663 0 00-.715-.643.681.681 0 00-.643.715l.069 1.314a.68.68 0 00.679.643zM92.28 74.996c.34 0 .687-.005 1.044-.016 8.193-.247 8.944-4.275 8.972-4.447a.68.68 0 10-1.341-.228c-.015.069-.747 3.106-7.671 3.314-7.311.235-11.149-2.029-12.314-4.208a.68.68 0 10-1.2.643c.636 1.187 3.38 4.942 12.51 4.942z"/><path class="f" d="M119.91 166.307c6.947-2.46 18.915-5.589 26.258-6.21 9.687-.82 21.115.956 26.072 12.151 6.631 14.977-50.282 34.556-70.5 34.124s-42.925-32.78-42.925-32.78 35.24 1.871 61.095-7.285z"/><path class="g" d="M169.725 168.666a.68.68 0 00.484-1.159c-4.067-4.114-11.316-8.471-19.522-8.257-7.667.175-20.332 3.214-20.868 3.342a.681.681 0 00.319 1.324c.13-.032 13.06-3.134 20.581-3.305 7.8-.207 14.83 4.12 18.522 7.853a.679.679 0 00.484.2zm-7.358 19.451c1.752 0 9.73-7.207 10.754-10.285a8.373 8.373 0 00-1.257-7.815.681.681 0 10-1.041.879 7 7 0 011.006 6.505c-.994 2.988-8.472 9.117-9.482 9.364a.617.617 0 00-.7.585.73.73 0 00.649.763.594.594 0 00.072 0z"/><path class="g" d="M172.475 176.32a48.359 48.359 0 01-24.352 7.818c-5.737.141-11.6-2.57-13.623 1.437s-15.057-1.211-20.28-2.515-28.568-7.341-31.147-7.272c0 0 39.193 19.294 41.064 21.562 1.741 2.111 29.888-7.815 34.022-9.3.339-.122 3.906-.444 4.224-.612 2.064-1.093 8.375-6.039 10.092-11.118z"/><path class="h" d="M14.965 188.813c-6.5 5.417-5.669 9.692-3.687 14.1a7.47 7.47 0 006.812 4.405h28.47l2.775-4.805-1.989-5.808c-.8-1.2-2.657-3.659-3.941-4.3-5.415-2.726-22.775-8.313-28.44-3.592z"/><path class="a" d="M38.828 206.764l18.549.754-22.832-8.827s-1.755 7.562 4.283 8.073z"/><path class="i" d="M35.88 206.65a.68.68 0 00.427-1.211c-.855-.687-1.262-3.327-1.319-4.83a.681.681 0 10-1.361.05c.017.461.213 4.543 1.826 5.84a.679.679 0 00.427.15zm-22.597-.412a.681.681 0 00.5-1.147 14.822 14.822 0 01-2.774-4.768c-1.414-4.079 1.923-8.58 1.958-8.625a.68.68 0 10-1.086-.82c-.157.207-3.811 5.121-2.158 9.892a15.955 15.955 0 003.069 5.255.679.679 0 00.491.213z"/><path class="h" d="M165.192 189.469c4.309 3.629 5.611 9.543 3.629 13.948l-.031-.745a7.47 7.47 0 01-6.812 4.405h-28.47l-2.775-4.805 1.193-3.486a14.491 14.491 0 013.321-5.493 5.974 5.974 0 011.416-1.135c5.415-2.717 22.884-7.442 28.529-2.689z"/><path class="a" d="M137.462 194.906a4.262 4.262 0 014.028 3.635 18.728 18.728 0 01.056 5.188 4 4 0 01-1.078 1.786 4.748 4.748 0 01-2.4.856h-10.771v-10.217z"/><path class="f" d="M129.942 197.258c0-1.353-.507-4.307-1.685-4.729-10.216-3.661-56.374-21.43-61.854-23.955-15.81-7.287-48.363-9.95-54.309 2.6s-6.343 14.276 0 18.6c4.5 3.07 23.972 10.714 34.9 14.9a43.055 43.055 0 0015.393 2.842h65.969a1.959 1.959 0 001.868-2.039z"/><path class="i" d="M166.964 205.84a.687.687 0 00.307-.073c1.744-.88 2.589-3.316 2.51-7.239a11.351 11.351 0 00-6.515-10.257c-5.129-2.266-11.324-1.083-16.307-.134l-1.195.226a26.12 26.12 0 00-11.713 5.258.681.681 0 00.9 1.023 25.237 25.237 0 0111.064-4.944l1.2-.227c4.8-.914 10.761-2.053 15.5.042a9.99 9.99 0 015.7 9.04c.065 3.261-.561 5.39-1.764 6a.68.68 0 00.307 1.288z"/><path d="M133.439 207.168a38.069 38.069 0 008.454-1.354c.508-.146.848-.646 1.009-1.486.416-2.176-.31-7.517-2.7-9.363-2.8-2.166-9.423-.33-10.17-.116a.681.681 0 00.38 1.308c1.845-.537 7.05-1.6 8.956-.116 1.311 1.014 2.012 3.644 2.215 5.59a5.66 5.66 0 01-.188 2.938c-1.476.395-6.646 1.6-9.437 1.131a.681.681 0 10-.226 1.342 10.337 10.337 0 001.707.126z" fill="#ffe48f"/><path class="g" d="M130.226 206.151h.035a.679.679 0 00.644-.714l-.247-4.924c.8-7.445-3.9-9.243-4.1-9.316l-40.744-14.729a.681.681 0 10-.463 1.281l40.743 14.728c.154.059 3.9 1.554 3.211 8l.244 5.03a.68.68 0 00.679.646zm-78.74.901a.68.68 0 00.254-1.311c-.328-.133-32.983-13.3-39.327-16.573-4.96-2.557-4.6-4.833-4.347-6.5a6.329 6.329 0 00.105-1.009c-.011-.922 1.126-3.21 2.441-5.86.655-1.321 1.382-2.784 2.106-4.348 2.31-4.989 9.983-6.912 15.554-7.923 8.438-1.536 25.929 1.765 26.1 1.8a.68.68 0 10.255-1.337c-.726-.14-17.9-3.382-26.6-1.8-5.869 1.067-13.969 3.128-16.546 8.691-.718 1.552-1.439 3-2.089 4.315-1.508 3.037-2.6 5.23-2.583 6.48a5.193 5.193 0 01-.088.783c-.286 1.837-.764 4.909 5.066 7.915 6.4 3.3 38.1 16.083 39.444 16.625a.68.68 0 00.254.049z"/><path class="a" d="M140.597 119.216s.833 26.878-7.109 38.051c-7.372 10.371-32.99 14.45-41.217 16.838-5.842 1.7-11.644.908-19.284 5.31-6.127 3.53-37.932-3.63-20.3-11.917s17.877-2.66 20.3-3.02a87.911 87.911 0 0025.486-9.712c4.374-2.524 10.181-4.179 13.5-7.258 5.089-4.728 7.547-13.491 8.156-21 .22-2.708.442-7.293.442-7.293s21.648-5.404 20.026.001z"/><path class="e" d="M68.973 180.786a16.093 16.093 0 002.891-.214 12.679 12.679 0 005.023-1.919 13.49 13.49 0 012.684-1.34 113.612 113.612 0 0111.562-2.713c.157-.035 12.826-2.99 28.965-7.639 12.623-3.636 14.632-9.03 16.245-13.366.229-.613.449-1.207.7-1.774 2.945-6.812 4.121-24.714 4.17-25.473a.681.681 0 00-.635-.723.7.7 0 00-.723.635c-.012.183-1.211 18.425-4.061 25.021-.254.587-.484 1.2-.72 1.839-1.587 4.259-3.384 9.086-15.348 12.532-16.1 4.64-28.739 7.586-28.866 7.615a111.449 111.449 0 00-11.755 2.77 14.8 14.8 0 00-2.93 1.458 11.383 11.383 0 01-4.567 1.742c-4.186.8-16.171-1.152-18.684-2.471a.68.68 0 10-.633 1.2c2.313 1.217 11.131 2.82 16.682 2.82z"/><path class="e" d="M49.955 176.654a.681.681 0 00.269-1.306c-.536-.23-1.987-1.063-2.281-2.14a1.908 1.908 0 01.437-1.665c2.025-2.76 8.553-5.565 12.328-6.59l.776-.214c3.074-.86 4.929-1.377 11.322.395a.682.682 0 00.319.012 103.8 103.8 0 0026.5-10.236c.464-.22 12.358-5.923 15.537-10.128 3.417-4.519 5.008-17.15 5.18-19.451a.681.681 0 00-.629-.73.689.689 0 00-.73.629c-.259 3.481-1.972 14.85-4.907 18.731-2.981 3.942-14.959 9.684-15.079 9.741a102.986 102.986 0 01-25.989 10.072c-6.626-1.818-8.726-1.231-11.889-.351l-.767.213c-3.2.87-10.612 3.75-13.069 7.1a3.217 3.217 0 00-.651 2.833c.53 1.932 2.954 2.985 3.057 3.029a.685.685 0 00.266.056z"/><path class="a" d="M71.915 134.618a3.771 3.771 0 01-5.232-3.637c.3-7.157-2.443-18.618-3.354-21.351-1.344-4.033-17.866 3.192-17.866 3.192s-2.644 49.2 9.841 47.1c24.735-4.162 39.053-23.185 43.982-29.011l-7.814-5.304s-8.344 4.227-19.557 9.011z"/><path class="c" d="M38.478 114.139a7.247 7.247 0 007.9 7.252c8.495-.752 20.951 1.01 23.873-1.86 2.278-2.236 2.712-48.91-4.449-48.789S46.724 75.09 43.437 88.106c-2.742 10.862-4.92 19.657-4.959 26.033zm104.766 6.977a2.94 2.94 0 01-3.377 2.978c-7.618-1.136-25.384-.836-26.838-2.2-2.33-2.181-2.712-48.91 4.449-48.789s19.082 4.345 22.368 17.364c2.678 10.607 3.262 24.311 3.398 30.647z"/><rect width="19.748" height="33.542" rx="2.96" transform="rotate(180 56.901 65.616)" fill="#457ed1"/><path class="a" d="M93.918 134.405s17.241-10.6 19.588-15.935c2.092-4.752 4-7.4.339-9.011-5.41-2.38-13.983 7.326-17.022 7.72s-.369-7.073-3.561-5.934c-1.576.562-1.651 4.023-1.529 7.03a78.85 78.85 0 01-.725 10.118z"/><path class="e" d="M94.053 109.789a.68.68 0 00.68-.68v-6a4.8 4.8 0 01.678-3.273 3.957 3.957 0 012.768-1.473l11.508.007c.489.133 3.434 1.034 3.434 3.348v5.474a.68.68 0 101.361 0v-5.474c0-3.594-4.368-4.648-4.554-4.691a.672.672 0 00-.154-.017H98.085a5.3 5.3 0 00-3.778 2.037 6 6 0 00-.92 4.18l-.01 5.882a.68.68 0 00.68.68zm7.687 22.121h8.033c3.034 0 4.4-3 4.7-4.582l.012-6.112a.68.68 0 00-1.361 0v5.994c-.016.014-.687 3.346-3.348 3.346h-8.036a.68.68 0 100 1.361z"/><path class="e" d="M54.781 160.081c6.232 0 15.232-3.833 21.385-7.331a83.5 83.5 0 0023.6-20.316c1.122-.848 12.791-9.753 14.726-14.5.185-.452.369-.888.546-1.308 1-2.367 1.794-4.237 1.179-5.752a3.353 3.353 0 00-1.966-1.781 6.39 6.39 0 00-4.706-.005 27.268 27.268 0 00-4.652 2.08.68.68 0 10.763 1.127 25.142 25.142 0 014.361-1.931 5.056 5.056 0 013.712-.012 2.085 2.085 0 011.231 1.039c.4.991-.326 2.714-1.171 4.709-.179.425-.365.866-.553 1.325-1.848 4.532-14.229 13.881-14.354 13.976a.682.682 0 00-.122.12 82.148 82.148 0 01-23.263 20.049c-8.38 4.763-17.21 7.611-21.989 7.086-2.394-.263-4.659-5.145-6.217-13.392-.763-4.042-1.372-22.091-1.377-22.272a.682.682 0 00-.68-.658h-.023a.681.681 0 00-.658.7c.025.747.618 18.336 1.4 22.48 1.749 9.268 4.241 14.144 7.405 14.492a12.994 12.994 0 001.426.074z"/><path class="e" d="M70.048 135.474a8.82 8.82 0 003.117-.651l6.054-2.666c.474-.223 11.271-5.3 12.562-5.943 1.175-.585 1.153-3.04.834-8.111-.089-1.414-.173-2.75-.149-3.623a2.27 2.27 0 011.062-2.186.839.839 0 01.769 0 11.618 11.618 0 01.545 2.6c.254 1.748.376 2.469.875 2.764.928.553 3.467-.68 7.523-3.691a.68.68 0 00-.811-1.092c-2.237 1.66-5.017 3.389-5.938 3.564-.106-.387-.222-1.181-.3-1.741-.26-1.8-.448-2.928-.973-3.409a2.12 2.12 0 00-2.221-.245c-.548.232-1.826 1.031-1.89 3.4-.025.934.061 2.3.151 3.745.138 2.188.394 6.261-.13 6.84-1.229.6-12.358 5.837-12.471 5.89l-6.034 2.656c-.684.294-2.751.909-4.007.23a2.35 2.35 0 01-1.134-1.809 44.49 44.49 0 01-.585-7.712c0-.609-.009-1.034-.036-1.221a.69.69 0 00-.771-.577.681.681 0 00-.577.771c.023.158.02.517.023 1.033a45.781 45.781 0 00.6 7.946 3.672 3.672 0 001.83 2.769 4.354 4.354 0 002.077.469zm-30.314-30.937a.68.68 0 00.669-.56c.028-.154 2.827-15.511 5.9-21.284 3.307-6.209 10.722-9.168 16.813-11.052a58.683 58.683 0 0115.814-2.063h.014a.681.681 0 10.015-1.361 58.681 58.681 0 00-16.244 2.126c-6.341 1.96-14.074 5.063-17.613 11.711-3.174 5.962-5.923 21.043-6.039 21.682a.681.681 0 00.549.791.765.765 0 00.122.01z"/><path class="e" d="M51.641 121.896c6.468 0 14.146-.031 14.261-.031a4.693 4.693 0 003.393-1.114c1.689-1.394 2.618-3.891 2.76-7.422.351-8.728.364-14.647.262-17.276a.638.638 0 00-.707-.654.682.682 0 00-.654.707c.1 2.6.088 8.479-.262 17.167-.123 3.085-.906 5.307-2.264 6.428a3.428 3.428 0 01-2.428.811c-.183 0-7.733.023-14.167.023a653.1 653.1 0 01-7.91-.031c-3.721-.056-4.659-5.687-4.762-6.38l.719-7.282a.682.682 0 00-.611-.744.7.7 0 00-.744.611l-.726 7.361a.679.679 0 000 .149c.037.31.982 7.569 6.1 7.645 1.524.025 4.478.032 7.74.032zm90.945-12.809a.681.681 0 00.68-.67c.008-.584.147-14.381-5.34-24.436-5.574-10.22-19.095-11.473-19.668-11.521-5.513-1.326-14.629-2.383-14.721-2.393a.7.7 0 00-.754.6.683.683 0 00.6.753c.09.009 9.126 1.057 14.66 2.38.234.028 13.469 1.264 18.69 10.833 5.313 9.736 5.175 23.625 5.172 23.765a.681.681 0 00.671.69zm-4.494 15.727q.4 0 .75-.008c2.266-.059 3.812-.625 4.6-1.682a2.659 2.659 0 00.484-2.1l-.441-9.829a.635.635 0 00-.71-.649.678.678 0 00-.648.71l.444 9.89a.594.594 0 00.024.152 1.318 1.318 0 01-.261 1.037c-.364.476-1.272 1.055-3.522 1.112-5.226.147-20.906-1.349-22.063-1.478a.681.681 0 00-.151 1.353c1.108.123 15.582 1.492 21.494 1.492zM114.6 23.156s8.513-18.3-3.875-21.313-8.243 5.091-12.473 7.508-5.717.846-11.458.242-9.884 2.357-11.618 7.993 1.631 5.607-2.112 7.687c-2.279 1.267-3.458 6.508-1.177 12.2.935 2.334 1.655 3.787 2.472 4.513l2.7 3.2c.557-2.48 1.27-1.53.624-3.989-1.01-3.848-2.506-2.111 1.944-8.839 1.189-1.8 4.741-5.249 5.829-4.977 3.626.906 4.932 2.919 10.069 3.508s14.874 3.145 19.075-7.733z"/><path class="e" d="M108.836 43.087s3.478-12.188 2.207-17.728c-1.09-4.75-2.725-2.543-2.725-2.543l-2.013 6.788c4.508-.265 2.268 12.506 2.531 13.483z"/><path d="M91.446 29.945s-2.582-1.88-5.19-4.235c-2.12-1.914-4.1 1.551-6.742 1.129-7.027-1.124-8.471 2.16-8.857 4.542s1.174 6.093 1.174 6.093a23.2 23.2 0 002.472 4.513c1.311 1.556 2.755 3.2 2.755 3.2a7.245 7.245 0 01.666-1.81c.767-1.353-1.064-4.363-1.176-5.292a5.615 5.615 0 011.212-2.922 34.772 34.772 0 012.573-3.727c1.3-1.5 4.118-4.239 5.063-4.053a35.527 35.527 0 016.05 2.562z" opacity=".5" fill="#3e4496"/><path class="e" d="M101.278 69.527a.6.6 0 00.07 0 .679.679 0 00.607-.745c-.427-4.188-.827-11.335-.081-12.687a8.924 8.924 0 012.452-2.1.68.68 0 10-.718-1.156 10.213 10.213 0 00-2.925 2.6c-1.171 2.12-.274 11.6-.081 13.481a.68.68 0 00.676.607zm3.998-16.804a.679.679 0 00.493-.211c1.394-1.462 3.723-6.47 3.748-9.417a.681.681 0 00-.675-.686h-.005a.68.68 0 00-.68.675c-.021 2.477-2.178 7.237-3.373 8.489a.681.681 0 00.493 1.15zm-24.97 15.628a.677.677 0 00.586-.336c.878-1.494 1.3-8.159 1.506-13.488a5.547 5.547 0 00-1.064-3.467 55.975 55.975 0 01-3.43-5.591.681.681 0 10-1.2.635 56.487 56.487 0 003.53 5.747 4.2 4.2 0 01.807 2.625c-.265 6.993-.769 11.917-1.317 12.85a.678.678 0 00.242.93.671.671 0 00.344.094zm29.297-27.577a.682.682 0 00.662-.521c.08-.331 1.919-7.985 1.748-11.447.837-1.209 4.972-7.394 5.523-12.469l.109-.965c.6-5.179 1.417-12.273-8.01-14.85-7.821-2.141-9.194 2.807-9.93 5.465a5.2 5.2 0 01-.57 1.558 14.03 14.03 0 01-3.36 2.174.681.681 0 00.558 1.241 15.235 15.235 0 003.75-2.44 4.891 4.891 0 00.929-2.169c.778-2.805 1.742-6.3 8.26-4.514 8.3 2.269 7.618 8.172 7.017 13.38l-.11.976c-.562 5.174-5.371 11.957-5.42 12.025a.687.687 0 00-.123.453c.262 3.106-1.679 11.183-1.7 11.265a.682.682 0 00.5.821.737.737 0 00.159.019zm-33.447 4.06a.68.68 0 00.549-1.083 49.764 49.764 0 01-4.464-7.28c-1.215-2.864-.852-9.412.562-10.155 1.991-1.046 2.764-2.218 2.667-4.048-.073-1.386-.108-2.031.8-5.736.849-3.473 5.01-5.531 7.336-6.2 1.718-.5 7.441.518 9.5.95a.68.68 0 00.279-1.332c-.791-.166-7.792-1.608-10.156-.926-.717.206-7.053 2.163-8.28 7.183-.954 3.9-.914 4.657-.841 6.03.062 1.208-.229 1.978-1.936 2.875-2.483 1.3-2.379 9.069-1.181 11.89a50.04 50.04 0 004.616 7.559.68.68 0 00.549.273z"/><path class="e" d="M77.725 44.057a.618.618 0 00.086-.005.681.681 0 00.59-.76c-.1-.755-.606-4.568-1.285-5.584-.1-.147-.11-.7.464-1.825 1.733-3.406 6.157-7.577 7.083-7.612a15.983 15.983 0 013.976 1.179c2.82 1.018 6.329 2.285 9.473 2.471l.985.06c4.047.246 6.727.409 8.541-.4a28.556 28.556 0 01.821 5.913.679.679 0 00.642.716.651.651 0 00.716-.642 34.743 34.743 0 00-1.065-7.2.678.678 0 00-.436-.478.671.671 0 00-.639.1c-1.385 1.061-4.062.9-8.5.631l-.987-.06c-2.948-.174-6.354-1.4-9.09-2.392a16.567 16.567 0 00-4.486-1.26c-1.873.064-6.58 5.1-8.237 8.33-.744 1.454-.874 2.508-.4 3.224a21.579 21.579 0 011.067 5 .681.681 0 00.681.594zM.68 208.197h185.888a.68.68 0 100-1.361H.68a.68.68 0 100 1.361z"/></svg>