<svg xmlns="http://www.w3.org/2000/svg" width="191.835" height="294.783"><defs><style>.a{fill:#fff3c8}.b{fill:#3e4496}.c{fill:#dec48c}.d,.e{fill:#457ed1}.e{opacity:.5}.f{fill:#34dbf9}</style></defs><path class="a" d="M106.066 109.936s2.682 18.518-8.314 17.713-58.632-19.174-54.176-8.865c6.044 13.982 42.107 27.624 59.906 33.346 11.311 3.636 11.976-26.4 11.705-36.441s-9.121-5.753-9.121-5.753z"/><path class="b" d="M106.878 153.806c2.428 0 5.041-4.053 5.815-5.352a1.01 1.01 0 10-1.735-1.033c-1.415 2.372-3.345 4.507-4.1 4.365-2.618-.538-47.25-17.265-51.272-21.486a1.01 1.01 0 10-1.463 1.392c4.591 4.82 49.948 21.612 52.354 22.077a2.081 2.081 0 00.4.037z"/><path class="c" d="M62.588 265.929v14.665l-13.354 1.741 1.56-17.655z"/><path class="b" d="M45.382 279.945c2.869-1.2 3.652-.123 5.47.13a24.342 24.342 0 0010.836-.452c4.824-1.894 4.824 8.837 4.193 13.887H16.463s-1.672-14.614 8.387-14.109c7.383.369 16.415 2.26 20.532.544z"/><path class="b" d="M15.459 293.623c-.039-.349-.934-8.623 3.024-12.844a7.8 7.8 0 016.417-2.387c2.269.112 4.7.371 7.051.619 5.12.536 10.411 1.1 13.043 0a5.942 5.942 0 014.8-.242 7 7 0 001.195.3 23.7 23.7 0 0010.328-.392 3.21 3.21 0 013.32.363c3.665 2.846 2.3 14.111 2.244 14.588l-.111.885H15.562zm47.942-12.985a1.229 1.229 0 00-1.344-.075 24.9 24.9 0 01-11.343.511 8.773 8.773 0 01-1.528-.379 4 4 0 00-3.415.179c-3.107 1.3-8.414.735-14.032.144-2.324-.247-4.727-.5-6.941-.611a5.852 5.852 0 00-4.838 1.75c-2.642 2.811-2.665 8.211-2.559 10.342h47.577c.489-4.906.053-10.593-1.577-11.861z"/><path class="b" d="M62.587 278.816a1.009 1.009 0 001.009-1.009v-.757a1.01 1.01 0 10-2.019 0v.757a1.009 1.009 0 001.01 1.009z"/><path class="d" d="M112.398 173.517s2.884 12.587-8.746 14.18c-14.264 1.953-35.026-1.961-45.146 25.975-6.08 16.781-7.246 31.787-10.29 43.27-1.049 3.957-2.191 16.148 1.59 16.658l8.386 2.462c2.6.351 6.795-.664 7.979-3.187l21.7-59.024a20.228 20.228 0 0114.632-13.258c16.3-3.447 43.547-6.88 45.958-11.221.981-1.765 6.476-19.533 6.476-19.533z"/><path class="b" d="M54.859 226.54a1.009 1.009 0 00.986-.8 70.5 70.5 0 0113.468-27.663c5.437-6.833 26.7-8.7 33.685-9.311l.743-.065c7.738-.684 9.837-10.222 9.922-10.626a1.01 1.01 0 10-1.975-.418c-.018.085-1.881 8.481-8.124 9.033l-.743.065c-7.962.7-29.111 2.553-35.088 10.064a72.617 72.617 0 00-13.863 28.5 1.009 1.009 0 00.778 1.2 1.072 1.072 0 00.211.022z"/><path class="e" d="M73.363 202.471c1.827-3.228.523-4.41 4.476-6.245a18.655 18.655 0 004.696-1.978 9.742 9.742 0 017.242-3.319 103.136 103.136 0 0112.607-.1l-28.293 15.992-23.756 34.708a118.334 118.334 0 008.825-16.408 16.174 16.174 0 016.766-10.236c4.112-2.861-1.564-4.493 2.727-8.873 1.119-1.139 3.713-1.78 4.71-3.541z"/><path class="b" d="M60.458 276.621a7.2 7.2 0 006.6-3.282l7.8-21.184a1.012 1.012 0 10-1.9-.7l-7.735 21.066c-.038.043-2.393 4.063-10.338.794a1.009 1.009 0 10-.769 1.865 16.768 16.768 0 006.342 1.441z"/><path class="f" d="M128.631 77.781s-21.119 1.474-23.1 19.283c-.225 2.029-.4 4.056-.772 6.063a154.3 154.3 0 00-1.244 18c.34 2.637 19.02 4.328 19.02 4.328s-.012-44.158 6.096-47.674z"/><path class="b" d="M105.669 97.135a1.012 1.012 0 001-.913c.008-.088.931-8.808 7.9-12.461a1.01 1.01 0 10-.943-1.785 18.816 18.816 0 00-8.968 14.056 1.009 1.009 0 00.909 1.1.836.836 0 00.102.003z"/><path class="a" d="M120.221 26.981s-6.931 13.715-4.527 21.528c2.394 7.779 6.2 11.783 12.6 12.488a2.057 2.057 0 011.841 2c.073 3.444.189 10.692-.044 13.9-.652 8.97-.652 4.24-.652 4.24l25.769 8.481s-5.9-22.525-5.571-37.04l2.133-4.636s5.221-8.805 4.091-9.436c-4.06-2.264-5.545-8.59-5.545-8.59s0-10.764-5.871-7.828-24.224 4.893-24.224 4.893z"/><path class="c" d="M131.946 32.285s9.877 1.414 7.594 5.845-3.937 6.551-1.49 8.668c2.022 1.753 8.245 4.09 7.477 7.509s-1.584 14 .7 15.967a5.478 5.478 0 01-3.588 8.824 10.747 10.747 0 00-6.759 2.687s13.723 1.613 16.846-5.676a176.186 176.186 0 01-3.089-23.54s4.092-10.225 8.985-14.438-17.451-18.933-17.451-18.933z"/><path class="b" d="M118.979 56.605a1.009 1.009 0 00.506-1.883c-8.428-4.885.063-23.785.15-23.976a1.01 1.01 0 00-1.838-.836c-.384.844-9.319 20.765.674 26.558a1 1 0 00.508.137zm11.169 20.322a1.01 1.01 0 001.005-.934c.432-5.823.651-15.643-2.754-16a18.993 18.993 0 01-6.18-2.4 1.01 1.01 0 10-1.051 1.723A20.67 20.67 0 00128.191 62c.994.568 1.455 7.042.948 13.843a1.011 1.011 0 00.932 1.082zm22.242-1.569a1.01 1.01 0 00.993-1.2 165.83 165.83 0 01-2.982-19.968 17.228 17.228 0 011.421-4.053 1.01 1.01 0 10-1.818-.879 19.528 19.528 0 00-1.6 4.69c-.347 2.809 2.659 18.777 3 20.589a1.009 1.009 0 00.99.822z"/><path class="d" d="M112.446 22.903S95.189 4.624 108.563 1.368s11.417 4.573 15.984 7.182 8.807.652 15 0 14.434.93 16.31 7.014.657 10.793 5.223 11.513 4.893 7.461 0 11.919-8.481 8.7-11.417 10c0 0 6.2-8.264 1.957-10a4.349 4.349 0 00-5.872 2.5s.979-15-2.936-14.026-1.7 3.784-7.25 4.42-18.581 2.756-23.116-8.987z"/><path class="b" d="M152.476 48.131a1 1 0 00.607-.2c1.557-1.171 15.138-11.619 12.477-17.989-1.445-3.46-2.963-3.83-4.394-3.911a1.513 1.513 0 01-.639-.108c-.879-.566-1.66-1.656-3.681-10.578-1.995-8.8-12.816-8.27-16.08-7.9-.753.087-1.752.286-2.9.516-4.518.909-11.351 2.285-14.056-1.329l-.4-.544c-3.224-4.323-5.343-7.182-13.857-5.688a7.772 7.772 0 00-6.535 7.584 14.3 14.3 0 002.123 6.8 1.009 1.009 0 001.75-1.005 12.323 12.323 0 01-1.855-5.828 5.739 5.739 0 014.863-5.563c7.292-1.272 8.824.795 11.883 4.907l.408.546c3.468 4.645 11.051 3.113 16.073 2.1 1.082-.217 2.021-.408 2.73-.489 3.653-.416 12.3-.637 13.884 6.334 2.135 9.433 3.028 10.848 4.556 11.832a3.113 3.113 0 001.614.424c.808.045 1.569.089 2.65 2.673 1.552 3.72-6.433 11.543-11.83 15.6a1.009 1.009 0 00.607 1.816z"/><path class="b" d="M152.392 45.268a1.009 1.009 0 00.828-.432 5.4 5.4 0 00.83-4.059 4.611 4.611 0 00-2.73-2.941 3.944 3.944 0 00-4.168.475c.319-3.407.465-8.232-.966-10.054a2.267 2.267 0 00-1.429-.876 5.653 5.653 0 00-5.366 1.311 20.821 20.821 0 01-9.7 2.722 1.01 1.01 0 10.008 2.019 22.775 22.775 0 0010.947-3.16 3.621 3.621 0 013.468-.978 1.166 1.166 0 00.313.079c.02 0 .071.006.17.13 1.131 1.439.769 7.789.152 11.84a1.009 1.009 0 001.9.611c.069-.136 1.715-3.271 3.813-2.295a2.715 2.715 0 011.638 1.634 3.424 3.424 0 01-.534 2.385 1.01 1.01 0 00.828 1.587zm-26.781-11.941a1.01 1.01 0 00.239-1.987c-.085-.02-8.485-2.119-11.94-7.828l-.118-.2a17.713 17.713 0 00-1.362-2.036l-3.475-4.288a1.01 1.01 0 00-1.569 1.27l3.471 4.288a15.858 15.858 0 011.207 1.812l.118.195c3.9 6.437 12.814 8.654 13.192 8.747a1.085 1.085 0 00.237.027zM50.609 277.588a1.011 1.011 0 00.942-.644l.377-.974a1.01 1.01 0 00-1.885-.729l-.377.974a1.008 1.008 0 00.942 1.374zm-14.251-2.882a1.01 1.01 0 00.873-.5l.927-1.593a1.01 1.01 0 00-1.747-1.013l-.926 1.593a1.009 1.009 0 00.873 1.516z"/><path class="a" d="M55.913 264.952l-8.851 18.239-14.957-2.175 16.968-29.2z"/><path class="b" d="M32.077 276.338c3.047-.619 3.606.587 5.341 1.188a24.336 24.336 0 0010.718 1.656c5.1-.923 3.02 9.6 1.422 14.436l-48.48-9.576s1.192-14.661 10.962-12.216c7.172 1.795 15.665 5.401 20.037 4.512z"/><path class="b" d="M0 284.859l.073-.9c.027-.351.753-8.64 5.457-12.013a7.855 7.855 0 016.756-1.1c2.2.552 4.532 1.273 6.786 1.971 4.924 1.526 10.017 3.1 12.806 2.531a5.964 5.964 0 014.761.7 6.95 6.95 0 001.11.528 23.666 23.666 0 0010.21 1.616 3.237 3.237 0 013.188 1c3.044 3.5-.477 14.29-.629 14.748l-.28.846zm48.316-4.682a25.01 25.01 0 01-11.229-1.7 8.916 8.916 0 01-1.423-.668 4.031 4.031 0 00-3.385-.485c-3.306.67-8.4-.909-13.8-2.583-2.23-.69-4.534-1.4-6.679-1.94a5.833 5.833 0 00-5.088.779c-3.137 2.247-4.205 7.539-4.515 9.65l46.674 9.22c1.431-4.719 2.108-10.383.753-11.943a1.068 1.068 0 00-.885-.377 2.288 2.288 0 00-.42.04z"/><path class="d" d="M180.977 173.08s12.722 49-9.836 49c-36.885 0-53.062 1.529-70.048 1.426-3.57-.021-15.15 12.062-17.262 14.973-5.7 7.856-16.1 15.546-22.834 24.487-9.718 12.9-15.366 12.044-22.969 7.856-10.311-5.681 32.029-63.9 41-72.911 3.406-3.424 8.415-4.544 13.852-5.4 13.267-2.078 29.462.127 33.887-6.131 6.238-8.823 5.224-13.306 5.224-13.306z"/><path class="b" d="M54.857 231.149a1.006 1.006 0 00.86-.481c6.2-10.1 19.369-29.943 24.8-32.788 6.786-3.552 23.053-5.212 30.869-6.011l.54-.055c8.159-.836 12.209-2.784 13.129-6.316a1.008 1.008 0 10-1.95-.507c-.668 2.559-4.286 4.091-11.383 4.818l-.538.055c-8.554.871-24.472 2.5-31.6 6.227-7.278 3.813-24.841 32.311-25.584 33.521a1.009 1.009 0 00.331 1.388 1 1 0 00.528.15z"/><path class="e" d="M123.641 175.074s33.036 3.77 36.364 9.1 5.824 15.424-7.488 14.863-12.555 3.646-5.862 9.254-25.476 10.981-39.343 9.7-34.953 2.674-28.292 8.547 2.5 14.286-5.542 16.529-14.884 12.057-14.795 15.231-11.35 13.859-22.176 10.108a3.021 3.021 0 001.518 2.419c1.463.772 8.791 5.549 15.418.133 0 0 15.918-17.169 20.666-21.91a65.856 65.856 0 006.434-6.555c7.079-8.869 16.84-18.628 20.551-18.984l71.352-1.216s10.291 1.87 11.035-21.07a157.56 157.56 0 00-2.131-26.149z"/><path class="b" d="M49.506 274.614h.321c3.241-.069 9.778-7.558 16.761-15.893 1.437-1.717 2.575-3.073 3.225-3.761.4-.418 1.187-1.27 2.265-2.427 5.165-5.549 17.259-18.542 23.722-24.7a18.785 18.785 0 0110.107-3.4c26.316-.489 68.692.733 72.3-2.482 4.39-3.911 11.229-20.861 4.779-43.585-.152-.536-.5-1-1.067-.948-.556.031-1.094.527-.948 1.067 5.815 21.515-.617 37.518-3.432 40.055-4.252 3.834-29.34 3.088-71.671 3.875a20.716 20.716 0 00-11.46 3.953c-6.507 6.2-18.629 19.221-23.806 24.782-1.074 1.153-1.861 2-2.256 2.415-.692.733-1.845 2.109-3.306 3.852-3.789 4.524-12.664 15.116-15.256 15.171-2.827.059-9.551-.773-11.724-3.747a3.94 3.94 0 01-.378-3.835c2.722-7.9 11.243-26.247 16.22-31.6a1.009 1.009 0 00-1.479-1.372c-5.348 5.756-13.941 24.459-16.65 32.318a5.9 5.9 0 00.654 5.682c2.763 3.783 10.085 4.58 13.079 4.58z"/><path class="f" d="M155.217 76.166a19.759 19.759 0 003.355-.138 21.809 21.809 0 019.9 1.243c2.411 1.224-.156 2.9 1.028 5.039 6.4 11.591 14.561 36.413 12.889 55.863-2.283 26.566 1.522 36.813 1.522 36.813h-72.086s1.837-68.628 4.482-88.933c.651-4.994 10.2-8.225 13.68-8.782l-.629.117c-.108 1 1.222 1.823 2.387 2.259 4.133 1.546 18.613 1.966 20.981-3.581z"/><path d="M158.156 82.872c.065-.259-2.306 19.884-8.83 21.4s-15.439 8.184-7.829 11.3 9.271 9.033 4.675 14.252-9.786 16.7-4.132 18.976 16.962 7.422 17.4 10.964-7.159 7.249-10.312 6.489-7.737-.206-15.131 3.083 6.9 4.364-8.383 5.647h58.3s-4.073-22.152-1.751-33.932c0 0 .65-4.026-.11-25.754-1.092-31.261-23.897-32.425-23.897-32.425z" fill="#34dbf9" opacity=".5"/><path class="b" d="M139.088 81.828a29.064 29.064 0 0012.773-3.14 1.009 1.009 0 10-.883-1.814c-11.775 5.719-20.057 1.22-20.137 1.173a1.01 1.01 0 10-1 1.757 19.818 19.818 0 009.244 2.025zm22.424 94.036h23.215a1.01 1.01 0 00.982-1.246 112.176 112.176 0 01-3.011-17.733l.175-2.66a1.01 1.01 0 00-2.015-.134l-.176 2.694a97.4 97.4 0 002.77 17.06h-21.94a1.01 1.01 0 000 2.019zm-3.871.168a1.01 1.01 0 100-2.019l-44.771-.035 1.08-32.384a1.01 1.01 0 00-2.019-.067l-1.115 33.426a1.01 1.01 0 001.009 1.043zm-44.049-56.186a1.021 1.021 0 001.008-1.069 176.049 176.049 0 01.52-24.025c.816-8.276 2.038-13.464 12.1-15.743a1.006 1.006 0 00.758-1.206.995.995 0 00-1.206-.761c-12.207 2.762-12.948 10.261-13.663 17.513a178.129 178.129 0 00-.524 24.34 1.009 1.009 0 001.007.95z"/><path class="d" d="M50.28 128.216l58.541.944a2.422 2.422 0 002.39-3l-9.77-39.455a2.493 2.493 0 00-2.486-1.889l-60.061 1.569c-1.193.031-1.143.956-.791 2.2l9.873 37.821a2.422 2.422 0 002.3 1.81z"/><path class="b" d="M108.805 130.17l-58.541-.94a3.444 3.444 0 01-3.265-2.565l-9.868-37.8a3.128 3.128 0 01.112-2.736 1.964 1.964 0 011.627-.751l60.06-1.573a3.486 3.486 0 013.491 2.66l9.771 39.453a3.433 3.433 0 01-3.33 4.256zm-9.823-44.348l-60.089 1.589a4.5 4.5 0 00.185.924l9.873 37.819a1.421 1.421 0 001.345 1.057l58.541.945a1.607 1.607 0 001.128-.532 1.4 1.4 0 00.268-1.22l-9.773-39.458a1.488 1.488 0 00-1.439-1.124z"/><path d="M66.662 105.749a4.132 4.132 0 104.131-4.132 4.132 4.132 0 00-4.132 4.132z" fill="#fff"/><path class="a" d="M183.916 118.462s2.935 40.766-13.378 43.449c-14.956 2.463-48.272-14.464-60.512-25.772a18.557 18.557 0 00-7.4-4.117c-7.096-2.086-20.21-7.032-23.351-15.748a1.394 1.394 0 011.149-1.864c4.853-.515 19.7-1.323 31.4 6.2 14.189 9.119 41.113 16.092 47.5 14.215s2.192-15.99 2.192-15.99z"/><path class="b" d="M168.147 163.413c7.582 0 9.975-3.712 12.185-8.818a42.314 42.314 0 004.146-21.246 1.01 1.01 0 00-2 .294 41.263 41.263 0 01-4 20.151c-2.647 6.117-4.731 10.951-25.285 4.715a130.778 130.778 0 01-36.526-18.338c-1.626-1.465-10.2-9.05-13.064-9.394-2.845-.341-19.751-6.139-22.619-13.169a1.009 1.009 0 10-1.869.761c3.416 8.377 21.917 14.133 24.248 14.411 1.638.2 8.016 5.35 12.019 8.946a132.94 132.94 0 0037.225 18.716 56.212 56.212 0 0015.54 2.971z"/><path class="b" d="M157.067 136.216a5.471 5.471 0 005.837-3.34 1.009 1.009 0 00-1.838-.832c-1.289 2.841-3.773 2.547-13.058.99l-1.825-.308a96.315 96.315 0 01-32.727-12.583 68.921 68.921 0 00-20.687-6.742c-9.745-1.871-13.928 1.045-14.1 1.171a1.01 1.01 0 001.175 1.642c.081-.057 3.819-2.51 12.55-.83a66.9 66.9 0 0119.942 6.435 98.646 98.646 0 0033.519 12.9l1.823.305a64.539 64.539 0 009.392 1.191z"/><path class="f" d="M190.559 127.746a3.174 3.174 0 01-3.649 3.214c-8.224-1.227-27.4-.9-28.973-2.371-2.515-2.355-2.928-52.8 4.8-52.67a25.207 25.207 0 0124.154 18.745 164.876 164.876 0 013.667 33.082z"/><path class="b" d="M185.281 131.673c2.977 0 5.082-.487 5.971-2.3 1.1-2.255.5-8.288-.652-18.756-.3-2.7-.611-5.528-.885-8.363a32.711 32.711 0 00-14.938-24.237c-6.663-4.761-20.39-2.983-20.969-2.9a1.009 1.009 0 00.268 2c.136-.018 13.514-1.749 19.526 2.547a30.815 30.815 0 0114.1 22.787c.276 2.843.59 5.68.889 8.39.858 7.771 1.747 15.806.846 17.646-.749 1.528-4.692 1.238-9.253.9a162.157 162.157 0 00-5.011-.313.985.985 0 00-1.053.966 1.013 1.013 0 00.966 1.053c1.757.075 3.416.195 4.95.307 1.948.143 3.708.273 5.245.273zm-13.916-.689c.353 0 .7 0 1.029-.006a1.01 1.01 0 10-.012-2.019c-.26.022-.524 0-.785 0-7.359 0-13.218-1.139-13.265-2.141-.363-7.921-.978-23.952-.7-27.934a1.01 1.01 0 10-2.017-.138c-.355 5.094.657 27.229.7 28.169.162 3.481 9.063 4.069 15.05 4.069z"/><path class="a" d="M44.763 114.101s2.031-4.951 7.663 0-2.9 9.3-5.069 9.942-6.936-7.92-2.594-9.942z"/><path class="b" d="M47.358 125.052a.992.992 0 00.361-.067c.4-.152 9.685-3.781 7.546-9.53a1.01 1.01 0 10-1.893.706c1.21 3.253-4.2 5.973-5.888 6.73-1.274-.962-4.852-4-3.318-6.772a5.559 5.559 0 013.399-3.037 3.084 3.084 0 012.484.515 1.01 1.01 0 101.2-1.625 5.084 5.084 0 00-4.109-.86 7.318 7.318 0 00-4.735 4.03c-2.746 4.958 4.11 9.551 4.4 9.745a1.026 1.026 0 00.556.165z"/></svg>