<svg xmlns="http://www.w3.org/2000/svg" width="26.255" height="29.068"><path d="M26.255 12.595v1.066a.408.408 0 01-.146.313.4.4 0 01-.333.084l-2.948-.407a.4.4 0 01-.322-.4v-.278a.4.4 0 01.327-.4l2.948-.383a.4.4 0 01.476.4zM12.977 3.751h.278a.4.4 0 00.4-.322l.407-2.948a.4.4 0 00-.084-.333.409.409 0 00-.313-.146h-1.066a.4.4 0 00-.4.476l.383 2.948a.4.4 0 00.395.325zm7.489 2.227a.392.392 0 00.5.051l2.306-1.756a.386.386 0 00.172-.288.4.4 0 00-.114-.319l-.733-.736a.389.389 0 00-.6.054l-1.764 2.3a.4.4 0 00.048.5zM3.751 13.255v-.278a.4.4 0 00-.327-.4l-2.948-.383a.4.4 0 00-.476.4v1.066a.408.408 0 00.146.313.4.4 0 00.333.084l2.948-.407a.4.4 0 00.324-.395zm17.218 6.973a.4.4 0 00-.5.048l-.191.191a.392.392 0 00-.051.5l1.756 2.306a.386.386 0 00.288.172.4.4 0 00.319-.114l.736-.733a.39.39 0 00-.054-.6zM5.293 6.028a.392.392 0 00.5-.051l.191-.191a.4.4 0 00.048-.5l-1.764-2.3a.389.389 0 00-.6-.054l-.733.736a.4.4 0 00-.114.319.386.386 0 00.172.288zm.494 14.247a.4.4 0 00-.5-.048l-2.3 1.764a.389.389 0 00-.054.6l.736.733a.4.4 0 00.319.114.386.386 0 00.288-.172l1.756-2.306a.392.392 0 00-.051-.5zm7.34-1.522a.938.938 0 10.938.938.937.937 0 00-.937-.937zm.96-8.439h-1.919a.4.4 0 00-.4.444l.712 6.7a.4.4 0 00.4.359h.5a.4.4 0 00.4-.359l.712-6.7a.4.4 0 00-.4-.444zm6.542 2.1a9.132 9.132 0 01-1.9 5.167 9.24 9.24 0 00-1.855 4.568v4.109a.937.937 0 01-.938.938c0 1.036-1.26 1.874-2.813 1.874s-2.813-.839-2.813-1.874a.937.937 0 01-.938-.938v-.845s2.7.228 3.938-.681a9.185 9.185 0 01-3.938-.63v-1.956a9.246 9.246 0 00-1.855-4.564 9.132 9.132 0 01-1.9-5.167c0-3.87 3.225-6.787 7.5-6.787s7.512 2.916 7.512 6.785zm-1.688 0c0-2.907-2.5-5.1-5.815-5.1s-5.813 2.192-5.813 5.1a7.667 7.667 0 001.664 4.309 10.857 10.857 0 012.076 5.246c0 .026.007.048.008.074v.467a7.4 7.4 0 002.062.277 7.313 7.313 0 002.062-.277v-.465c0-.035.007-.048.009-.072a10.944 10.944 0 012.108-5.3 7.57 7.57 0 001.64-4.26z" fill="#00adb1"/></svg>