<svg xmlns="http://www.w3.org/2000/svg" width="163.431" height="46.728"><defs><style>.a,.c,.d{fill-rule:evenodd}.c{fill:#fff}.d{fill:#00adb1}</style></defs><path class="a" d="M14.396 1.341a18.444 18.444 0 0122.635 13.374A18.966 18.966 0 0123.962 37.88 18.444 18.444 0 011.327 24.506 18.965 18.965 0 0114.396 1.341z"/><path class="a" d="M16.351 46.727h-2.76v-7.793a19.164 19.164 0 0010.678.139 20.344 20.344 0 007.188-35.21h15.006V29.34L16.351 46.727zm30.115.001H18.98l27.486-15.87v15.87zM23.023 11.949l.417.659.741-.2-.485.61.42.658-.716-.283-.482.611.042-.784-.717-.28.742-.2.038-.784zM4.416 20.51l.417.66.741-.205-.484.61.419.658-.715-.283-.482.612.041-.784-.717-.28.742-.2.038-.784zm3.112 6.5l.417.659.74-.2-.484.61.419.657-.716-.283-.482.612.042-.784-.717-.28.741-.2.039-.784zm7.357 3.891l.417.66.741-.2-.484.609.418.658-.715-.282-.482.611.042-.784-.717-.28.742-.2.038-.785z"/><path class="a" d="M21.147 27.383l.417.659.741-.2-.484.609.419.658-.715-.283-.483.611.042-.784-.717-.28.742-.2.038-.784zm11.156-5.006l.417.659.74-.2-.484.609.419.657-.715-.283-.482.612.041-.784-.716-.28.741-.2.039-.785z"/><path class="a" d="M33.612 23.795l.385.609.684-.189-.447.563.387.607-.661-.261-.445.564.039-.725-.662-.258.685-.186.036-.724zm-1.145 1.54l.385.61.684-.189-.447.563.388.608-.661-.262-.445.565.039-.724-.662-.259.685-.186.036-.725zm-2.044 3.227l.386.609.684-.189-.447.563.388.608-.661-.261-.445.565.039-.725-.662-.258.686-.187.035-.724zm-24.322.998l.281.446.5-.138-.328.413.283.446-.484-.192-.327.415.027-.532-.484-.19.5-.136.027-.531zm5.585-1.529l.282.446.5-.139-.327.413.284.445-.486-.192-.326.415.028-.532-.486-.189.5-.137.026-.531zm.283 2.159l.282.447.5-.139-.327.413.283.446-.484-.192-.327.415.029-.532-.486-.19.5-.136.026-.531zm9.979-6.27l.283.446.5-.139-.328.413.284.446-.485-.192-.326.414.028-.531-.486-.19.5-.136.026-.531zm-1.938-1.487l.283.447.5-.138-.329.413.284.446-.485-.192-.326.414.028-.531-.485-.19.5-.137.026-.531zm-7.074-.655l.283.447.5-.139-.327.413.284.446-.486-.191-.326.414.029-.531-.486-.19.5-.137.026-.532zm14.385 8.669l.282.447.5-.139-.327.413.283.446-.485-.192-.326.415.028-.532-.486-.19.5-.136.026-.531zm4.233-3.467l.282.447.5-.139-.329.413.284.445-.485-.192-.326.414.028-.532-.486-.189.5-.137.027-.531zm-1.731.114l.282.447.5-.138-.328.413.283.445-.485-.191-.327.414.028-.532-.486-.19.5-.137.026-.532zm-1.962 1.117l.283.447.5-.139-.328.413.283.446-.484-.191-.327.414.027-.531-.484-.19.5-.136.026-.532zm-2.269.476l.282.447.5-.139-.328.414.284.446-.485-.191-.326.414.028-.531-.486-.189.5-.137.026-.531zm8.96-6.709l.247.389.437-.12-.286.36.247.388-.422-.167-.285.361.025-.463-.423-.165.438-.12.023-.463zm-16.208 2.93l.246.39.438-.121-.287.36.248.389-.423-.167-.285.361.025-.464-.424-.165.437-.12.024-.463zm12.405 5.681l.247.389.437-.121-.286.36.248.389-.423-.167-.285.361.025-.463-.424-.166.438-.119.023-.463zm-7.828 3.37l.142.226.254-.07-.165.208.142.224-.244-.1-.164.208.015-.267-.245-.1.253-.069.013-.268zm-2.955-8.054l.142.226.253-.07-.165.208.142.225-.244-.1-.165.208.014-.267-.244-.1.253-.069.013-.267zm-10.64.25l.143.225.252-.069-.165.207.143.225-.244-.1-.165.208.014-.267-.245-.1.253-.069.013-.268zm13.579-8.063l.207.329.37-.1-.241.3.209.328-.357-.141-.24.305.021-.391-.358-.14.37-.1.019-.391z"/><path d="M56.548 23.758h2.2v6.927a7.085 7.085 0 01-.24 2.089 2.95 2.95 0 01-1.165 1.533 3.851 3.851 0 01-2.224.578 3.294 3.294 0 01-2.494-.907 3.7 3.7 0 01-.879-2.659l2.08-.24a2.935 2.935 0 00.276 1.329 1.389 1.389 0 002.134.166 3.318 3.318 0 00.306-1.75v-7.067zm9.474 10.941v-1.187a3.088 3.088 0 01-1.138 1 3.219 3.219 0 01-1.49.364 2.936 2.936 0 01-1.432-.348 2.1 2.1 0 01-.919-.986 4.421 4.421 0 01-.282-1.755v-5.014h2.1v3.641a10.047 10.047 0 00.116 2.05 1.125 1.125 0 00.421.6 1.3 1.3 0 00.778.219 1.648 1.648 0 00.962-.293 1.5 1.5 0 00.581-.731 8.507 8.507 0 00.158-2.14v-3.342h2.1v7.925zm3.098-2.258l2.1-.321a1.531 1.531 0 00.544.929 1.833 1.833 0 001.15.319 2.051 2.051 0 001.222-.3.661.661 0 00.278-.559.553.553 0 00-.151-.4 1.678 1.678 0 00-.7-.275 11.338 11.338 0 01-3.218-1.022 2.046 2.046 0 01-.94-1.786 2.19 2.19 0 01.813-1.729 3.79 3.79 0 012.522-.7 4.423 4.423 0 012.42.53 2.709 2.709 0 011.088 1.569l-1.977.364a1.214 1.214 0 00-.482-.708 1.744 1.744 0 00-1.011-.248 2.265 2.265 0 00-1.188.232.5.5 0 00-.237.425.458.458 0 00.209.38 7.8 7.8 0 001.959.59 5.813 5.813 0 012.339.933 1.942 1.942 0 01.658 1.559 2.394 2.394 0 01-.912 1.875 4.023 4.023 0 01-2.692.782 4.427 4.427 0 01-2.566-.657 3.012 3.012 0 01-1.233-1.783zm12.589-5.667v1.673h-1.431v3.195a7.686 7.686 0 00.041 1.131.461.461 0 00.185.265.6.6 0 00.354.1 2.787 2.787 0 00.846-.2l.178 1.625a4.177 4.177 0 01-1.659.313 2.662 2.662 0 01-1.022-.188 1.5 1.5 0 01-.667-.495 1.948 1.948 0 01-.3-.817 10.394 10.394 0 01-.066-1.477v-3.452h-.964v-1.671h.964v-1.579l2.1-1.223v2.8zm1.175-1.075v-1.941h2.1v1.941zm0 9v-7.92h2.1v7.925zm10.876-5.582l-2.069.372a1.486 1.486 0 00-.474-.932 1.432 1.432 0 00-.958-.314 1.569 1.569 0 00-1.25.54 2.781 2.781 0 00-.466 1.811 3.205 3.205 0 00.474 1.992 1.554 1.554 0 001.271.581 1.415 1.415 0 00.979-.338 2.038 2.038 0 00.537-1.167l2.061.349a3.656 3.656 0 01-1.233 2.143 3.8 3.8 0 01-2.441.723 3.623 3.623 0 01-2.771-1.095 5 5 0 010-6.093 3.679 3.679 0 012.807-1.1 3.838 3.838 0 012.3.624 3.479 3.479 0 011.228 1.9zm-5.653 8.591v-.882a13.83 13.83 0 001.411.081 1.642 1.642 0 00.985-.239.545.545 0 00.244-.461.554.554 0 00-.229-.441 1.139 1.139 0 00-.718-.186 3.4 3.4 0 00-.976.148l.194-.739a3.852 3.852 0 011.253-.2 2.152 2.152 0 011.419.41 1.268 1.268 0 01.484 1 1.284 1.284 0 01-.537 1.067 3.341 3.341 0 01-2.074.561 6.7 6.7 0 01-1.457-.119zm8.526-8.517l-1.9-.344a2.964 2.964 0 011.1-1.7 4.054 4.054 0 012.328-.553 5.025 5.025 0 012.092.334 2.088 2.088 0 01.965.844 4.332 4.332 0 01.28 1.877l-.023 2.448a8.312 8.312 0 00.1 1.541 4.489 4.489 0 00.377 1.062h-2.077a7.909 7.909 0 01-.2-.619 3.03 3.03 0 00-.074-.247 3.8 3.8 0 01-1.149.785 3.3 3.3 0 01-1.306.259 2.706 2.706 0 01-1.928-.662 2.21 2.21 0 01-.706-1.681 2.26 2.26 0 01.321-1.2 2.1 2.1 0 01.9-.8 7.1 7.1 0 011.669-.489 11.507 11.507 0 002.035-.515v-.209a1.09 1.09 0 00-.3-.863 1.786 1.786 0 00-1.126-.258 1.493 1.493 0 00-.874.222 1.514 1.514 0 00-.507.772zm2.8 1.7a12.692 12.692 0 01-1.276.321 3.965 3.965 0 00-1.141.365.88.88 0 00-.41.739 1.029 1.029 0 00.328.762 1.149 1.149 0 00.836.321 1.827 1.827 0 001.082-.372 1.3 1.3 0 00.5-.7 4.024 4.024 0 00.082-1.021v-.418zm8.117 3.808V23.758h8.112v1.852h-5.9v2.425h5.488v1.844h-5.492v2.978h6.111v1.844zm9.897 0V23.758h2.1v10.941zm8.549-2.522l2.091.349a3.421 3.421 0 01-1.274 1.75 3.718 3.718 0 01-2.176.6 3.545 3.545 0 01-3.06-1.349 4.546 4.546 0 01-.785-2.731 4.373 4.373 0 011.033-3.088 3.384 3.384 0 012.6-1.116 3.519 3.519 0 012.792 1.169 5.188 5.188 0 01.979 3.579h-5.256a2.119 2.119 0 00.507 1.45 1.591 1.591 0 001.21.52 1.288 1.288 0 00.828-.267 1.662 1.662 0 00.507-.867zm.119-2.12a2.023 2.023 0 00-.468-1.386 1.51 1.51 0 00-2.224.028 1.924 1.924 0 00-.441 1.358zm3.511-4.358v-1.941h2.1v1.941zm0 9v-7.92h2.1v7.925zm7.596-7.925v1.673h-1.432v3.195a8.042 8.042 0 00.041 1.131.467.467 0 00.186.265.6.6 0 00.354.1 2.775 2.775 0 00.846-.2l.179 1.625a4.173 4.173 0 01-1.658.313 2.66 2.66 0 01-1.022-.188 1.506 1.506 0 01-.667-.495 1.936 1.936 0 01-.3-.817 10.381 10.381 0 01-.067-1.477v-3.452h-.963v-1.671h.963v-1.579l2.1-1.223v2.8zm.688 3.849a4.312 4.312 0 01.515-2.023 3.539 3.539 0 011.46-1.49 4.329 4.329 0 012.109-.517 3.956 3.956 0 012.948 1.169 4.035 4.035 0 011.149 2.953 4.092 4.092 0 01-1.159 2.98 3.92 3.92 0 01-2.921 1.181 4.59 4.59 0 01-2.079-.491 3.384 3.384 0 01-1.509-1.444 4.833 4.833 0 01-.515-2.318zm2.15.112a2.621 2.621 0 00.56 1.806 1.83 1.83 0 002.756 0 2.656 2.656 0 00.558-1.822 2.607 2.607 0 00-.558-1.79 1.829 1.829 0 00-2.756 0 2.622 2.622 0 00-.56 1.806zm9.398 3.964h-2.1v-7.925h1.946V27.9a3.389 3.389 0 01.9-1.052 1.662 1.662 0 01.906-.255 2.654 2.654 0 011.381.4l-.65 1.827a1.839 1.839 0 00-.983-.341 1.154 1.154 0 00-.746.241 1.638 1.638 0 00-.482.877 12.423 12.423 0 00-.176 2.657v2.448zm5.226-5.508l-1.9-.344a2.967 2.967 0 011.1-1.7 4.058 4.058 0 012.329-.553 5.023 5.023 0 012.092.334 2.081 2.081 0 01.965.844 4.315 4.315 0 01.281 1.877l-.022 2.448a8.312 8.312 0 00.1 1.541 4.507 4.507 0 00.377 1.062h-2.08a7.909 7.909 0 01-.2-.619 2.66 2.66 0 00-.074-.247 3.825 3.825 0 01-1.149.785 3.307 3.307 0 01-1.307.259 2.706 2.706 0 01-1.928-.662 2.206 2.206 0 01-.705-1.681 2.259 2.259 0 01.321-1.2 2.09 2.09 0 01.9-.8 7.1 7.1 0 011.668-.489 11.525 11.525 0 002.036-.515v-.209a1.089 1.089 0 00-.3-.863 1.785 1.785 0 00-1.126-.258 1.494 1.494 0 00-.874.222 1.519 1.519 0 00-.506.772zm2.8 1.7a12.78 12.78 0 01-1.277.321 3.976 3.976 0 00-1.141.365.88.88 0 00-.41.739 1.031 1.031 0 00.328.762 1.146 1.146 0 00.835.321 1.829 1.829 0 001.083-.372 1.3 1.3 0 00.5-.7 4.069 4.069 0 00.082-1.021v-.418zm3.846 3.808V23.758h2.1v10.941z"/><text transform="translate(51.762 45.244)" font-size="6" font-family="ArialMT,Arial"><tspan x="0" y="0">A Justiça da Democracia</tspan></text><path class="c" d="M13.704.649a18.444 18.444 0 0122.635 13.374A18.966 18.966 0 0123.27 37.188 18.444 18.444 0 01.635 23.814 18.965 18.965 0 0113.704.649z"/><path class="c" d="M15.659 46.035h-2.76v-7.793a19.164 19.164 0 0010.678.139 20.344 20.344 0 007.188-35.21h15.006v25.477L15.659 46.035zm30.115.001H18.288l27.486-15.87v15.87z"/><path class="d" d="M22.331 11.257l.417.659.741-.2-.485.61.42.658-.716-.283-.482.611.042-.784-.717-.28.742-.2.038-.784zM3.724 19.818l.417.66.741-.205-.484.61.419.658-.715-.283-.482.612.041-.784-.717-.28.742-.2.038-.784zm3.112 6.5l.417.659.74-.2-.484.61.419.657-.716-.283-.482.612.042-.784-.717-.28.741-.2.039-.784zm7.357 3.891l.417.66.741-.2-.484.609.418.658-.715-.282-.482.611.042-.784-.717-.28.742-.2.038-.785zm6.262-3.518l.417.659.741-.2-.484.609.419.658-.715-.283-.483.611.042-.784-.717-.28.742-.2.038-.784zm11.156-5.006l.417.659.74-.2-.484.609.419.657-.715-.283-.482.612.041-.784-.716-.28.741-.2.039-.785z"/><path class="d" d="M32.92 23.103l.385.609.684-.189-.447.563.387.607-.661-.261-.445.564.039-.725-.662-.258.685-.186.036-.724zm-1.145 1.54l.385.61.684-.189-.447.563.388.608-.661-.262-.445.565.039-.724-.662-.259.685-.186.036-.725zm-2.044 3.227l.386.609.684-.189-.447.563.388.608-.661-.261-.445.565.039-.725-.662-.258.686-.187.035-.724zm-24.322.998l.281.446.5-.138-.328.413.283.446-.484-.192-.327.415.027-.532-.484-.19.5-.136.027-.531zm5.585-1.529l.282.446.5-.139-.327.413.284.445-.486-.192-.326.415.028-.532-.486-.189.5-.137.026-.531zm.283 2.159l.282.447.5-.139-.327.413.283.446-.484-.192-.327.415.029-.532-.486-.19.5-.136.026-.531zm9.979-6.27l.283.446.5-.139-.328.413.284.446-.485-.192-.326.414.028-.531-.486-.19.5-.136.026-.531zm-1.938-1.487l.283.447.5-.138-.329.413.284.446-.485-.192-.326.414.028-.531-.485-.19.5-.137.026-.531zm-7.074-.655l.283.447.5-.139-.327.413.284.446-.486-.191-.326.414.029-.531-.486-.19.5-.137.026-.532zm14.385 8.669l.282.447.5-.139-.327.413.283.446-.485-.192-.326.415.028-.532-.486-.19.5-.136.026-.531zm4.233-3.467l.282.447.5-.139-.329.413.284.445-.485-.192-.326.414.028-.532-.486-.189.5-.137.027-.531zm-1.731.114l.282.447.5-.138-.328.413.283.445-.485-.191-.327.414.028-.532-.486-.19.5-.137.026-.532zm-1.962 1.117l.283.447.5-.139-.328.413.283.446-.484-.191-.327.414.027-.531-.484-.19.5-.136.026-.532zm-2.269.476l.282.447.5-.139-.328.414.284.446-.485-.191-.326.414.028-.531-.486-.189.5-.137.026-.531zm8.96-6.709l.247.389.437-.12-.286.36.247.388-.422-.167-.285.361.025-.463-.423-.165.438-.12.023-.463zm-16.208 2.93l.246.39.438-.121-.287.36.248.389-.423-.167-.285.361.025-.464-.424-.165.437-.12.024-.463zm12.405 5.681l.247.389.437-.121-.286.36.248.389-.423-.167-.285.361.025-.463-.424-.166.438-.119.023-.463zm-7.828 3.37l.142.226.254-.07-.165.208.142.224-.244-.1-.164.208.015-.267-.245-.1.253-.069.013-.268zm-2.955-8.054l.142.226.253-.07-.165.208.142.225-.244-.1-.165.208.014-.267-.244-.1.253-.069.013-.267zm-10.64.25l.143.225.252-.069-.165.207.143.225-.244-.1-.165.208.014-.267-.245-.1.253-.069.013-.268zM22.213 17.4l.207.329.37-.1-.241.3.209.328-.357-.141-.24.305.021-.391-.358-.14.37-.1.019-.391z"/><path d="M55.856 23.066h2.2v6.927a7.085 7.085 0 01-.24 2.089 2.95 2.95 0 01-1.165 1.533 3.851 3.851 0 01-2.224.578 3.294 3.294 0 01-2.494-.907 3.7 3.7 0 01-.879-2.659l2.08-.24a2.935 2.935 0 00.276 1.329 1.389 1.389 0 002.134.166 3.318 3.318 0 00.306-1.75v-7.067zm9.474 10.941V32.82a3.088 3.088 0 01-1.138 1 3.219 3.219 0 01-1.49.364 2.936 2.936 0 01-1.432-.348 2.1 2.1 0 01-.919-.986 4.421 4.421 0 01-.282-1.755v-5.014h2.1v3.641a10.047 10.047 0 00.116 2.05 1.125 1.125 0 00.421.6 1.3 1.3 0 00.778.219 1.648 1.648 0 00.962-.293 1.5 1.5 0 00.581-.731 8.507 8.507 0 00.158-2.14v-3.342h2.1v7.925zm3.098-2.258l2.1-.321a1.531 1.531 0 00.544.929 1.833 1.833 0 001.15.319 2.051 2.051 0 001.222-.3.661.661 0 00.278-.559.553.553 0 00-.151-.4 1.678 1.678 0 00-.7-.275 11.338 11.338 0 01-3.218-1.022 2.046 2.046 0 01-.94-1.786 2.19 2.19 0 01.813-1.729 3.79 3.79 0 012.522-.7 4.423 4.423 0 012.42.53 2.709 2.709 0 011.088 1.569l-1.977.364a1.214 1.214 0 00-.482-.708 1.744 1.744 0 00-1.011-.248 2.265 2.265 0 00-1.188.232.5.5 0 00-.237.425.458.458 0 00.209.38 7.8 7.8 0 001.959.59 5.813 5.813 0 012.339.933 1.942 1.942 0 01.658 1.559 2.394 2.394 0 01-.912 1.875 4.023 4.023 0 01-2.692.782 4.427 4.427 0 01-2.566-.657 3.012 3.012 0 01-1.233-1.783zm12.589-5.667v1.673h-1.431v3.195a7.686 7.686 0 00.041 1.131.461.461 0 00.185.265.6.6 0 00.354.1 2.787 2.787 0 00.846-.2l.178 1.625a4.177 4.177 0 01-1.659.313 2.662 2.662 0 01-1.022-.188 1.5 1.5 0 01-.667-.495 1.948 1.948 0 01-.3-.817 10.394 10.394 0 01-.066-1.477v-3.452h-.964v-1.671h.964v-1.579l2.1-1.223v2.8zm1.175-1.075v-1.941h2.1v1.941zm0 9v-7.92h2.1v7.925zm10.876-5.582l-2.069.372a1.486 1.486 0 00-.474-.932 1.432 1.432 0 00-.958-.314 1.569 1.569 0 00-1.25.54 2.781 2.781 0 00-.466 1.811 3.205 3.205 0 00.474 1.992 1.554 1.554 0 001.271.581 1.415 1.415 0 00.979-.338 2.038 2.038 0 00.537-1.167l2.061.349a3.656 3.656 0 01-1.233 2.143 3.8 3.8 0 01-2.441.723 3.623 3.623 0 01-2.771-1.095 5 5 0 010-6.093 3.679 3.679 0 012.807-1.1 3.838 3.838 0 012.3.624 3.479 3.479 0 011.228 1.9zm-5.653 8.591v-.882a13.83 13.83 0 001.411.081 1.642 1.642 0 00.985-.239.545.545 0 00.244-.461.554.554 0 00-.229-.441 1.139 1.139 0 00-.718-.186 3.4 3.4 0 00-.976.148l.194-.739a3.852 3.852 0 011.253-.2 2.152 2.152 0 011.419.41 1.268 1.268 0 01.484 1 1.284 1.284 0 01-.537 1.067 3.341 3.341 0 01-2.074.561 6.7 6.7 0 01-1.457-.119zm8.526-8.517l-1.9-.344a2.964 2.964 0 011.1-1.7 4.054 4.054 0 012.328-.553 5.025 5.025 0 012.092.334 2.088 2.088 0 01.965.844 4.332 4.332 0 01.28 1.877l-.023 2.448a8.312 8.312 0 00.1 1.541 4.489 4.489 0 00.377 1.062h-2.077a7.909 7.909 0 01-.2-.619 3.03 3.03 0 00-.074-.247 3.8 3.8 0 01-1.149.785 3.3 3.3 0 01-1.306.259 2.706 2.706 0 01-1.928-.662 2.21 2.21 0 01-.706-1.681 2.26 2.26 0 01.321-1.2 2.1 2.1 0 01.9-.8 7.1 7.1 0 011.669-.489 11.507 11.507 0 002.035-.515v-.209a1.09 1.09 0 00-.3-.863 1.786 1.786 0 00-1.126-.258 1.493 1.493 0 00-.874.222 1.514 1.514 0 00-.507.772zm2.8 1.7a12.692 12.692 0 01-1.276.321 3.965 3.965 0 00-1.141.365.88.88 0 00-.41.739 1.029 1.029 0 00.328.762 1.149 1.149 0 00.836.321 1.827 1.827 0 001.082-.372 1.3 1.3 0 00.5-.7 4.024 4.024 0 00.082-1.021v-.418zm8.117 3.808V23.066h8.112v1.852h-5.9v2.425h5.488v1.844h-5.492v2.978h6.111v1.844zm9.897 0V23.066h2.1v10.941zm8.549-2.522l2.091.349a3.421 3.421 0 01-1.274 1.75 3.718 3.718 0 01-2.176.6 3.545 3.545 0 01-3.06-1.349 4.546 4.546 0 01-.785-2.731 4.373 4.373 0 011.033-3.088 3.384 3.384 0 012.6-1.116 3.519 3.519 0 012.792 1.169 5.188 5.188 0 01.979 3.579h-5.256a2.119 2.119 0 00.507 1.45 1.591 1.591 0 001.21.52 1.288 1.288 0 00.828-.267 1.662 1.662 0 00.507-.867zm.119-2.12a2.023 2.023 0 00-.468-1.386 1.51 1.51 0 00-2.224.028 1.924 1.924 0 00-.441 1.358zm3.511-4.358v-1.941h2.1v1.941zm0 9v-7.92h2.1v7.925zm7.596-7.925v1.673h-1.432v3.195a8.042 8.042 0 00.041 1.131.467.467 0 00.186.265.6.6 0 00.354.1 2.775 2.775 0 00.846-.2l.179 1.625a4.173 4.173 0 01-1.658.313 2.66 2.66 0 01-1.022-.188 1.506 1.506 0 01-.667-.495 1.936 1.936 0 01-.3-.817 10.381 10.381 0 01-.067-1.477v-3.452h-.963v-1.671h.963v-1.579l2.1-1.223v2.8zm.688 3.849a4.312 4.312 0 01.515-2.023 3.539 3.539 0 011.46-1.49 4.329 4.329 0 012.109-.517 3.956 3.956 0 012.948 1.169 4.035 4.035 0 011.149 2.953 4.092 4.092 0 01-1.159 2.98 3.92 3.92 0 01-2.921 1.181 4.59 4.59 0 01-2.079-.491 3.384 3.384 0 01-1.509-1.444 4.833 4.833 0 01-.515-2.318zm2.15.112a2.621 2.621 0 00.56 1.806 1.83 1.83 0 002.756 0 2.656 2.656 0 00.558-1.822 2.607 2.607 0 00-.558-1.79 1.829 1.829 0 00-2.756 0 2.622 2.622 0 00-.56 1.806zm9.398 3.964h-2.1v-7.925h1.946v1.126a3.389 3.389 0 01.9-1.052 1.662 1.662 0 01.906-.255 2.654 2.654 0 011.381.4l-.65 1.827a1.839 1.839 0 00-.983-.341 1.154 1.154 0 00-.746.241 1.638 1.638 0 00-.482.877 12.423 12.423 0 00-.176 2.657v2.448zm5.226-5.508l-1.9-.344a2.967 2.967 0 011.1-1.7 4.058 4.058 0 012.329-.553 5.023 5.023 0 012.092.334 2.081 2.081 0 01.965.844 4.315 4.315 0 01.281 1.877l-.022 2.448a8.312 8.312 0 00.1 1.541 4.507 4.507 0 00.377 1.062h-2.08a7.909 7.909 0 01-.2-.619 2.66 2.66 0 00-.074-.247 3.825 3.825 0 01-1.149.785 3.307 3.307 0 01-1.307.259 2.706 2.706 0 01-1.928-.662 2.206 2.206 0 01-.705-1.681 2.259 2.259 0 01.321-1.2 2.09 2.09 0 01.9-.8 7.1 7.1 0 011.668-.489 11.525 11.525 0 002.036-.515v-.209a1.089 1.089 0 00-.3-.863 1.785 1.785 0 00-1.126-.258 1.494 1.494 0 00-.874.222 1.519 1.519 0 00-.506.772zm2.8 1.7a12.78 12.78 0 01-1.277.321 3.976 3.976 0 00-1.141.365.88.88 0 00-.41.739 1.031 1.031 0 00.328.762 1.146 1.146 0 00.835.321 1.829 1.829 0 001.083-.372 1.3 1.3 0 00.5-.7 4.069 4.069 0 00.082-1.021v-.418zm3.846 3.808V23.066h2.1v10.941z" fill="#fff"/><text transform="translate(51.07 44.552)" fill="#fff" font-size="6" font-family="ArialMT,Arial"><tspan x="0" y="0">A Justiça da Democracia</tspan></text></svg>