<svg xmlns="http://www.w3.org/2000/svg" width="26.255" height="29.068" viewBox="0 0 26.255 29.068"><defs><style>.a{fill:#00adb1;}</style></defs><path class="a" d="M289.255,274.595v1.066a.408.408,0,0,1-.146.313.4.4,0,0,1-.333.084l-2.948-.407a.4.4,0,0,1-.322-.4v-.278a.4.4,0,0,1,.327-.4l2.948-.383a.4.4,0,0,1,.476.4Zm-13.278-8.844h.278a.4.4,0,0,0,.4-.322l.407-2.948a.4.4,0,0,0-.084-.333.409.409,0,0,0-.313-.146h-1.066a.4.4,0,0,0-.4.476l.383,2.948A.4.4,0,0,0,275.977,265.751Zm7.489,2.227a.392.392,0,0,0,.5.051l2.306-1.756a.386.386,0,0,0,.172-.288.4.4,0,0,0-.114-.319l-.733-.736a.389.389,0,0,0-.6.054l-1.764,2.3a.4.4,0,0,0,.048.5Zm-16.715,7.277v-.278a.4.4,0,0,0-.327-.4l-2.948-.383a.4.4,0,0,0-.476.4v1.066a.408.408,0,0,0,.146.313.4.4,0,0,0,.333.084l2.948-.407A.4.4,0,0,0,266.751,275.255Zm17.218,6.973a.4.4,0,0,0-.5.048l-.191.191a.392.392,0,0,0-.051.5l1.756,2.306a.386.386,0,0,0,.288.172.4.4,0,0,0,.319-.114l.736-.733a.39.39,0,0,0-.054-.6Zm-15.676-14.2a.392.392,0,0,0,.5-.051l.191-.191a.4.4,0,0,0,.048-.5l-1.764-2.3a.389.389,0,0,0-.6-.054l-.733.736a.4.4,0,0,0-.114.319.386.386,0,0,0,.172.288Zm.494,14.247a.4.4,0,0,0-.5-.048l-2.3,1.764a.389.389,0,0,0-.054.6l.736.733a.4.4,0,0,0,.319.114.386.386,0,0,0,.288-.172l1.756-2.306a.392.392,0,0,0-.051-.5Zm7.34-1.522a.938.938,0,1,0,.938.938A.937.937,0,0,0,276.128,280.754Zm.96-8.439h-1.919a.4.4,0,0,0-.4.444l.712,6.7a.4.4,0,0,0,.4.359h.5a.4.4,0,0,0,.4-.359l.712-6.7a.4.4,0,0,0-.4-.444Zm6.542,2.1a9.132,9.132,0,0,1-1.9,5.167,9.24,9.24,0,0,0-1.855,4.568c0,.022,0,4.109,0,4.109a.937.937,0,0,1-.938.938c0,1.036-1.26,1.874-2.813,1.874s-2.813-.839-2.813-1.874a.937.937,0,0,1-.938-.938v-.845s2.7.228,3.938-.681a9.185,9.185,0,0,1-3.938-.63s0-1.932,0-1.956a9.246,9.246,0,0,0-1.855-4.564,9.132,9.132,0,0,1-1.9-5.167c0-3.87,3.225-6.787,7.5-6.787S283.629,270.544,283.629,274.413Zm-1.688,0c0-2.907-2.5-5.1-5.815-5.1s-5.813,2.192-5.813,5.1a7.667,7.667,0,0,0,1.664,4.309,10.857,10.857,0,0,1,2.076,5.246c0,.026.007.048.008.074s0,.064,0,.462v.005a7.4,7.4,0,0,0,2.062.277,7.313,7.313,0,0,0,2.062-.277v0c0-.4,0-.43,0-.465s.007-.048.009-.072a10.944,10.944,0,0,1,2.108-5.3A7.57,7.57,0,0,0,281.942,274.413Z" transform="translate(-263 -262)"/></svg>