<svg xmlns="http://www.w3.org/2000/svg" width="12.407" height="30.794" viewBox="0 0 12.407 30.794"><defs><style>.a{fill:#fff;}.a,.b{stroke:#fff;stroke-linecap:round;stroke-linejoin:round;stroke-width:2px;}.b{fill:none;}</style></defs><g transform="translate(-441.202 -136.753)"><g transform="translate(442.217 137.753)"><g transform="translate(0 9.872)"><path class="a" d="M449.263,172.7c-1.479.154-2.353-.95-1.958-2.471l3.57-13.692-4.918.517-3.569,13.692.01,0c-.752,2.882.911,4.979,3.712,4.684a8.134,8.134,0,0,0,6.009-4.6A4.21,4.21,0,0,1,449.263,172.7Z" transform="translate(-442.217 -156.54)"/><line class="b" x1="8.486" y2="0.893" transform="translate(0.172)"/></g><path class="a" d="M456.814,140.618a2.868,2.868,0,1,1-2.868-2.865A2.867,2.867,0,0,1,456.814,140.618Z" transform="translate(-446.422 -137.753)"/></g></g></svg>