<svg xmlns="http://www.w3.org/2000/svg" width="163.431" height="46.728" viewBox="0 0 163.431 46.728"><defs><style>.a,.c,.d{fill-rule:evenodd;}.b,.f{font-size:6px;font-family:ArialMT, Arial;}.c,.e,.f{fill:#fff;}.d{fill:#00adb1;}</style></defs><g transform="translate(0)"><g transform="translate(0.692 0.692)"><g transform="translate(0)"><path class="a" d="M144.881,373.754a18.444,18.444,0,0,1,22.635,13.374,18.966,18.966,0,0,1-13.069,23.165,18.444,18.444,0,0,1-22.635-13.374,18.965,18.965,0,0,1,13.069-23.165Z" transform="translate(-131.177 -373.105)"/><path class="a" d="M160.66,422.537H157.9v-7.793a19.164,19.164,0,0,0,10.678.139,20.344,20.344,0,0,0,7.188-35.21h15.006V405.15L160.66,422.537Z" transform="translate(-145.001 -376.502)"/><path class="a" d="M196.542,451.455H169.056l27.486-15.87v15.87Z" transform="translate(-150.768 -405.419)"/><path class="a" d="M176.594,396.42l.417.659.741-.2-.485.61.42.658-.716-.283-.482.611.042-.784-.717-.28.742-.2.038-.784Z" transform="translate(-154.263 -385.163)"/><path class="a" d="M138.056,414.152l.417.66.741-.205-.484.61.419.658-.715-.283-.482.612.041-.784-.717-.28.742-.2.038-.784Z" transform="translate(-134.332 -394.334)"/><path class="a" d="M144.5,427.615l.417.659.74-.2-.484.61.419.657-.716-.283-.482.612.042-.784-.717-.28.741-.2.039-.784Z" transform="translate(-137.664 -401.297)"/><path class="a" d="M159.738,435.675l.417.66.741-.2-.484.609.418.658-.715-.282-.482.611.042-.784-.717-.28.742-.2.038-.785Z" transform="translate(-145.545 -405.466)"/><path class="a" d="M172.709,428.388l.417.659.741-.2-.484.609.419.658-.715-.283-.483.611.042-.784-.717-.28.742-.2.038-.784Z" transform="translate(-152.254 -401.697)"/><path class="a" d="M195.816,418.02l.417.659.74-.2-.484.609.419.657-.715-.283-.482.612.041-.784-.716-.28.741-.2.039-.785Z" transform="translate(-164.205 -396.335)"/><path class="a" d="M198.591,420.957l.385.609.684-.189-.447.563.387.607-.661-.261-.445.564.039-.725-.662-.258.685-.186.036-.724Z" transform="translate(-165.671 -397.854)"/><path class="a" d="M196.217,424.145l.385.61.684-.189-.447.563.388.608-.661-.262-.445.565.039-.724-.662-.259.685-.186.036-.725Z" transform="translate(-164.442 -399.502)"/><path class="a" d="M191.985,430.83l.386.609.684-.189-.447.563.388.608-.661-.261-.445.565.039-.725-.662-.258.686-.187.035-.724Z" transform="translate(-162.254 -402.96)"/><path class="a" d="M141.814,432.9l.281.446.5-.138-.328.413.283.446-.484-.192-.327.415.027-.532-.484-.19.5-.136.027-.531Z" transform="translate(-136.405 -404.032)"/><path class="a" d="M153.382,429.731l.282.446.5-.139-.327.413.284.445-.486-.192-.326.415.028-.532-.486-.189.5-.137.026-.531Z" transform="translate(-142.388 -402.392)"/><path class="a" d="M153.969,434.2l.282.447.5-.139-.327.413.283.446-.484-.192-.327.415.029-.532-.486-.19.5-.136.026-.531Z" transform="translate(-142.692 -404.702)"/><path class="a" d="M174.638,421.215l.283.446.5-.139-.328.413.284.446-.485-.192-.326.414.028-.531-.486-.19.5-.136.026-.531Z" transform="translate(-153.382 -397.987)"/><path class="a" d="M170.623,418.135l.283.447.5-.138-.329.413.284.446-.485-.192-.326.414.028-.531-.485-.19.5-.137.026-.531Z" transform="translate(-151.305 -396.394)"/><path class="a" d="M155.971,416.778l.283.447.5-.139-.327.413.284.446-.486-.191-.326.414.029-.531-.486-.19.5-.137.026-.532Z" transform="translate(-143.727 -395.692)"/><path class="a" d="M185.765,434.735l.282.447.5-.139-.327.413.283.446-.485-.192-.326.415.028-.532-.486-.19.5-.136.026-.531Z" transform="translate(-159.136 -404.98)"/><path class="a" d="M194.533,427.553l.282.447.5-.139-.329.413.284.445-.485-.192-.326.414.028-.532-.486-.189.5-.137.027-.531Z" transform="translate(-163.671 -401.265)"/><path class="a" d="M190.948,427.789l.282.447.5-.138-.328.413.283.445-.485-.191-.327.414.028-.532-.486-.19.5-.137.026-.532Z" transform="translate(-161.817 -401.387)"/><path class="a" d="M186.885,430.1l.283.447.5-.139-.328.413.283.446-.484-.191-.327.414.027-.531-.484-.19.5-.136.026-.532Z" transform="translate(-159.716 -402.581)"/><path class="a" d="M182.184,431.089l.282.447.5-.139-.328.414.284.446-.485-.191-.326.414.028-.531-.486-.189.5-.137.026-.531Z" transform="translate(-157.284 -403.094)"/><path class="a" d="M200.814,417.192l.247.389.437-.12-.286.36.247.388-.422-.167-.285.361.025-.463-.423-.165.438-.12.023-.463Z" transform="translate(-166.954 -395.906)"/><path class="a" d="M167.246,423.261l.246.39.438-.121-.287.36.248.389-.423-.167-.285.361.025-.464-.424-.165.437-.12.024-.463Z" transform="translate(-149.594 -399.045)"/><path class="a" d="M192.938,435.028l.247.389.437-.121-.286.36.248.389-.423-.167-.285.361.025-.463-.424-.166.438-.119.023-.463Z" transform="translate(-162.881 -405.131)"/><path class="a" d="M176.933,442.009l.142.226.254-.07-.165.208.142.224-.244-.1-.164.208.015-.267-.245-.1.253-.069.013-.268Z" transform="translate(-154.704 -408.742)"/><path class="a" d="M170.814,425.326l.142.226.253-.07-.165.208.142.225-.244-.1-.165.208.014-.267-.244-.1.253-.069.013-.267Z" transform="translate(-151.54 -400.113)"/><path class="a" d="M148.775,425.845l.143.225.252-.069-.165.207.143.225-.244-.1-.165.208.014-.267-.245-.1.253-.069.013-.268Z" transform="translate(-140.141 -400.382)"/><path class="a" d="M176.768,409.145l.207.329.37-.1-.241.3.209.328-.357-.141-.24.305.021-.391-.358-.14.37-.1.019-.391Z" transform="translate(-154.555 -391.745)"/></g><g transform="translate(51.059 23.066)"><path d="M241.729,420.879h2.2v6.927a7.085,7.085,0,0,1-.24,2.089,2.95,2.95,0,0,1-1.165,1.533,3.851,3.851,0,0,1-2.224.578,3.294,3.294,0,0,1-2.494-.907,3.7,3.7,0,0,1-.879-2.659l2.08-.24a2.935,2.935,0,0,0,.276,1.329,1.389,1.389,0,0,0,2.134.166,3.318,3.318,0,0,0,.306-1.75v-7.067Z" transform="translate(-236.932 -420.879)"/><path d="M260.852,435.051v-1.187a3.088,3.088,0,0,1-1.138,1,3.219,3.219,0,0,1-1.49.364,2.936,2.936,0,0,1-1.432-.348,2.1,2.1,0,0,1-.919-.986,4.421,4.421,0,0,1-.282-1.755v-5.014h2.1v3.641a10.047,10.047,0,0,0,.116,2.05,1.125,1.125,0,0,0,.421.6,1.3,1.3,0,0,0,.778.219,1.648,1.648,0,0,0,.962-.293,1.5,1.5,0,0,0,.581-.731,8.507,8.507,0,0,0,.158-2.14v-3.342h2.1v7.925Z" transform="translate(-246.581 -424.11)"/><path d="M272.907,432.6l2.1-.321a1.531,1.531,0,0,0,.544.929,1.833,1.833,0,0,0,1.15.319,2.051,2.051,0,0,0,1.222-.3.661.661,0,0,0,.278-.559.553.553,0,0,0-.151-.4,1.678,1.678,0,0,0-.7-.275,11.338,11.338,0,0,1-3.218-1.022,2.046,2.046,0,0,1-.94-1.786,2.19,2.19,0,0,1,.813-1.729,3.79,3.79,0,0,1,2.522-.7,4.423,4.423,0,0,1,2.42.53,2.709,2.709,0,0,1,1.088,1.569l-1.977.364a1.214,1.214,0,0,0-.482-.708,1.744,1.744,0,0,0-1.011-.248,2.265,2.265,0,0,0-1.188.232.5.5,0,0,0-.237.425.458.458,0,0,0,.209.38,7.8,7.8,0,0,0,1.959.59,5.813,5.813,0,0,1,2.339.933,1.942,1.942,0,0,1,.658,1.559,2.394,2.394,0,0,1-.912,1.875,4.023,4.023,0,0,1-2.692.782,4.427,4.427,0,0,1-2.566-.657,3.012,3.012,0,0,1-1.233-1.783Z" transform="translate(-255.538 -423.917)"/><path d="M294.162,424.127V425.8h-1.431v3.195a7.686,7.686,0,0,0,.041,1.131.461.461,0,0,0,.185.265.6.6,0,0,0,.354.1,2.787,2.787,0,0,0,.846-.2l.178,1.625a4.177,4.177,0,0,1-1.659.313,2.662,2.662,0,0,1-1.022-.188,1.5,1.5,0,0,1-.667-.495,1.948,1.948,0,0,1-.3-.817,10.394,10.394,0,0,1-.066-1.477V425.8h-.964v-1.671h.964V422.55l2.1-1.223v2.8Z" transform="translate(-264.204 -421.111)"/><path d="M301.415,422.82v-1.941h2.1v1.941Zm0,9V423.9h2.1v7.925Z" transform="translate(-270.282 -420.879)"/><path d="M316.04,429.276l-2.069.372a1.486,1.486,0,0,0-.474-.932,1.432,1.432,0,0,0-.958-.314,1.569,1.569,0,0,0-1.25.54,2.781,2.781,0,0,0-.466,1.811,3.205,3.205,0,0,0,.474,1.992,1.554,1.554,0,0,0,1.271.581,1.415,1.415,0,0,0,.979-.338,2.038,2.038,0,0,0,.537-1.167l2.061.349a3.656,3.656,0,0,1-1.233,2.143,3.8,3.8,0,0,1-2.441.723,3.623,3.623,0,0,1-2.771-1.095,5,5,0,0,1,0-6.093,3.679,3.679,0,0,1,2.807-1.1,3.838,3.838,0,0,1,2.3.624,3.479,3.479,0,0,1,1.228,1.9Zm-5.653,8.591v-.882a13.83,13.83,0,0,0,1.411.081,1.642,1.642,0,0,0,.985-.239.545.545,0,0,0,.244-.461.554.554,0,0,0-.229-.441,1.139,1.139,0,0,0-.718-.186,3.4,3.4,0,0,0-.976.148l.194-.739a3.852,3.852,0,0,1,1.253-.2,2.152,2.152,0,0,1,1.419.41,1.268,1.268,0,0,1,.484,1,1.284,1.284,0,0,1-.537,1.067,3.341,3.341,0,0,1-2.074.561,6.7,6.7,0,0,1-1.457-.119Z" transform="translate(-274.031 -423.917)"/><path d="M327.622,429.35l-1.9-.344a2.964,2.964,0,0,1,1.1-1.7,4.054,4.054,0,0,1,2.328-.553,5.025,5.025,0,0,1,2.092.334,2.088,2.088,0,0,1,.965.844,4.332,4.332,0,0,1,.28,1.877l-.023,2.448a8.312,8.312,0,0,0,.1,1.541,4.489,4.489,0,0,0,.377,1.062h-2.077c-.053-.139-.122-.346-.2-.619-.033-.125-.059-.206-.074-.247a3.8,3.8,0,0,1-1.149.785,3.3,3.3,0,0,1-1.306.259,2.706,2.706,0,0,1-1.928-.662,2.21,2.21,0,0,1-.706-1.681,2.26,2.26,0,0,1,.321-1.2,2.1,2.1,0,0,1,.9-.8,7.1,7.1,0,0,1,1.669-.489,11.507,11.507,0,0,0,2.035-.515v-.209a1.09,1.09,0,0,0-.3-.863,1.786,1.786,0,0,0-1.126-.258,1.493,1.493,0,0,0-.874.222,1.514,1.514,0,0,0-.507.772Zm2.8,1.7a12.692,12.692,0,0,1-1.276.321,3.965,3.965,0,0,0-1.141.365.88.88,0,0,0-.41.739,1.029,1.029,0,0,0,.328.762,1.149,1.149,0,0,0,.836.321,1.827,1.827,0,0,0,1.082-.372,1.3,1.3,0,0,0,.5-.7,4.024,4.024,0,0,0,.082-1.021v-.418Z" transform="translate(-282.74 -423.917)"/><path d="M352.5,431.82V420.879h8.112v1.852h-5.9v2.425H360.2V427h-5.492v2.978h6.111v1.844Z" transform="translate(-296.701 -420.879)"/><path d="M373,431.82V420.879h2.1V431.82Z" transform="translate(-307.304 -420.879)"/><path d="M385.137,432.336l2.091.349a3.421,3.421,0,0,1-1.274,1.75,3.718,3.718,0,0,1-2.176.6,3.545,3.545,0,0,1-3.06-1.349,4.546,4.546,0,0,1-.785-2.731,4.373,4.373,0,0,1,1.033-3.088,3.384,3.384,0,0,1,2.6-1.116,3.519,3.519,0,0,1,2.792,1.169,5.188,5.188,0,0,1,.979,3.579h-5.256a2.119,2.119,0,0,0,.507,1.45,1.591,1.591,0,0,0,1.21.52,1.288,1.288,0,0,0,.828-.267,1.662,1.662,0,0,0,.507-.867Zm.119-2.12a2.023,2.023,0,0,0-.468-1.386,1.51,1.51,0,0,0-2.224.028,1.924,1.924,0,0,0-.441,1.358Z" transform="translate(-310.892 -423.917)"/><path d="M398.228,422.82v-1.941h2.1v1.941Zm0,9V423.9h2.1v7.925Z" transform="translate(-320.353 -420.879)"/><path d="M409.143,424.127V425.8h-1.432v3.195a8.042,8.042,0,0,0,.041,1.131.467.467,0,0,0,.186.265.6.6,0,0,0,.354.1,2.775,2.775,0,0,0,.846-.2l.179,1.625a4.173,4.173,0,0,1-1.658.313,2.66,2.66,0,0,1-1.022-.188,1.506,1.506,0,0,1-.667-.495,1.936,1.936,0,0,1-.3-.817,10.381,10.381,0,0,1-.067-1.477V425.8h-.963v-1.671h.963V422.55l2.1-1.223v2.8Z" transform="translate(-323.672 -421.111)"/><path d="M415.387,430.782a4.312,4.312,0,0,1,.515-2.023,3.539,3.539,0,0,1,1.46-1.49,4.329,4.329,0,0,1,2.109-.517,3.956,3.956,0,0,1,2.948,1.169,4.035,4.035,0,0,1,1.149,2.953,4.092,4.092,0,0,1-1.159,2.98,3.92,3.92,0,0,1-2.921,1.181,4.59,4.59,0,0,1-2.079-.491A3.384,3.384,0,0,1,415.9,433.1a4.833,4.833,0,0,1-.515-2.318Zm2.15.112a2.621,2.621,0,0,0,.56,1.806,1.83,1.83,0,0,0,2.756,0,2.656,2.656,0,0,0,.558-1.822,2.607,2.607,0,0,0-.558-1.79,1.829,1.829,0,0,0-2.756,0,2.622,2.622,0,0,0-.56,1.806Z" transform="translate(-329.228 -423.917)"/><path d="M437.059,434.858h-2.1v-7.925h1.946v1.126a3.389,3.389,0,0,1,.9-1.052,1.662,1.662,0,0,1,.906-.255,2.654,2.654,0,0,1,1.381.4l-.65,1.827a1.839,1.839,0,0,0-.983-.341,1.154,1.154,0,0,0-.746.241,1.638,1.638,0,0,0-.482.877,12.423,12.423,0,0,0-.176,2.657v2.448Z" transform="translate(-339.352 -423.917)"/><path d="M447.858,429.35l-1.9-.344a2.967,2.967,0,0,1,1.1-1.7,4.058,4.058,0,0,1,2.329-.553,5.023,5.023,0,0,1,2.092.334,2.081,2.081,0,0,1,.965.844,4.315,4.315,0,0,1,.281,1.877l-.022,2.448a8.312,8.312,0,0,0,.1,1.541,4.507,4.507,0,0,0,.377,1.062H451.1c-.053-.139-.122-.346-.2-.619-.033-.125-.058-.206-.074-.247a3.825,3.825,0,0,1-1.149.785,3.307,3.307,0,0,1-1.307.259,2.706,2.706,0,0,1-1.928-.662,2.206,2.206,0,0,1-.705-1.681,2.259,2.259,0,0,1,.321-1.2,2.09,2.09,0,0,1,.9-.8,7.1,7.1,0,0,1,1.668-.489,11.525,11.525,0,0,0,2.036-.515v-.209a1.089,1.089,0,0,0-.3-.863,1.785,1.785,0,0,0-1.126-.258,1.494,1.494,0,0,0-.874.222,1.519,1.519,0,0,0-.506.772Zm2.8,1.7a12.78,12.78,0,0,1-1.277.321,3.976,3.976,0,0,0-1.141.365.88.88,0,0,0-.41.739,1.031,1.031,0,0,0,.328.762,1.146,1.146,0,0,0,.835.321,1.829,1.829,0,0,0,1.083-.372,1.3,1.3,0,0,0,.5-.7,4.069,4.069,0,0,0,.082-1.021v-.418Z" transform="translate(-344.925 -423.917)"/><path d="M463.9,431.82V420.879H466V431.82Z" transform="translate(-354.321 -420.879)"/></g><text class="b" transform="translate(51.07 44.552)"><tspan x="0" y="0">A Justiça da Democracia</tspan></text></g><g transform="translate(0 0)"><g transform="translate(0)"><path class="c" d="M144.881,373.754a18.444,18.444,0,0,1,22.635,13.374,18.966,18.966,0,0,1-13.069,23.165,18.444,18.444,0,0,1-22.635-13.374,18.965,18.965,0,0,1,13.069-23.165Z" transform="translate(-131.177 -373.105)"/><path class="c" d="M160.66,422.537H157.9v-7.793a19.164,19.164,0,0,0,10.678.139,20.344,20.344,0,0,0,7.188-35.21h15.006V405.15L160.66,422.537Z" transform="translate(-145.001 -376.502)"/><path class="c" d="M196.542,451.455H169.056l27.486-15.87v15.87Z" transform="translate(-150.768 -405.419)"/><path class="d" d="M176.594,396.42l.417.659.741-.2-.485.61.42.658-.716-.283-.482.611.042-.784-.717-.28.742-.2.038-.784Z" transform="translate(-154.263 -385.163)"/><path class="d" d="M138.056,414.152l.417.66.741-.205-.484.61.419.658-.715-.283-.482.612.041-.784-.717-.28.742-.2.038-.784Z" transform="translate(-134.332 -394.334)"/><path class="d" d="M144.5,427.615l.417.659.74-.2-.484.61.419.657-.716-.283-.482.612.042-.784-.717-.28.741-.2.039-.784Z" transform="translate(-137.664 -401.297)"/><path class="d" d="M159.738,435.675l.417.66.741-.2-.484.609.418.658-.715-.282-.482.611.042-.784-.717-.28.742-.2.038-.785Z" transform="translate(-145.545 -405.466)"/><path class="d" d="M172.709,428.388l.417.659.741-.2-.484.609.419.658-.715-.283-.483.611.042-.784-.717-.28.742-.2.038-.784Z" transform="translate(-152.254 -401.697)"/><path class="d" d="M195.816,418.02l.417.659.74-.2-.484.609.419.657-.715-.283-.482.612.041-.784-.716-.28.741-.2.039-.785Z" transform="translate(-164.205 -396.335)"/><path class="d" d="M198.591,420.957l.385.609.684-.189-.447.563.387.607-.661-.261-.445.564.039-.725-.662-.258.685-.186.036-.724Z" transform="translate(-165.671 -397.854)"/><path class="d" d="M196.217,424.145l.385.61.684-.189-.447.563.388.608-.661-.262-.445.565.039-.724-.662-.259.685-.186.036-.725Z" transform="translate(-164.442 -399.502)"/><path class="d" d="M191.985,430.83l.386.609.684-.189-.447.563.388.608-.661-.261-.445.565.039-.725-.662-.258.686-.187.035-.724Z" transform="translate(-162.254 -402.96)"/><path class="d" d="M141.814,432.9l.281.446.5-.138-.328.413.283.446-.484-.192-.327.415.027-.532-.484-.19.5-.136.027-.531Z" transform="translate(-136.405 -404.032)"/><path class="d" d="M153.382,429.731l.282.446.5-.139-.327.413.284.445-.486-.192-.326.415.028-.532-.486-.189.5-.137.026-.531Z" transform="translate(-142.388 -402.392)"/><path class="d" d="M153.969,434.2l.282.447.5-.139-.327.413.283.446-.484-.192-.327.415.029-.532-.486-.19.5-.136.026-.531Z" transform="translate(-142.692 -404.702)"/><path class="d" d="M174.638,421.215l.283.446.5-.139-.328.413.284.446-.485-.192-.326.414.028-.531-.486-.19.5-.136.026-.531Z" transform="translate(-153.382 -397.987)"/><path class="d" d="M170.623,418.135l.283.447.5-.138-.329.413.284.446-.485-.192-.326.414.028-.531-.485-.19.5-.137.026-.531Z" transform="translate(-151.305 -396.394)"/><path class="d" d="M155.971,416.778l.283.447.5-.139-.327.413.284.446-.486-.191-.326.414.029-.531-.486-.19.5-.137.026-.532Z" transform="translate(-143.727 -395.692)"/><path class="d" d="M185.765,434.735l.282.447.5-.139-.327.413.283.446-.485-.192-.326.415.028-.532-.486-.19.5-.136.026-.531Z" transform="translate(-159.136 -404.98)"/><path class="d" d="M194.533,427.553l.282.447.5-.139-.329.413.284.445-.485-.192-.326.414.028-.532-.486-.189.5-.137.027-.531Z" transform="translate(-163.671 -401.265)"/><path class="d" d="M190.948,427.789l.282.447.5-.138-.328.413.283.445-.485-.191-.327.414.028-.532-.486-.19.5-.137.026-.532Z" transform="translate(-161.817 -401.387)"/><path class="d" d="M186.885,430.1l.283.447.5-.139-.328.413.283.446-.484-.191-.327.414.027-.531-.484-.19.5-.136.026-.532Z" transform="translate(-159.716 -402.581)"/><path class="d" d="M182.184,431.089l.282.447.5-.139-.328.414.284.446-.485-.191-.326.414.028-.531-.486-.189.5-.137.026-.531Z" transform="translate(-157.284 -403.094)"/><path class="d" d="M200.814,417.192l.247.389.437-.12-.286.36.247.388-.422-.167-.285.361.025-.463-.423-.165.438-.12.023-.463Z" transform="translate(-166.954 -395.906)"/><path class="d" d="M167.246,423.261l.246.39.438-.121-.287.36.248.389-.423-.167-.285.361.025-.464-.424-.165.437-.12.024-.463Z" transform="translate(-149.594 -399.045)"/><path class="d" d="M192.938,435.028l.247.389.437-.121-.286.36.248.389-.423-.167-.285.361.025-.463-.424-.166.438-.119.023-.463Z" transform="translate(-162.881 -405.131)"/><path class="d" d="M176.933,442.009l.142.226.254-.07-.165.208.142.224-.244-.1-.164.208.015-.267-.245-.1.253-.069.013-.268Z" transform="translate(-154.704 -408.742)"/><path class="d" d="M170.814,425.326l.142.226.253-.07-.165.208.142.225-.244-.1-.165.208.014-.267-.244-.1.253-.069.013-.267Z" transform="translate(-151.54 -400.113)"/><path class="d" d="M148.775,425.845l.143.225.252-.069-.165.207.143.225-.244-.1-.165.208.014-.267-.245-.1.253-.069.013-.268Z" transform="translate(-140.141 -400.382)"/><path class="d" d="M176.768,409.145l.207.329.37-.1-.241.3.209.328-.357-.141-.24.305.021-.391-.358-.14.37-.1.019-.391Z" transform="translate(-154.555 -391.745)"/></g><g transform="translate(51.059 23.066)"><path class="e" d="M241.729,420.879h2.2v6.927a7.085,7.085,0,0,1-.24,2.089,2.95,2.95,0,0,1-1.165,1.533,3.851,3.851,0,0,1-2.224.578,3.294,3.294,0,0,1-2.494-.907,3.7,3.7,0,0,1-.879-2.659l2.08-.24a2.935,2.935,0,0,0,.276,1.329,1.389,1.389,0,0,0,2.134.166,3.318,3.318,0,0,0,.306-1.75v-7.067Z" transform="translate(-236.932 -420.879)"/><path class="e" d="M260.852,435.051v-1.187a3.088,3.088,0,0,1-1.138,1,3.219,3.219,0,0,1-1.49.364,2.936,2.936,0,0,1-1.432-.348,2.1,2.1,0,0,1-.919-.986,4.421,4.421,0,0,1-.282-1.755v-5.014h2.1v3.641a10.047,10.047,0,0,0,.116,2.05,1.125,1.125,0,0,0,.421.6,1.3,1.3,0,0,0,.778.219,1.648,1.648,0,0,0,.962-.293,1.5,1.5,0,0,0,.581-.731,8.507,8.507,0,0,0,.158-2.14v-3.342h2.1v7.925Z" transform="translate(-246.581 -424.11)"/><path class="e" d="M272.907,432.6l2.1-.321a1.531,1.531,0,0,0,.544.929,1.833,1.833,0,0,0,1.15.319,2.051,2.051,0,0,0,1.222-.3.661.661,0,0,0,.278-.559.553.553,0,0,0-.151-.4,1.678,1.678,0,0,0-.7-.275,11.338,11.338,0,0,1-3.218-1.022,2.046,2.046,0,0,1-.94-1.786,2.19,2.19,0,0,1,.813-1.729,3.79,3.79,0,0,1,2.522-.7,4.423,4.423,0,0,1,2.42.53,2.709,2.709,0,0,1,1.088,1.569l-1.977.364a1.214,1.214,0,0,0-.482-.708,1.744,1.744,0,0,0-1.011-.248,2.265,2.265,0,0,0-1.188.232.5.5,0,0,0-.237.425.458.458,0,0,0,.209.38,7.8,7.8,0,0,0,1.959.59,5.813,5.813,0,0,1,2.339.933,1.942,1.942,0,0,1,.658,1.559,2.394,2.394,0,0,1-.912,1.875,4.023,4.023,0,0,1-2.692.782,4.427,4.427,0,0,1-2.566-.657,3.012,3.012,0,0,1-1.233-1.783Z" transform="translate(-255.538 -423.917)"/><path class="e" d="M294.162,424.127V425.8h-1.431v3.195a7.686,7.686,0,0,0,.041,1.131.461.461,0,0,0,.185.265.6.6,0,0,0,.354.1,2.787,2.787,0,0,0,.846-.2l.178,1.625a4.177,4.177,0,0,1-1.659.313,2.662,2.662,0,0,1-1.022-.188,1.5,1.5,0,0,1-.667-.495,1.948,1.948,0,0,1-.3-.817,10.394,10.394,0,0,1-.066-1.477V425.8h-.964v-1.671h.964V422.55l2.1-1.223v2.8Z" transform="translate(-264.204 -421.111)"/><path class="e" d="M301.415,422.82v-1.941h2.1v1.941Zm0,9V423.9h2.1v7.925Z" transform="translate(-270.282 -420.879)"/><path class="e" d="M316.04,429.276l-2.069.372a1.486,1.486,0,0,0-.474-.932,1.432,1.432,0,0,0-.958-.314,1.569,1.569,0,0,0-1.25.54,2.781,2.781,0,0,0-.466,1.811,3.205,3.205,0,0,0,.474,1.992,1.554,1.554,0,0,0,1.271.581,1.415,1.415,0,0,0,.979-.338,2.038,2.038,0,0,0,.537-1.167l2.061.349a3.656,3.656,0,0,1-1.233,2.143,3.8,3.8,0,0,1-2.441.723,3.623,3.623,0,0,1-2.771-1.095,5,5,0,0,1,0-6.093,3.679,3.679,0,0,1,2.807-1.1,3.838,3.838,0,0,1,2.3.624,3.479,3.479,0,0,1,1.228,1.9Zm-5.653,8.591v-.882a13.83,13.83,0,0,0,1.411.081,1.642,1.642,0,0,0,.985-.239.545.545,0,0,0,.244-.461.554.554,0,0,0-.229-.441,1.139,1.139,0,0,0-.718-.186,3.4,3.4,0,0,0-.976.148l.194-.739a3.852,3.852,0,0,1,1.253-.2,2.152,2.152,0,0,1,1.419.41,1.268,1.268,0,0,1,.484,1,1.284,1.284,0,0,1-.537,1.067,3.341,3.341,0,0,1-2.074.561,6.7,6.7,0,0,1-1.457-.119Z" transform="translate(-274.031 -423.917)"/><path class="e" d="M327.622,429.35l-1.9-.344a2.964,2.964,0,0,1,1.1-1.7,4.054,4.054,0,0,1,2.328-.553,5.025,5.025,0,0,1,2.092.334,2.088,2.088,0,0,1,.965.844,4.332,4.332,0,0,1,.28,1.877l-.023,2.448a8.312,8.312,0,0,0,.1,1.541,4.489,4.489,0,0,0,.377,1.062h-2.077c-.053-.139-.122-.346-.2-.619-.033-.125-.059-.206-.074-.247a3.8,3.8,0,0,1-1.149.785,3.3,3.3,0,0,1-1.306.259,2.706,2.706,0,0,1-1.928-.662,2.21,2.21,0,0,1-.706-1.681,2.26,2.26,0,0,1,.321-1.2,2.1,2.1,0,0,1,.9-.8,7.1,7.1,0,0,1,1.669-.489,11.507,11.507,0,0,0,2.035-.515v-.209a1.09,1.09,0,0,0-.3-.863,1.786,1.786,0,0,0-1.126-.258,1.493,1.493,0,0,0-.874.222,1.514,1.514,0,0,0-.507.772Zm2.8,1.7a12.692,12.692,0,0,1-1.276.321,3.965,3.965,0,0,0-1.141.365.88.88,0,0,0-.41.739,1.029,1.029,0,0,0,.328.762,1.149,1.149,0,0,0,.836.321,1.827,1.827,0,0,0,1.082-.372,1.3,1.3,0,0,0,.5-.7,4.024,4.024,0,0,0,.082-1.021v-.418Z" transform="translate(-282.74 -423.917)"/><path class="e" d="M352.5,431.82V420.879h8.112v1.852h-5.9v2.425H360.2V427h-5.492v2.978h6.111v1.844Z" transform="translate(-296.701 -420.879)"/><path class="e" d="M373,431.82V420.879h2.1V431.82Z" transform="translate(-307.304 -420.879)"/><path class="e" d="M385.137,432.336l2.091.349a3.421,3.421,0,0,1-1.274,1.75,3.718,3.718,0,0,1-2.176.6,3.545,3.545,0,0,1-3.06-1.349,4.546,4.546,0,0,1-.785-2.731,4.373,4.373,0,0,1,1.033-3.088,3.384,3.384,0,0,1,2.6-1.116,3.519,3.519,0,0,1,2.792,1.169,5.188,5.188,0,0,1,.979,3.579h-5.256a2.119,2.119,0,0,0,.507,1.45,1.591,1.591,0,0,0,1.21.52,1.288,1.288,0,0,0,.828-.267,1.662,1.662,0,0,0,.507-.867Zm.119-2.12a2.023,2.023,0,0,0-.468-1.386,1.51,1.51,0,0,0-2.224.028,1.924,1.924,0,0,0-.441,1.358Z" transform="translate(-310.892 -423.917)"/><path class="e" d="M398.228,422.82v-1.941h2.1v1.941Zm0,9V423.9h2.1v7.925Z" transform="translate(-320.353 -420.879)"/><path class="e" d="M409.143,424.127V425.8h-1.432v3.195a8.042,8.042,0,0,0,.041,1.131.467.467,0,0,0,.186.265.6.6,0,0,0,.354.1,2.775,2.775,0,0,0,.846-.2l.179,1.625a4.173,4.173,0,0,1-1.658.313,2.66,2.66,0,0,1-1.022-.188,1.506,1.506,0,0,1-.667-.495,1.936,1.936,0,0,1-.3-.817,10.381,10.381,0,0,1-.067-1.477V425.8h-.963v-1.671h.963V422.55l2.1-1.223v2.8Z" transform="translate(-323.672 -421.111)"/><path class="e" d="M415.387,430.782a4.312,4.312,0,0,1,.515-2.023,3.539,3.539,0,0,1,1.46-1.49,4.329,4.329,0,0,1,2.109-.517,3.956,3.956,0,0,1,2.948,1.169,4.035,4.035,0,0,1,1.149,2.953,4.092,4.092,0,0,1-1.159,2.98,3.92,3.92,0,0,1-2.921,1.181,4.59,4.59,0,0,1-2.079-.491A3.384,3.384,0,0,1,415.9,433.1a4.833,4.833,0,0,1-.515-2.318Zm2.15.112a2.621,2.621,0,0,0,.56,1.806,1.83,1.83,0,0,0,2.756,0,2.656,2.656,0,0,0,.558-1.822,2.607,2.607,0,0,0-.558-1.79,1.829,1.829,0,0,0-2.756,0,2.622,2.622,0,0,0-.56,1.806Z" transform="translate(-329.228 -423.917)"/><path class="e" d="M437.059,434.858h-2.1v-7.925h1.946v1.126a3.389,3.389,0,0,1,.9-1.052,1.662,1.662,0,0,1,.906-.255,2.654,2.654,0,0,1,1.381.4l-.65,1.827a1.839,1.839,0,0,0-.983-.341,1.154,1.154,0,0,0-.746.241,1.638,1.638,0,0,0-.482.877,12.423,12.423,0,0,0-.176,2.657v2.448Z" transform="translate(-339.352 -423.917)"/><path class="e" d="M447.858,429.35l-1.9-.344a2.967,2.967,0,0,1,1.1-1.7,4.058,4.058,0,0,1,2.329-.553,5.023,5.023,0,0,1,2.092.334,2.081,2.081,0,0,1,.965.844,4.315,4.315,0,0,1,.281,1.877l-.022,2.448a8.312,8.312,0,0,0,.1,1.541,4.507,4.507,0,0,0,.377,1.062H451.1c-.053-.139-.122-.346-.2-.619-.033-.125-.058-.206-.074-.247a3.825,3.825,0,0,1-1.149.785,3.307,3.307,0,0,1-1.307.259,2.706,2.706,0,0,1-1.928-.662,2.206,2.206,0,0,1-.705-1.681,2.259,2.259,0,0,1,.321-1.2,2.09,2.09,0,0,1,.9-.8,7.1,7.1,0,0,1,1.668-.489,11.525,11.525,0,0,0,2.036-.515v-.209a1.089,1.089,0,0,0-.3-.863,1.785,1.785,0,0,0-1.126-.258,1.494,1.494,0,0,0-.874.222,1.519,1.519,0,0,0-.506.772Zm2.8,1.7a12.78,12.78,0,0,1-1.277.321,3.976,3.976,0,0,0-1.141.365.88.88,0,0,0-.41.739,1.031,1.031,0,0,0,.328.762,1.146,1.146,0,0,0,.835.321,1.829,1.829,0,0,0,1.083-.372,1.3,1.3,0,0,0,.5-.7,4.069,4.069,0,0,0,.082-1.021v-.418Z" transform="translate(-344.925 -423.917)"/><path class="e" d="M463.9,431.82V420.879H466V431.82Z" transform="translate(-354.321 -420.879)"/></g><text class="f" transform="translate(51.07 44.552)"><tspan x="0" y="0">A Justiça da Democracia</tspan></text></g></g></svg>