<svg xmlns="http://www.w3.org/2000/svg" width="428.568" height="180.308" viewBox="0 0 428.568 180.308"><defs><style>.a{fill:#fff3c8;}.b{fill:#3e4496;}.c{fill:#ffe1a8;}.d{fill:#af9869;}.e{fill:#ffebcc;}.f{fill:#db5461;}.g{fill:#ffb340;opacity:0.5;}.h{fill:#88041b;}.i{fill:#dec48c;}.j{fill:#457ed1;}.k{fill:#332817;}</style></defs><g transform="translate(-34.356)"><path class="a" d="M68.193,139.828l-16.591-.6-.534,13.747,19.573.5Z"/><path class="b" d="M52.232,154.435c1.55-2.431.692-3.316.75-5.017.094-2.754.511-7.156,2.133-9.825,2.5-4.105-7.306-5.809-12.018-6.034l-7.846,45.135s13.082,3.847,14.217-5.42C50.3,166.471,50.009,157.922,52.232,154.435Z"/><path class="b" d="M57.4,140.125h2.579a.9.9,0,1,0,0-1.792H57.4a.9.9,0,1,0,0,1.792Z"/><path class="b" d="M54.483,153.619h5.491a.9.9,0,0,0,0-1.792H54.483a.9.9,0,1,0,0,1.792Z"/><path class="b" d="M40.861,180.306a15.215,15.215,0,0,0,4.809-.707c4.632-1.559,5.055-9.063,5.309-13.546l.077-1.26a64.967,64.967,0,0,1,2.038-10.115.895.895,0,1,0-1.722-.49,65.164,65.164,0,0,0-2.105,10.482l-.077,1.281c-.227,4.032-.611,10.778-4.091,11.95-3.22,1.081-7.148.462-8.807.115l8.179-43.445c4.312.478,9.778,1.9,10.1,3.883-.562,1.237-3.123,7.2-2.443,11.9a.925.925,0,0,0,1.015.759.9.9,0,0,0,.759-1.015c-.67-4.616,2.357-11.03,2.389-11.093a.9.9,0,0,0,.088-.4c-.051-4.592-10.473-5.722-12.563-5.9a.887.887,0,0,0-.957.726l-8.49,45.093a.9.9,0,0,0,.641,1.029,23.956,23.956,0,0,0,5.848.75Z"/><path class="c" d="M160.918,154.567h-95.6a3.769,3.769,0,0,1-3.538-2.423c-1.382-3.654-3.2-10.442,1.037-13.212,5.928-3.877,149.646-12.536,156.941-17.789s11.457,33.424,11.457,33.424Z"/><path class="d" d="M87.164,136.318a.794.794,0,0,0,.093-.005c3.349-.343,47.232-4.3,47.674-4.345a.9.9,0,1,0-.161-1.785c-.443.04-44.335,4-47.7,4.349a.9.9,0,0,0,.089,1.787Z"/><path class="d" d="M61.775,153.041a.885.885,0,0,0,.291-.049.894.894,0,0,0,.557-1.137c-.005-.017-.613-1.8-1.571-5.759-1.01-4.144,2.592-6.326,3.719-6.9,1.619-.821,12.137-1.946,18.388-2.464a.894.894,0,0,0,.819-.966.928.928,0,0,0-.966-.819c-1.69.14-16.587,1.4-19.051,2.649-2.935,1.486-5.7,4.609-4.649,8.919.983,4.049,1.592,5.843,1.619,5.917a.9.9,0,0,0,.847.605Z"/><path class="a" d="M122.011,71.5,112.964,58.8,100.2,66.909l13.957,16.808Z"/><path class="b" d="M99.927,69.3c2.821-.593,2.854-1.825,4.109-2.973,2.034-1.86,5.472-4.64,8.514-5.348,4.679-1.088-.959-9.284-4.094-12.809L70.713,74.136s6.4,12.04,13.818,6.369C89.976,76.342,95.88,70.152,99.927,69.3Z"/><path class="b" d="M106.95,75.938a.9.9,0,0,0,.69-1.468L104.5,70.688a.9.9,0,1,0-1.379,1.144l3.139,3.782A.893.893,0,0,0,106.95,75.938Z"/><path class="b" d="M116.284,64.357a.9.9,0,0,0,.73-1.416l-1.33-1.865a.9.9,0,1,0-1.459,1.039l1.33,1.865a.9.9,0,0,0,.729.376Z"/><path class="b" d="M80.446,82.906a6.857,6.857,0,0,0,2.027-.311.866.866,0,0,0,.276-.142c.082-.061,8.14-6.174,10.329-7.9,3.136-2.473,5.936-4.226,6.966-4.361a.9.9,0,1,0-.234-1.778c-1.923.254-5.738,3.073-7.841,4.732-2.023,1.594-9.115,6.979-10.17,7.78-4.608,1.279-8.629-4.49-9.89-6.525l36.351-25c2.672,3.565,5.279,7.712,5.162,8.65-.285,1.439-.716,1.684-2.693,2.6a29.356,29.356,0,0,0-7.357,5.08.9.9,0,1,0,1.33,1.2,27.928,27.928,0,0,1,6.779-4.658c2.011-.935,3.225-1.5,3.7-3.883.42-2.107-4.067-8.23-6.014-10.763a.893.893,0,0,0-1.218-.193L70.206,73.4a.9.9,0,0,0-.282,1.162C70.125,74.935,74.472,82.906,80.446,82.906Z"/><path class="c" d="M124.845,70.521s35.093,41.174,41.7,47.027c9.9,8.77,24.444,10.342,34.911-1.394,8.2-9.2,34.557-15.54,45.831-6.535l7.667,44.808H160.4a11.008,11.008,0,0,1-9.052-5.029c-10.334-15.159-40.45-59.963-42.077-69.608C108.031,72.418,116.99,58.806,124.845,70.521Z"/><path class="e" d="M126.344,111.4s13.859,9.967,15.651,14.746,8.362,9.5,10.751,11.319,9.855,5.718,14.634,8.7,23.892-6.494,29.566-2.5,20.383-5.081,29.268-3.831c10.986,1.546,23.523-2.362,23.523-2.362l1.531,17.4-92.473-.577s-5.344-1.8-7.442-4.89S126.344,111.4,126.344,111.4Z"/><path class="d" d="M186.226,125.449c6.907,0,13.315-6.105,18.064-10.629l.564-.537c4.991-4.744,15.711-6.692,22.117-7.855,7.176-1.305,17.961,2.69,18.069,2.73a.9.9,0,0,0,.63-1.677c-.46-.175-11.352-4.215-19.021-2.817-6.6,1.2-17.651,3.208-23.03,8.321l-.565.537c-4.762,4.537-11.327,10.753-17.812,10.086-6.935-.709-14.449-2.226-23.356-12.113-8.879-9.859-37.453-43.011-37.74-43.343-.219-.208-3.712-3.363-7.091-3.132a4.71,4.71,0,0,0-3.414,1.834c-3.6,4.441-6.713,8.8-5.214,13.222,1.391,4.107,10.55,20.978,10.939,21.694a.9.9,0,0,0,1.575-.854c-.095-.175-9.474-17.452-10.816-21.414-1.206-3.563,1.634-7.482,4.91-11.521a2.946,2.946,0,0,1,2.152-1.172c2.172-.193,4.833,1.815,5.673,2.588.217.259,28.8,33.425,37.7,43.3,9.33,10.359,17.541,11.985,24.5,12.694a11.354,11.354,0,0,0,1.167.059Z"/><path class="d" d="M154.373,153.031a.9.9,0,0,0,.418-1.689c-2.769-1.461-4.762-5.526-4.781-5.566l-26.373-40.419a.9.9,0,0,0-1.5.98l26.317,40.319c.035.089,2.219,4.539,5.5,6.271a.9.9,0,0,0,.419.1Z"/><path class="a" d="M389.12,136.477s22.627-7.357,23.651-4.249c.959,2.91,1.379,12.627-21.009,9.1C390.237,141.089,390.885,136.807,389.12,136.477Z"/><path class="f" d="M344.311,87.016s9.941,16.433,11.456,43.338c.409,7.271,30.836,1.9,35.871,1.875s5.11,8.9-.43,10.645-62.014,3.255-57.482-6.4S339.778,88.064,344.311,87.016Z"/><path class="g" d="M395.141,138.6s-10.306,3.449-12.136,2.441-6.5-3.114-9.632-2.5-10.4,1.579-14.988-.242-6.832-2.765-8.344-1.525c-.9.738,2.844-14.882.918-18.578l-6.847,23.048s33.542,2.814,41.169,2.416C391.814,143.322,393.987,142.329,395.141,138.6Z"/><path class="h" d="M396.849,135.06a.959.959,0,0,0,.231-.03l2.15-.574a.9.9,0,1,0-.462-1.733l-2.151.574a.9.9,0,0,0,.231,1.762Z"/><path class="h" d="M384.241,145.057a21.317,21.317,0,0,0,10.48-3.656c1.575-1.157,1.876-3.9,1.489-5.965-.409-2.173-1.5-3.652-3-4.055-1.8-.478-8.127.012-17.583.821-5.649.483-11,.934-13.03.849l-.987-.04c-4.193-.154-5.32-.2-5.134-5.365.236-6.566-4.872-27.017-5.089-27.885a.9.9,0,1,0-1.739.438c.053.21,5.264,21.069,5.036,27.384-.236,6.646,2.189,7.047,6.86,7.218l.973.038c2.177.095,7.558-.364,13.262-.85,6.834-.585,15.345-1.309,16.965-.875.784.21,1.437,1.227,1.7,2.653.329,1.752-.025,3.631-.788,4.191a19.558,19.558,0,0,1-9.432,3.307.9.9,0,1,0,.012,1.792Z"/><path class="a" d="M371.585,54.508s-1.1,28.7-20.684,22.954c-.63-.185-1.034-.031-1.516.791-.613,1.043-6.806,18.47-6.806,18.47-.289.721-.514.272-1.289.323A27.748,27.748,0,0,1,321.768,90.4c-1.191-1.008.445-3.45,1.482-4.615,3.241-3.643,5.648-8.6,8.486-18.544C336.1,51.964,342.558,29.3,371.585,54.508Z"/><path class="i" d="M367.6,51.182s-.992,12.358-3.057,14.646-4.977.944-7.665,2.96-5.536,6.35-7.84,5.6c-4.256-1.387-7.758,2.7-7.989,4.985s-2.024,9.379-11.132,7.644c0,0,5.555,5.031,10.456,5.883a4.26,4.26,0,0,0,4.451-1.776,63.119,63.119,0,0,0,2.471-6.565c1.743-5.019,2.079-7.595,3.674-7.1,3.96,1.239,10.574,3.664,16.3-6.537s5.275-15.056,4.379-17.892S367.6,51.182,367.6,51.182Z"/><path class="d" d="M357.329,79.53a6.24,6.24,0,0,0,.943-.07c2.777-.416,5.269-2.117,7.84-5.351,3.675-4.623,6.441-15.135,6.557-15.581a.9.9,0,1,0-1.732-.451c-.028.1-2.788,10.592-6.228,14.916-2.3,2.9-4.369,4.345-6.7,4.7a5.524,5.524,0,0,1-3.333-.648c-2.3-1.191-3.614-.819-4.308-.3a.9.9,0,1,0,1.078,1.431c.383-.289,1.305-.115,2.406.455a7.59,7.59,0,0,0,3.482.9Z"/><path class="d" d="M346.067,87.912a.9.9,0,0,0,.891-.817,52.424,52.424,0,0,1,2.716-7.264.9.9,0,0,0-1.645-.71c-.453,1.048-2.725,6.352-2.856,7.817a.9.9,0,0,0,.814.971C346.012,87.911,346.039,87.912,346.067,87.912Z"/><path class="d" d="M326.242,81.567a.892.892,0,0,0,.611-.24c1.393-1.3,2.653-4.508,2.793-4.868a.9.9,0,0,0-1.673-.644,14.877,14.877,0,0,1-2.341,4.2.9.9,0,0,0,.611,1.552Z"/><path class="f" d="M325.332,82.836s-13.871-3.794-27.364,10.989c-17.736,19.431-31.636,18.894-38.573,19.561a17.673,17.673,0,0,1-12.111-3.768l3.983,45.246h69.319c4.46.039,27.385-4.316,29.931-26.526a67.678,67.678,0,0,0-5.7-37.215S341.608,98.814,325.332,82.836Z"/><path class="g" d="M334.163,105.694s4.343,14.035,4.94,19.709,1.792,6.421,2.987,9.407a22.628,22.628,0,0,1,1.439,4.778s-6.765,2.084-8.283-5.977S334.163,105.694,334.163,105.694Z"/><path class="g" d="M277.283,154.288s-21.79-4.74-23.737-8.077a61.071,61.071,0,0,1-3.809-8.742l1.531,17.4Z"/><path class="h" d="M337.471,92.95c-3.234-1.736-10.883-6.076-12.057-8.891a.9.9,0,0,1,1.655-.689c.486,1.167,3.724,3.964,11.248,8,2.247,1.2,4.007,1.557,4.954,1a2.526,2.526,0,0,0,.975-1.965.9.9,0,1,1,1.792,0A4.308,4.308,0,0,1,344.2,93.9a3.881,3.881,0,0,1-2.028.52,10.378,10.378,0,0,1-4.7-1.473Z"/><path class="h" d="M348.077,138.176a.9.9,0,0,0,.637-.264c3.708-3.742,3.341-16.073,3.139-19.764-.357-6.515-4.338-25.508-4.508-26.313a.9.9,0,0,0-1.754.367c.04.2,4.123,19.665,4.473,26.044.4,7.435-.25,16.008-2.625,18.4a.9.9,0,0,0,.637,1.528Z"/><path class="h" d="M251.026,153.031a.911.911,0,0,0,.894-.975l-3.582-40.688,1.22.789c9.154,4.933,20.15,1.053,26.723-1.265l1.141-.4c3.872-1.346,12.643-8.664,20.381-15.121,4.8-4.009,9.341-7.8,11.719-9.311,4.293-2.733,13.9-2.765,14.018-2.765a.9.9,0,0,0,0-1.792c-.5,0-10.263.04-14.981,3.045-2.474,1.577-6.845,5.223-11.9,9.448-7.245,6.044-16.258,13.565-19.821,14.8l-1.148.4c-6.293,2.219-16.829,5.93-25.216,1.412l-2.7-1.75a.9.9,0,0,0-1.379.831l3.743,42.517a.9.9,0,0,0,.891.817Z"/><path class="b" d="M366.033,153.672l18.716-4.149,23.1-.6-1.642,4.746Z"/><path class="a" d="M372.022,146.648s25.905-5.33,26.946-1.747a10.118,10.118,0,0,1,.46,4.543,1.805,1.805,0,0,1-1.916,1.412l-6.735-.2q-1.639-.047-3.278.059L369.873,152.8Z"/><path class="f" d="M305.243,109.646A27.5,27.5,0,0,1,315.853,88.3c4.932-3.733,8.572-5.8,13.258,1.735,9.372,15.078,3.82,40.543,6.944,46.74s36.382.794,42.109,2.985,5.614,12.97,3.532,13.45-63.559,2.575-68.766.368C308.988,151.908,304.859,126.193,305.243,109.646Z"/><path class="g" d="M382.676,146.107s-.717,3.487-8.183,3.785-13.29-1.941-15.38,0-2.538,2.514-12.394,1.406-9.407-1.257-19.263-.66-8.609,1.993-11.722-1.717c-5.893-7.024-1.12-8.736-2.315-14.858s-7.014-13.257-6.717-17.081a15.787,15.787,0,0,0-1.458-7.337s-.122,24.363,4.549,37.979a11.355,11.355,0,0,0,3.138,5.954c2.579,2.361,15.122.708,15.122.708l54.623-1.338S383.381,148.388,382.676,146.107Z"/><path class="h" d="M383.68,145.524c4.144-.39,10.871-1,11.647-.929a.9.9,0,1,0,.122-1.788c-1.172-.084-10.764.826-11.854.929a.9.9,0,0,0,.084,1.788Z"/><path class="h" d="M382.464,149.754l-.669-3.477c-.749-3.894-2.4-5.6-5.7-5.88-1.557-.133-6.172.013-11.514.184-9.4.3-21.093.67-24.473-.21-4.537-1.183-5-2.607-5.425-5.022-.08-.453-.168-.954-.311-1.514-.418-1.631-1.68-28.313.859-29.818a.9.9,0,0,1,1.061,1.431c-1.118,2.219-1.01,24.716-.184,27.942.156.609.252,1.153.339,1.647.341,1.929.467,2.649,4.112,3.6,3.13.812,15.172.43,23.965.152,5.622-.18,10.058-.318,11.724-.178,5.311.455,6.692,4.154,7.3,7.325l.668,3.477a.9.9,0,0,1-.71,1.05.937.937,0,0,1-.172.016.9.9,0,0,1-.878-.726Z"/><path class="h" d="M312.931,154.475a.9.9,0,0,0,.593-1.566c-.067-.063-3.547-3.4-5.122-15.555-1.855-14.309-2.639-23.86-2.266-27.62a.9.9,0,0,0-.8-.98.917.917,0,0,0-.98.8c-.388,3.948.376,13.378,2.273,28.026,1.69,13.044,5.556,16.529,5.72,16.671a.887.887,0,0,0,.586.219Z"/><path class="j" d="M461.861,121.245l-10.1,32.427H394.351l10.606-34.183a2.966,2.966,0,0,1,2.833-2.087h51.937C461.751,117.4,462.384,119.976,461.861,121.245Z"/><path class="b" d="M404.1,119.223a3.843,3.843,0,0,1,3.689-2.718h51.937a2.951,2.951,0,0,1,2.509,1.37,4.266,4.266,0,0,1,.469,3.669L452.42,154.568H393.135Zm56.931,1.68a2.479,2.479,0,0,0-.285-2.031,1.165,1.165,0,0,0-1.02-.574H407.791a2.06,2.06,0,0,0-1.977,1.458l-10.246,33.021H451.1s9.9-31.8,9.932-31.873Z"/><rect class="j" width="87.31" height="2.153" transform="translate(452.602 154.288) rotate(180)"/><path class="b" d="M364.621,151.463h88.655v3.5H364.621Zm87.311,1.344H365.965v.809h85.967Z"/><path class="b" d="M394.828,152.135l-.556,1.628H365.293v-1.628Z"/><path class="a" d="M425.379,136.777c0,1.914,1.839,3.466,4.106,3.466s4.107-1.552,4.107-3.466-1.839-3.466-4.107-3.466S425.379,134.862,425.379,136.777Z"/><path class="b" d="M424.483,136.777c0-2.406,2.245-4.362,5-4.362s5,1.956,5,4.362-2.245,4.362-5,4.362S424.483,139.183,424.483,136.777Zm1.792,0c0,1.417,1.44,2.571,3.211,2.571s3.211-1.153,3.211-2.571-1.44-2.571-3.211-2.571-3.211,1.153-3.211,2.571Z"/><path class="k" d="M378.527,44.139c1.654-3.077,3.3-8.168,2.712-12.349a7.415,7.415,0,0,0-2.716-5.079c-3.244-2.427-6.083-6.414-4.323-10.33a8.208,8.208,0,0,0-.728-7.075,11.874,11.874,0,0,0-11.319-6.27,19.425,19.425,0,0,1-9.944-1.945C350.369.319,348.918-.3,347.53.154c-2.922.945-3.838,3.653-4.509,5.629-.639,1.887-.815,2.095-1.306,2.032a1.168,1.168,0,0,0-1.179,1.173c0,.015,0,.028,0,.043-.552-.074-1.177-.177-1.886-.246a1.233,1.233,0,0,0-1.014-1.36c-.273-.02-6.527-.41-8.453,4.4a6.16,6.16,0,0,0-.4,3.974c-.038.1-.075.2-.115.3-.225.089-.523.2-.992.341l-1.115.334c-3.995,1.183-8.521,2.523-9.168,7.824-.273,2.262-2.137,4.469-3.635,6.242a18.9,18.9,0,0,0-2.036,2.693l-.213.382c-1.335,2.356-3.819,6.746-1.179,9.725,2.22,2.508,2.3,3.394,1.407,4.952a7.623,7.623,0,0,0-1.062,4.268,2.815,2.815,0,0,1-.148,1.221l-.188.413c-.787,1.712-2.258,4.9-.426,7.389.622.849,1.276,1.92,1.923,2.979a30.2,30.2,0,0,0,2.516,3.729c1.357,1.568,4.138,4.787,7.63,6.284a4.847,4.847,0,0,0,1.917.365,8.12,8.12,0,0,0,3.14-.715,14.761,14.761,0,0,0,4.179,2.454,4.708,4.708,0,0,0,1.586.252,8.691,8.691,0,0,0,4.819-1.638,5.738,5.738,0,0,0,2.7-4.685c-.024-2.616.357-3.043.842-3.584a6.321,6.321,0,0,0,.565-.707c1.043-1.563.469-3.251-.457-5.465-.877-2.1-.518-5.073.042-5.353a.9.9,0,0,0,.4-1.2l-.009-.012a5.32,5.32,0,0,1,.937-.352.892.892,0,0,0,.618.733c.432.135,1.715.709,1.932,1.549a1.517,1.517,0,0,0,1.1,1.188,1.587,1.587,0,0,0,.4.052c.7,0,1.736-.469,3.664-2.546,1.256-1.355,1.713-1.743,3.064-1.243a8.368,8.368,0,0,0,7.421-.8,3.131,3.131,0,0,1,3.131-.033c4.08,2.492,11.189,6.226,13.388,3.489,1.529-1.9,3.43-6.077,2.866-9.409a5.041,5.041,0,0,0-1.7-3.077Z"/></g></svg>