<svg xmlns="http://www.w3.org/2000/svg" width="191.835" height="294.783" viewBox="0 0 191.835 294.783"><defs><style>.a{fill:#fff3c8;}.b{fill:#3e4496;}.c{fill:#dec48c;}.d,.e{fill:#457ed1;}.e,.g{opacity:0.5;}.f,.g{fill:#34dbf9;}.h{fill:#fff;}</style></defs><path class="a" d="M78.346,40.113s2.682,18.518-8.314,17.713S11.4,38.652,15.856,48.961C21.9,62.943,57.963,76.585,75.762,82.307c11.311,3.636,11.976-26.4,11.705-36.441S78.346,40.113,78.346,40.113Z" transform="translate(27.72 69.823)"/><path class="b" d="M72.392,70.558c2.428,0,5.041-4.053,5.815-5.352a1.01,1.01,0,1,0-1.735-1.033c-1.415,2.372-3.345,4.507-4.1,4.365C69.754,68,25.122,51.273,21.1,47.052a1.01,1.01,0,1,0-1.463,1.392c4.591,4.82,49.948,21.612,52.354,22.077a2.081,2.081,0,0,0,.4.037Z" transform="translate(34.486 83.248)"/><path class="c" d="M31.054,96.418v14.665L17.7,112.824l1.56-17.655Z" transform="translate(31.534 169.511)"/><path class="b" d="M34.905,101.014c2.869-1.2,3.652-.123,5.47.13a24.342,24.342,0,0,0,10.836-.452c4.824-1.894,4.824,8.837,4.193,13.887H5.986s-1.672-14.614,8.387-14.109C21.756,100.839,30.788,102.73,34.905,101.014Z" transform="translate(10.477 178.931)"/><path class="b" d="M5.631,115.355c-.039-.349-.934-8.623,3.024-12.844a7.8,7.8,0,0,1,6.417-2.387c2.269.112,4.7.371,7.051.619,5.12.536,10.411,1.1,13.043,0a5.942,5.942,0,0,1,4.8-.242,7,7,0,0,0,1.195.3,23.7,23.7,0,0,0,10.328-.392,3.21,3.21,0,0,1,3.32.363c3.665,2.846,2.3,14.111,2.244,14.588l-.111.885H5.734Zm47.942-12.985a1.229,1.229,0,0,0-1.344-.075,24.9,24.9,0,0,1-11.343.511,8.773,8.773,0,0,1-1.528-.379,4,4,0,0,0-3.415.179c-3.107,1.3-8.414.735-14.032.144-2.324-.247-4.727-.5-6.941-.611a5.852,5.852,0,0,0-4.838,1.75C7.49,106.7,7.467,112.1,7.573,114.231H55.15c.489-4.906.053-10.593-1.577-11.861Z" transform="translate(9.828 178.268)"/><path class="b" d="M23.151,102.03a1.009,1.009,0,0,0,1.009-1.009v-.757a1.009,1.009,0,1,0-2.019,0v.757a1.009,1.009,0,0,0,1.01,1.009Z" transform="translate(39.436 176.786)"/><path class="d" d="M82.172,64.745s2.884,12.587-8.746,14.18C59.162,80.878,38.4,76.964,28.28,104.9,22.2,121.681,21.034,136.687,17.99,148.17c-1.049,3.957-2.191,16.148,1.59,16.658l8.386,2.462c2.6.351,6.795-.664,7.979-3.187l21.7-59.024A20.228,20.228,0,0,1,72.277,91.821c16.3-3.447,43.547-6.88,45.958-11.221.981-1.765,6.476-19.533,6.476-19.533Z" transform="translate(30.226 108.772)"/><path class="b" d="M20.373,113.274a1.009,1.009,0,0,0,.986-.8A70.5,70.5,0,0,1,34.827,84.811c5.437-6.833,26.7-8.7,33.685-9.311l.743-.065c7.738-.684,9.837-10.222,9.922-10.626a1.009,1.009,0,1,0-1.975-.418c-.018.085-1.881,8.481-8.124,9.033l-.743.065c-7.962.7-29.111,2.553-35.088,10.064a72.617,72.617,0,0,0-13.863,28.5,1.009,1.009,0,0,0,.778,1.2,1.072,1.072,0,0,0,.211.022Z" transform="translate(34.486 113.266)"/><path class="e" d="M41.128,80.35c1.827-3.228.523-4.41,4.476-6.245A18.655,18.655,0,0,0,50.3,72.127a9.742,9.742,0,0,1,7.242-3.319,103.136,103.136,0,0,1,12.607-.1L41.856,84.7,18.1,119.408A118.334,118.334,0,0,0,26.925,103a16.174,16.174,0,0,1,6.766-10.236c4.112-2.861-1.564-4.493,2.727-8.873C37.537,82.752,40.131,82.111,41.128,80.35Z" transform="translate(32.235 122.121)"/><path class="b" d="M26.2,116a7.2,7.2,0,0,0,6.6-3.282l7.8-21.184a1.011,1.011,0,1,0-1.9-.7L30.965,111.9c-.038.043-2.393,4.063-10.338.794a1.009,1.009,0,1,0-.769,1.865A16.768,16.768,0,0,0,26.2,116Z" transform="translate(34.258 160.621)"/><path class="f" d="M62.336,27.967s-21.119,1.474-23.1,19.283c-.225,2.029-.4,4.056-.772,6.063a154.3,154.3,0,0,0-1.244,18c.34,2.637,19.02,4.328,19.02,4.328S56.228,31.483,62.336,27.967Z" transform="translate(66.295 49.814)"/><path class="b" d="M38.643,44.709a1.012,1.012,0,0,0,1-.913c.008-.088.931-8.808,7.9-12.461A1.009,1.009,0,1,0,46.6,29.55a18.816,18.816,0,0,0-8.968,14.056,1.009,1.009,0,0,0,.909,1.1A.836.836,0,0,0,38.643,44.709Z" transform="translate(67.026 52.426)"/><path class="a" d="M46.451,13.16S39.52,26.875,41.924,34.688c2.394,7.779,6.2,11.783,12.6,12.488a2.057,2.057,0,0,1,1.841,2c.073,3.444.189,10.692-.044,13.9-.652,8.97-.652,4.24-.652,4.24l25.769,8.481s-5.9-22.525-5.571-37.04L78,34.121s5.221-8.805,4.091-9.436c-4.06-2.264-5.545-8.59-5.545-8.59s0-10.764-5.871-7.828S46.451,13.16,46.451,13.16Z" transform="translate(73.77 13.821)"/><path class="c" d="M47.443,19.987s9.877,1.414,7.594,5.845S51.1,32.383,53.547,34.5c2.022,1.753,8.245,4.09,7.477,7.509s-1.584,14,.7,15.967A5.478,5.478,0,0,1,58.136,66.8a10.747,10.747,0,0,0-6.759,2.687S65.1,71.1,68.223,63.811a176.186,176.186,0,0,1-3.089-23.54s4.092-10.225,8.985-14.438S56.668,6.9,56.668,6.9Z" transform="translate(84.503 12.298)"/><path class="b" d="M46.125,37.828a1.009,1.009,0,0,0,.506-1.883c-8.428-4.885.063-23.785.15-23.976a1.009,1.009,0,0,0-1.838-.836c-.384.844-9.319,20.765.674,26.558A1,1,0,0,0,46.125,37.828Z" transform="translate(72.854 18.777)"/><path class="b" d="M52.857,40.138a1.01,1.01,0,0,0,1.005-.934c.432-5.823.651-15.643-2.754-16a18.993,18.993,0,0,1-6.18-2.4,1.009,1.009,0,1,0-1.051,1.723A20.67,20.67,0,0,0,50.9,25.211c.994.568,1.455,7.042.948,13.843a1.011,1.011,0,0,0,.932,1.082Z" transform="translate(77.291 36.789)"/><path class="b" d="M57.368,44.177a1.01,1.01,0,0,0,.993-1.2,165.83,165.83,0,0,1-2.982-19.968A17.228,17.228,0,0,1,56.8,18.956a1.01,1.01,0,1,0-1.818-.879,19.528,19.528,0,0,0-1.6,4.69c-.347,2.809,2.659,18.777,3,20.589a1.009,1.009,0,0,0,.99.822Z" transform="translate(95.022 31.181)"/><path class="d" d="M46.172,22.526S28.915,4.247,42.289.991,53.706,5.564,58.273,8.173s8.807.652,15,0,14.434.93,16.31,7.014S90.24,25.98,94.806,26.7s4.893,7.461,0,11.919-8.481,8.7-11.417,10c0,0,6.2-8.264,1.957-10a4.349,4.349,0,0,0-5.872,2.5s.979-15-2.936-14.026-1.7,3.784-7.25,4.42S50.707,34.269,46.172,22.526Z" transform="translate(66.274 0.377)"/><path class="b" d="M86.5,48.131a1,1,0,0,0,.607-.2c1.557-1.171,15.138-11.619,12.477-17.989-1.445-3.46-2.963-3.83-4.394-3.911a1.513,1.513,0,0,1-.639-.108c-.879-.566-1.66-1.656-3.681-10.578-1.995-8.8-12.816-8.27-16.08-7.9-.753.087-1.752.286-2.9.516-4.518.909-11.351,2.285-14.056-1.329l-.4-.544C54.21,1.765,52.091-1.094,43.577.4a7.772,7.772,0,0,0-6.535,7.584,14.3,14.3,0,0,0,2.123,6.8,1.009,1.009,0,0,0,1.75-1.005A12.323,12.323,0,0,1,39.06,7.951a5.739,5.739,0,0,1,4.863-5.563c7.292-1.272,8.824.795,11.883,4.907l.408.546c3.468,4.645,11.051,3.113,16.073,2.1,1.082-.217,2.021-.408,2.73-.489,3.653-.416,12.3-.637,13.884,6.334,2.135,9.433,3.028,10.848,4.556,11.832a3.113,3.113,0,0,0,1.614.424c.808.045,1.569.089,2.65,2.673,1.552,3.72-6.433,11.543-11.83,15.6a1.009,1.009,0,0,0,.607,1.816Z" transform="translate(65.976 0)"/><path class="b" d="M69.975,27.864a1.009,1.009,0,0,0,.828-.432,5.4,5.4,0,0,0,.83-4.059,4.611,4.611,0,0,0-2.73-2.941,3.944,3.944,0,0,0-4.168.475c.319-3.407.465-8.232-.966-10.054a2.267,2.267,0,0,0-1.429-.876,5.653,5.653,0,0,0-5.366,1.311,20.821,20.821,0,0,1-9.7,2.722,1.009,1.009,0,1,0,.008,2.019,22.775,22.775,0,0,0,10.947-3.16,3.621,3.621,0,0,1,3.468-.978,1.166,1.166,0,0,0,.313.079c.02,0,.071.006.17.13,1.131,1.439.769,7.789.152,11.84a1.009,1.009,0,0,0,1.9.611c.069-.136,1.715-3.271,3.813-2.295a2.715,2.715,0,0,1,1.638,1.634,3.424,3.424,0,0,1-.534,2.385,1.01,1.01,0,0,0,.828,1.587Z" transform="translate(82.417 17.404)"/><path class="b" d="M56.981,22.687A1.01,1.01,0,0,0,57.22,20.7c-.085-.02-8.485-2.119-11.94-7.828l-.118-.2A17.713,17.713,0,0,0,43.8,10.636L40.325,6.348a1.009,1.009,0,0,0-1.569,1.27l3.471,4.288a15.858,15.858,0,0,1,1.207,1.812l.118.195c3.9,6.437,12.814,8.654,13.192,8.747A1.085,1.085,0,0,0,56.981,22.687Z" transform="translate(68.63 10.64)"/><path class="b" d="M18.845,101.728a1.011,1.011,0,0,0,.942-.644l.377-.974a1.01,1.01,0,0,0-1.885-.729l-.377.974a1.008,1.008,0,0,0,.942,1.374Z" transform="translate(31.764 175.86)"/><path class="b" d="M13.72,101.087a1.01,1.01,0,0,0,.873-.5l.927-1.593a1.01,1.01,0,0,0-1.747-1.013l-.926,1.593a1.009,1.009,0,0,0,.873,1.516Z" transform="translate(22.638 173.619)"/><path class="a" d="M35.351,103.683,26.5,121.922l-14.957-2.175,16.968-29.2Z" transform="translate(20.562 161.269)"/><path class="b" d="M31.387,102.427c3.047-.619,3.606.587,5.341,1.188a24.336,24.336,0,0,0,10.718,1.656c5.1-.923,3.02,9.6,1.422,14.436L.388,110.131S1.58,95.47,11.35,97.915C18.522,99.71,27.015,103.316,31.387,102.427Z" transform="translate(0.69 173.911)"/><path class="b" d="M0,111.608l.073-.9c.027-.351.753-8.64,5.457-12.013a7.855,7.855,0,0,1,6.756-1.1c2.2.552,4.532,1.273,6.786,1.971,4.924,1.526,10.017,3.1,12.806,2.531a5.964,5.964,0,0,1,4.761.7,6.95,6.95,0,0,0,1.11.528,23.666,23.666,0,0,0,10.21,1.616,3.237,3.237,0,0,1,3.188,1c3.044,3.5-.477,14.29-.629,14.748l-.28.846Zm48.316-4.682a25.01,25.01,0,0,1-11.229-1.7,8.916,8.916,0,0,1-1.423-.668,4.031,4.031,0,0,0-3.385-.485c-3.306.67-8.4-.909-13.8-2.583-2.23-.69-4.534-1.4-6.679-1.94a5.833,5.833,0,0,0-5.088.779c-3.137,2.247-4.205,7.539-4.515,9.65l46.674,9.22c1.431-4.719,2.108-10.383.753-11.943a1.068,1.068,0,0,0-.885-.377,2.288,2.288,0,0,0-.42.04Z" transform="translate(0 173.251)"/><path class="d" d="M157.651,62.233s12.722,49-9.836,49c-36.885,0-53.062,1.529-70.048,1.426-3.57-.021-15.15,12.062-17.262,14.973-5.7,7.856-16.1,15.546-22.834,24.487-9.718,12.9-15.366,12.044-22.969,7.856-10.311-5.681,32.029-63.9,41-72.911,3.406-3.424,8.415-4.544,13.852-5.4,13.267-2.078,29.462.127,33.887-6.131,6.238-8.823,5.224-13.306,5.224-13.306Z" transform="translate(23.326 110.847)"/><path class="b" d="M20.371,113.158a1.006,1.006,0,0,0,.86-.481c6.2-10.1,19.369-29.943,24.8-32.788,6.786-3.552,23.053-5.212,30.869-6.011l.54-.055c8.159-.836,12.209-2.784,13.129-6.316A1.008,1.008,0,1,0,88.619,67c-.668,2.559-4.286,4.091-11.383,4.818l-.538.055c-8.554.871-24.472,2.5-31.6,6.227-7.278,3.813-24.841,32.311-25.584,33.521a1.009,1.009,0,0,0,.331,1.388,1,1,0,0,0,.528.15Z" transform="translate(34.486 117.991)"/><path class="e" d="M100.258,62.95s33.036,3.77,36.364,9.1,5.824,15.424-7.488,14.863-12.555,3.646-5.862,9.254-25.476,10.981-39.343,9.7-34.953,2.674-28.292,8.547,2.5,14.286-5.542,16.529S35.211,143,35.3,146.174s-11.35,13.859-22.176,10.108a3.021,3.021,0,0,0,1.518,2.419c1.463.772,8.791,5.549,15.418.133,0,0,15.918-17.169,20.666-21.91a65.856,65.856,0,0,0,6.434-6.555C64.239,121.5,74,111.741,77.711,111.385l71.352-1.216s10.291,1.87,11.035-21.07a157.56,157.56,0,0,0-2.131-26.149Z" transform="translate(23.383 112.124)"/><path class="b" d="M26.881,160.989c.114,0,.221,0,.321,0,3.241-.069,9.778-7.558,16.761-15.893,1.437-1.717,2.575-3.073,3.225-3.761.4-.418,1.187-1.27,2.265-2.427,5.165-5.549,17.259-18.542,23.722-24.7a18.785,18.785,0,0,1,10.107-3.4c26.316-.489,68.692.733,72.3-2.482,4.39-3.911,11.229-20.861,4.779-43.585-.152-.536-.5-1-1.067-.948-.556.031-1.094.527-.948,1.067,5.815,21.515-.617,37.518-3.432,40.055-4.252,3.834-29.34,3.088-71.671,3.875a20.716,20.716,0,0,0-11.46,3.953c-6.507,6.2-18.629,19.221-23.806,24.782-1.074,1.153-1.861,2-2.256,2.415-.692.733-1.845,2.109-3.306,3.852-3.789,4.524-12.664,15.116-15.256,15.171-2.827.059-9.551-.773-11.724-3.747a3.94,3.94,0,0,1-.378-3.835c2.722-7.9,11.243-26.247,16.22-31.6a1.009,1.009,0,0,0-1.479-1.372c-5.348,5.756-13.941,24.459-16.65,32.318a5.9,5.9,0,0,0,.654,5.682C16.565,160.192,23.887,160.989,26.881,160.989Z" transform="translate(22.625 113.625)"/><path class="f" d="M83.6,27.553a19.759,19.759,0,0,0,3.355-.138,21.809,21.809,0,0,1,9.9,1.243c2.411,1.224-.156,2.9,1.028,5.039,6.4,11.591,14.561,36.413,12.889,55.863-2.283,26.566,1.522,36.813,1.522,36.813H40.208S42.045,57.745,44.69,37.44c.651-4.994,10.2-8.225,13.68-8.782l-.629.117c-.108,1,1.222,1.823,2.387,2.259C64.261,32.58,78.741,33,81.109,27.453Z" transform="translate(71.617 48.613)"/><path class="g" d="M77.709,29.8c.065-.259-2.306,19.884-8.83,21.4S53.44,59.384,61.05,62.5s9.271,9.033,4.675,14.252-9.786,16.7-4.132,18.976,16.962,7.422,17.4,10.964-7.159,7.249-10.312,6.489-7.737-.206-15.131,3.083,6.9,4.364-8.383,5.647h58.3s-4.073-22.152-1.751-33.932c0,0,.65-4.026-.11-25.754C100.514,30.964,77.709,29.8,77.709,29.8Z" transform="translate(80.447 53.072)"/><path class="b" d="M56.259,32.66a29.064,29.064,0,0,0,12.773-3.14,1.009,1.009,0,1,0-.883-1.814c-11.775,5.719-20.057,1.22-20.137,1.173a1.01,1.01,0,1,0-1,1.757,19.818,19.818,0,0,0,9.244,2.025Z" transform="translate(82.829 49.168)"/><path class="b" d="M58.72,77.779H81.935a1.01,1.01,0,0,0,.982-1.246A112.176,112.176,0,0,1,79.906,58.8l.175-2.66a1.01,1.01,0,0,0-2.015-.134L77.89,58.7a97.4,97.4,0,0,0,2.77,17.06H58.72a1.009,1.009,0,0,0,0,2.019Z" transform="translate(102.792 98.085)"/><path class="b" d="M86.671,86.018a1.009,1.009,0,1,0,0-2.019L41.9,83.964l1.08-32.384a1.01,1.01,0,0,0-2.019-.067L39.846,84.939a1.01,1.01,0,0,0,1.009,1.043Z" transform="translate(70.97 90.014)"/><path class="b" d="M41.614,70.523a1.021,1.021,0,0,0,1.008-1.069,176.049,176.049,0,0,1,.52-24.025c.816-8.276,2.038-13.464,12.1-15.743A1.006,1.006,0,0,0,56,28.48a.995.995,0,0,0-1.206-.761C42.587,30.481,41.846,37.98,41.131,45.232a178.129,178.129,0,0,0-.524,24.34,1.009,1.009,0,0,0,1.007.95Z" transform="translate(71.978 49.323)"/><path class="d" d="M26.018,73.9l58.541.944a2.422,2.422,0,0,0,2.39-3l-9.77-39.455A2.493,2.493,0,0,0,74.693,30.5L14.632,32.069c-1.193.031-1.143.956-.791,2.2l9.873,37.821a2.422,2.422,0,0,0,2.3,1.81Z" transform="translate(24.262 54.316)"/><path class="b" d="M85.193,76.5,26.652,75.56a3.444,3.444,0,0,1-3.265-2.565l-9.868-37.8a3.128,3.128,0,0,1,.112-2.736,1.964,1.964,0,0,1,1.627-.751l60.06-1.573a3.486,3.486,0,0,1,3.491,2.66L88.58,72.248a3.433,3.433,0,0,1-3.33,4.256ZM75.37,32.152,15.281,33.741a4.5,4.5,0,0,0,.185.924l9.873,37.819a1.421,1.421,0,0,0,1.345,1.057l58.541.945a1.607,1.607,0,0,0,1.128-.532,1.4,1.4,0,0,0,.268-1.22L76.848,33.276a1.488,1.488,0,0,0-1.439-1.124Z" transform="translate(23.612 53.67)"/><path class="h" d="M23.969,40.67A4.132,4.132,0,1,0,28.1,36.538a4.132,4.132,0,0,0-4.132,4.132Z" transform="translate(42.693 65.079)"/><path class="a" d="M133.2,45.388s2.935,40.766-13.378,43.449C104.866,91.3,71.55,74.373,59.31,63.065a18.557,18.557,0,0,0-7.4-4.117C44.814,56.862,31.7,51.916,28.559,43.2a1.394,1.394,0,0,1,1.149-1.864c4.853-.515,19.7-1.323,31.4,6.2,14.189,9.119,41.113,16.092,47.5,14.215S110.8,45.761,110.8,45.761Z" transform="translate(50.716 73.074)"/><path class="b" d="M117.527,88.495c7.582,0,9.975-3.712,12.185-8.818a42.314,42.314,0,0,0,4.146-21.246,1.009,1.009,0,0,0-2,.294,41.263,41.263,0,0,1-4,20.151c-2.647,6.117-4.731,10.951-25.285,4.715A130.778,130.778,0,0,1,66.047,65.253c-1.626-1.465-10.2-9.05-13.064-9.394-2.845-.341-19.751-6.139-22.619-13.169a1.009,1.009,0,1,0-1.869.761c3.416,8.377,21.917,14.133,24.248,14.411,1.638.2,8.016,5.35,12.019,8.946a132.94,132.94,0,0,0,37.225,18.716,56.212,56.212,0,0,0,15.54,2.971Z" transform="translate(50.62 74.918)"/><path class="b" d="M106.957,63.99a5.471,5.471,0,0,0,5.837-3.34,1.009,1.009,0,0,0-1.838-.832c-1.289,2.841-3.773,2.547-13.058.99L96.073,60.5A96.315,96.315,0,0,1,63.346,47.917a68.921,68.921,0,0,0-20.687-6.742c-9.745-1.871-13.928,1.045-14.1,1.171a1.01,1.01,0,0,0,1.175,1.642c.081-.057,3.819-2.51,12.55-.83a66.9,66.9,0,0,1,19.942,6.435,98.646,98.646,0,0,0,33.519,12.9l1.823.305a64.539,64.539,0,0,0,9.392,1.191Z" transform="translate(50.11 72.226)"/><path class="f" d="M90.449,79.125A3.174,3.174,0,0,1,86.8,82.339c-8.224-1.227-27.4-.9-28.973-2.371-2.515-2.355-2.928-52.8,4.8-52.67A25.207,25.207,0,0,1,86.781,46.043a164.876,164.876,0,0,1,3.667,33.082Z" transform="translate(100.11 48.621)"/><path class="b" d="M87.337,83.817c2.977,0,5.082-.487,5.971-2.3,1.1-2.255.5-8.288-.652-18.756-.3-2.7-.611-5.528-.885-8.363A32.711,32.711,0,0,0,76.833,30.161c-6.663-4.761-20.39-2.983-20.969-2.9a1.008,1.008,0,0,0,.268,2c.136-.018,13.514-1.749,19.526,2.547a30.815,30.815,0,0,1,14.1,22.787c.276,2.843.59,5.68.889,8.39.858,7.771,1.747,15.806.846,17.646-.749,1.528-4.692,1.238-9.253.9-1.554-.114-3.235-.237-5.011-.313a.985.985,0,0,0-1.053.966,1.013,1.013,0,0,0,.966,1.053c1.757.075,3.416.195,4.95.307C84.04,83.687,85.8,83.817,87.337,83.817Z" transform="translate(97.944 47.856)"/><path class="b" d="M71.75,68.345c.353,0,.7,0,1.029-.006a1.01,1.01,0,1,0-.012-2.019c-.26.022-.524,0-.785,0-7.359,0-13.218-1.139-13.265-2.141-.363-7.921-.978-23.952-.7-27.934A1.01,1.01,0,1,0,56,36.107c-.355,5.094.657,27.229.7,28.169C56.862,67.757,65.763,68.345,71.75,68.345Z" transform="translate(99.615 62.639)"/><path class="a" d="M17.226,42.436s2.031-4.951,7.663,0-2.9,9.3-5.069,9.942S12.884,44.458,17.226,42.436Z" transform="translate(27.537 71.665)"/><path class="b" d="M20.618,53.97a.992.992,0,0,0,.361-.067c.4-.152,9.685-3.781,7.546-9.53a1.01,1.01,0,1,0-1.893.706c1.21,3.253-4.2,5.973-5.888,6.73-1.274-.962-4.852-4-3.318-6.772A5.559,5.559,0,0,1,20.825,42a3.084,3.084,0,0,1,2.484.515,1.009,1.009,0,1,0,1.2-1.625A5.084,5.084,0,0,0,20.4,40.03a7.318,7.318,0,0,0-4.735,4.03c-2.746,4.958,4.11,9.551,4.4,9.745a1.026,1.026,0,0,0,.556.165Z" transform="translate(26.74 71.082)"/></svg>