<svg xmlns="http://www.w3.org/2000/svg" width="187.249" height="208.197" viewBox="0 0 187.249 208.197"><defs><style>.a{fill:#fff3c8;}.b{fill:#dec48c;}.c{fill:#79ccaa;}.d{fill:#55b78d;}.e,.l{fill:#3e4496;}.f{fill:#3d5d91;}.g{fill:#254470;}.h{fill:#ffc730;}.i{fill:#db971f;}.j{fill:#ffe48f;}.k{fill:#457ed1;}.l{opacity:0.5;}</style></defs><path class="a" d="M117.711,60.955c-4.723-.9-9.531-3.572-14.3-4.191-1.509-.2-2.043.575-3.825.614a15.57,15.57,0,0,1-1.673-1.585,31.528,31.528,0,0,1-5.289-14.442c-.168-1.655-.177-2.925.152-3.108,3.761-2.1,5.137-7.957,5.137-7.957s0-9.971,5.439-7.252,22.438,4.532,22.438,4.532,2.24,14.613.014,21.85c-2.216,7.2-4.744,8.929-7.19,9.582C118.356,59.066,117.93,60.831,117.711,60.955Z" transform="translate(-17.332 -4.228)"/><path class="a" d="M100.07,62.722c6.25.176,13.005,1.94,19.124,3.11-.051,3.41.175,14.057.341,16.344.145,2-.425,2.391-.341,3.159L95.59,93.1S99.616,75.619,100.07,62.722Z" transform="translate(-17.909 -11.751)"/><path class="b" d="M115.029,30.211a1.439,1.439,0,0,1-.916,2.251c-3.8.669-10.9,2.352-9.337,5.389,2.115,4.1,4.7,7.118,2.431,9.082-1.873,1.624-4.725,4.287-2.669,6.8,3.017,3.686.723,11.755-1.393,13.577s-1.36,7.563,3.324,8.168,6.26,2.489,6.26,2.489S100.084,79.583,97.36,73.2a1.562,1.562,0,0,1-.1-1.005,118.57,118.57,0,0,0,1.892-14.479c.033-.415.075-.82-.232-1.1-1.4-1.282-5.52-5.942-7.38-17.679-.785-4.953,11.2-14.918,15.089-18.008a1.439,1.439,0,0,1,2.073.3Z" transform="translate(-17.143 -3.864)"/><path class="c" d="M89.451,84.838a20.649,20.649,0,0,1-3.745.056c-2.053-.333-7.167.875-10.429,1.721-2.584.67-1.688,4.71-2.785,7.27-5.93,13.842-9.759,41.776-8.211,65,2.115,31.726-1.41,43.964-1.41,43.964h69.776s5.022-85.566,2.572-109.815c-.6-5.964-21.813-6.741-21.813-6.741.1,1.194-1.131,2.178-2.211,2.7-3.829,1.846-17.241,2.348-19.436-4.276Z" transform="translate(-11.779 -15.873)"/><path class="d" d="M86.118,85.016c-.06-.309-1.135,22.728,16.667,25.634,6.227,1.017,5.608,9.281-1.443,13.006s-8.588,10.788-4.331,17.02,11.887,14.295,3.827,22.662c-4.094,4.25-11.758,4.235-12.16,8.466s2.661,9.324,5.6,12.377c2.12,2.2,7.167-.246,14.016,3.682s-5.8,11.715,8.357,13.246l-52.771-6.285s1.947-26.672-.2-40.74c0,0,7.408-6.045-.3-30.831C50.924,83.222,86.118,85.016,86.118,85.016Z" transform="translate(-11.374 -15.926)"/><path class="e" d="M65.241,200.309h.036a.68.68,0,0,0,.643-.715l-.069-1.314a.663.663,0,0,0-.715-.643.681.681,0,0,0-.643.715l.069,1.314A.68.68,0,0,0,65.241,200.309Z" transform="translate(-12.083 -37.028)"/><path class="e" d="M110.653,90.916c.34,0,.687-.005,1.044-.016,8.193-.247,8.944-4.275,8.972-4.447a.68.68,0,1,0-1.341-.228c-.015.069-.747,3.106-7.671,3.314-7.311.235-11.149-2.029-12.314-4.208a.68.68,0,1,0-1.2.643C98.779,87.161,101.523,90.916,110.653,90.916Z" transform="translate(-18.373 -15.92)"/><path class="f" d="M133.47,203.177c6.947-2.46,18.915-5.589,26.258-6.21,9.687-.82,21.115.956,26.072,12.151,6.631,14.977-50.282,34.556-70.5,34.124s-42.925-32.78-42.925-32.78S107.615,212.333,133.47,203.177Z" transform="translate(-13.56 -36.87)"/><path class="g" d="M199.535,205.38a.68.68,0,0,0,.484-1.159c-4.067-4.114-11.316-8.471-19.522-8.257-7.667.175-20.332,3.214-20.868,3.342a.681.681,0,0,0,.319,1.324c.13-.032,13.06-3.134,20.581-3.305,7.8-.207,14.83,4.12,18.522,7.853a.679.679,0,0,0,.484.2Z" transform="translate(-29.81 -36.714)"/><path class="g" d="M199.635,227.259c1.752,0,9.73-7.207,10.754-10.285a8.373,8.373,0,0,0-1.257-7.815.681.681,0,1,0-1.041.879,7,7,0,0,1,1.006,6.505c-.994,2.988-8.472,9.117-9.482,9.364a.617.617,0,0,0-.7.585.73.73,0,0,0,.649.763.594.594,0,0,0,.072,0Z" transform="translate(-37.268 -39.142)"/><path class="g" d="M191.628,216.848a48.359,48.359,0,0,1-24.352,7.818c-5.737.141-11.6-2.57-13.623,1.437s-15.057-1.211-20.28-2.515-28.568-7.341-31.147-7.272c0,0,39.193,19.294,41.064,21.562,1.741,2.111,29.888-7.815,34.022-9.3.339-.122,3.906-.444,4.224-.612C183.6,226.873,189.911,221.927,191.628,216.848Z" transform="translate(-19.153 -40.528)"/><path class="h" d="M17.235,231.921c-6.5,5.417-5.669,9.692-3.687,14.1h0a7.47,7.47,0,0,0,6.812,4.405H48.83l2.775-4.805-1.989-5.808c-.8-1.2-2.657-3.659-3.941-4.3C40.26,232.787,22.9,227.2,17.235,231.921Z" transform="translate(-2.27 -43.108)"/><path class="a" d="M46.738,252.573l18.549.754L42.455,244.5S40.7,252.062,46.738,252.573Z" transform="translate(-7.91 -45.809)"/><path class="i" d="M43.633,252.75a.68.68,0,0,0,.427-1.211c-.855-.687-1.262-3.327-1.319-4.83a.681.681,0,1,0-1.361.05c.017.461.213,4.543,1.826,5.84a.679.679,0,0,0,.427.15Z" transform="translate(-7.753 -46.1)"/><path class="i" d="M15.425,250.183a.681.681,0,0,0,.5-1.147,14.822,14.822,0,0,1-2.774-4.768c-1.414-4.079,1.923-8.58,1.958-8.625a.68.68,0,1,0-1.086-.82c-.157.207-3.811,5.121-2.158,9.892a15.955,15.955,0,0,0,3.069,5.255A.679.679,0,0,0,15.425,250.183Z" transform="translate(-2.142 -43.945)"/><path class="h" d="M195.333,232.683c4.309,3.629,5.611,9.543,3.629,13.948l-.031-.745a7.47,7.47,0,0,1-6.812,4.405H163.649l-2.775-4.805L162.067,242a14.491,14.491,0,0,1,3.321-5.493,5.974,5.974,0,0,1,1.416-1.135C172.219,232.655,189.688,227.93,195.333,232.683Z" transform="translate(-30.141 -43.214)"/><path class="a" d="M166.811,239.842a4.262,4.262,0,0,1,4.028,3.635,18.728,18.728,0,0,1,.056,5.188,4,4,0,0,1-1.078,1.786,4.748,4.748,0,0,1-2.4.856H156.646V241.09Z" transform="translate(-29.349 -44.936)"/><path class="f" d="M131.668,234.707c0-1.353-.507-4.307-1.685-4.729-10.216-3.661-56.374-21.43-61.854-23.955-15.81-7.287-48.363-9.95-54.309,2.6s-6.343,14.276,0,18.6c4.5,3.07,23.972,10.714,34.9,14.9a43.055,43.055,0,0,0,15.393,2.842h65.969a1.959,1.959,0,0,0,1.868-2.039Z" transform="translate(-1.726 -37.449)"/><path class="i" d="M197.816,248.945a.687.687,0,0,0,.307-.073c1.744-.88,2.589-3.316,2.51-7.239a11.351,11.351,0,0,0-6.515-10.257c-5.129-2.266-11.324-1.083-16.307-.134l-1.195.226a26.12,26.12,0,0,0-11.713,5.258.681.681,0,0,0,.9,1.023,25.237,25.237,0,0,1,11.064-4.944l1.2-.227c4.8-.914,10.761-2.053,15.5.042a9.99,9.99,0,0,1,5.7,9.04c.065,3.261-.561,5.39-1.764,6a.68.68,0,0,0,.307,1.288Z" transform="translate(-30.852 -43.105)"/><path class="j" d="M163.306,251.876a38.069,38.069,0,0,0,8.454-1.354c.508-.146.848-.646,1.009-1.486.416-2.176-.31-7.517-2.7-9.363-2.8-2.166-9.423-.33-10.17-.116a.681.681,0,0,0,.38,1.308c1.845-.537,7.05-1.6,8.956-.116,1.311,1.014,2.012,3.644,2.215,5.59a5.66,5.66,0,0,1-.188,2.938c-1.476.395-6.646,1.6-9.437,1.131a.681.681,0,1,0-.226,1.342A10.337,10.337,0,0,0,163.306,251.876Z" transform="translate(-29.867 -44.708)"/><path class="g" d="M149.8,246.826h.035a.679.679,0,0,0,.644-.714l-.247-4.924c.8-7.445-3.9-9.243-4.1-9.316l-40.744-14.729a.681.681,0,1,0-.463,1.281l40.743,14.728c.154.059,3.9,1.554,3.211,8l.244,5.03a.68.68,0,0,0,.679.646Z" transform="translate(-19.574 -40.675)"/><path class="g" d="M53,244.346a.68.68,0,0,0,.254-1.311c-.328-.133-32.983-13.3-39.327-16.573-4.96-2.557-4.6-4.833-4.347-6.5a6.329,6.329,0,0,0,.105-1.009c-.011-.922,1.126-3.21,2.441-5.86.655-1.321,1.382-2.784,2.106-4.348,2.31-4.989,9.983-6.912,15.554-7.923,8.438-1.536,25.929,1.765,26.1,1.8a.68.68,0,1,0,.255-1.337c-.726-.14-17.9-3.382-26.6-1.8-5.869,1.067-13.969,3.128-16.546,8.691-.718,1.552-1.439,3-2.089,4.315-1.508,3.037-2.6,5.23-2.583,6.48a5.193,5.193,0,0,1-.088.783c-.286,1.837-.764,4.909,5.066,7.915,6.4,3.3,38.1,16.083,39.444,16.625a.68.68,0,0,0,.254.049Z" transform="translate(-1.514 -37.294)"/><path class="a" d="M151.531,146.148s.833,26.878-7.109,38.051c-7.372,10.371-32.99,14.45-41.217,16.838-5.842,1.7-11.644.908-19.284,5.31-6.127,3.53-37.932-3.63-20.3-11.917s17.877-2.66,20.3-3.02a87.911,87.911,0,0,0,25.486-9.712c4.374-2.524,10.181-4.179,13.5-7.258,5.089-4.728,7.547-13.491,8.156-21,.22-2.708.442-7.293.442-7.293S153.153,140.743,151.531,146.148Z" transform="translate(-10.934 -26.932)"/><path class="e" d="M80.945,209.749a16.093,16.093,0,0,0,2.891-.214,12.679,12.679,0,0,0,5.023-1.919,13.49,13.49,0,0,1,2.684-1.34,113.612,113.612,0,0,1,11.562-2.713c.157-.035,12.826-2.99,28.965-7.639,12.623-3.636,14.632-9.03,16.245-13.366.229-.613.449-1.207.7-1.774,2.945-6.812,4.121-24.714,4.17-25.473a.681.681,0,0,0-.635-.723.7.7,0,0,0-.723.635c-.012.183-1.211,18.425-4.061,25.021-.254.587-.484,1.2-.72,1.839-1.587,4.259-3.384,9.086-15.348,12.532-16.1,4.64-28.739,7.586-28.866,7.615A111.449,111.449,0,0,0,91.077,205a14.8,14.8,0,0,0-2.93,1.458A11.383,11.383,0,0,1,83.58,208.2c-4.186.8-16.171-1.152-18.684-2.471a.68.68,0,1,0-.633,1.2C66.576,208.146,75.394,209.749,80.945,209.749Z" transform="translate(-11.972 -28.963)"/><path class="e" d="M60.684,205.38a.681.681,0,0,0,.269-1.306c-.536-.23-1.987-1.063-2.281-2.14a1.908,1.908,0,0,1,.437-1.665c2.025-2.76,8.553-5.565,12.328-6.59l.776-.214c3.074-.86,4.929-1.377,11.322.395a.682.682,0,0,0,.319.012,103.8,103.8,0,0,0,26.5-10.236c.464-.22,12.358-5.923,15.537-10.128,3.417-4.519,5.008-17.15,5.18-19.451a.681.681,0,0,0-.629-.73.689.689,0,0,0-.73.629c-.259,3.481-1.972,14.85-4.907,18.731-2.981,3.942-14.959,9.684-15.079,9.741A102.986,102.986,0,0,1,83.737,192.5c-6.626-1.818-8.726-1.231-11.889-.351l-.767.213c-3.2.87-10.612,3.75-13.069,7.1a3.217,3.217,0,0,0-.651,2.833c.53,1.932,2.954,2.985,3.057,3.029A.685.685,0,0,0,60.684,205.38Z" transform="translate(-10.729 -28.726)"/><path class="a" d="M82.343,159.611a3.771,3.771,0,0,1-5.232-3.637c.3-7.157-2.443-18.618-3.354-21.351-1.344-4.033-17.866,3.192-17.866,3.192s-2.644,49.2,9.841,47.1c24.735-4.162,39.053-23.185,43.982-29.011L101.9,150.6S93.556,154.827,82.343,159.611Z" transform="translate(-10.428 -24.993)"/><path class="c" d="M47.349,130.449a7.247,7.247,0,0,0,7.9,7.252c8.495-.752,20.951,1.01,23.873-1.86,2.278-2.236,2.712-48.91-4.449-48.789S55.595,91.4,52.308,104.416C49.566,115.278,47.388,124.073,47.349,130.449Z" transform="translate(-8.871 -16.31)"/><path class="c" d="M168.956,137.971a2.94,2.94,0,0,1-3.377,2.978c-7.618-1.136-25.384-.836-26.838-2.2-2.33-2.181-2.712-48.91,4.449-48.789s19.082,4.345,22.368,17.364C168.236,117.931,168.82,131.635,168.956,137.971Z" transform="translate(-25.712 -16.855)"/><rect class="k" width="19.748" height="33.542" rx="2.96" transform="translate(113.802 131.232) rotate(180)"/><path class="a" d="M114.9,159.555s17.241-10.6,19.588-15.935c2.092-4.752,4-7.4.339-9.011-5.41-2.38-13.983,7.326-17.022,7.72s-.369-7.073-3.561-5.934c-1.576.562-1.651,4.023-1.529,7.03a78.85,78.85,0,0,1-.725,10.118Z" transform="translate(-20.982 -25.15)"/><path class="e" d="M115.568,132.154a.68.68,0,0,0,.68-.68v-6a4.8,4.8,0,0,1,.678-3.273,3.957,3.957,0,0,1,2.768-1.473l11.508.007c.489.133,3.434,1.034,3.434,3.348v5.474a.68.68,0,1,0,1.361,0v-5.474c0-3.594-4.368-4.648-4.554-4.691a.672.672,0,0,0-.154-.017H119.6a5.3,5.3,0,0,0-3.778,2.037,6,6,0,0,0-.92,4.18l-.01,5.882a.68.68,0,0,0,.68.68Z" transform="translate(-21.515 -22.365)"/><path class="e" d="M125.04,159.7h8.033c3.034,0,4.4-3,4.7-4.582l.012-6.112a.68.68,0,0,0-1.361,0V155c-.016.014-.687,3.346-3.348,3.346H125.04a.68.68,0,1,0,0,1.361Z" transform="translate(-23.3 -27.79)"/><path class="e" d="M65.052,185.129c6.232,0,15.232-3.833,21.385-7.331a83.5,83.5,0,0,0,23.6-20.316c1.122-.848,12.791-9.753,14.726-14.5.185-.452.369-.888.546-1.308,1-2.367,1.794-4.237,1.179-5.752a3.353,3.353,0,0,0-1.966-1.781,6.39,6.39,0,0,0-4.706-.005,27.268,27.268,0,0,0-4.652,2.08.68.68,0,1,0,.763,1.127,25.142,25.142,0,0,1,4.361-1.931A5.056,5.056,0,0,1,124,135.4a2.085,2.085,0,0,1,1.231,1.039c.4.991-.326,2.714-1.171,4.709-.179.425-.365.866-.553,1.325-1.848,4.532-14.229,13.881-14.354,13.976a.682.682,0,0,0-.122.12,82.148,82.148,0,0,1-23.263,20.049c-8.38,4.763-17.21,7.611-21.989,7.086-2.394-.263-4.659-5.145-6.217-13.392-.763-4.042-1.372-22.091-1.377-22.272a.682.682,0,0,0-.68-.658h-.023a.681.681,0,0,0-.658.7c.025.747.618,18.336,1.4,22.48,1.749,9.268,4.241,14.144,7.405,14.492a12.994,12.994,0,0,0,1.426.074Z" transform="translate(-10.271 -25.048)"/><path class="e" d="M85.151,161.027a8.82,8.82,0,0,0,3.117-.651l6.054-2.666c.474-.223,11.271-5.3,12.562-5.943,1.175-.585,1.153-3.04.834-8.111-.089-1.414-.173-2.75-.149-3.623a2.27,2.27,0,0,1,1.062-2.186.839.839,0,0,1,.769,0,11.618,11.618,0,0,1,.545,2.6c.254,1.748.376,2.469.875,2.764.928.553,3.467-.68,7.523-3.691a.68.68,0,0,0-.811-1.092c-2.237,1.66-5.017,3.389-5.938,3.564-.106-.387-.222-1.181-.3-1.741-.26-1.8-.448-2.928-.973-3.409a2.12,2.12,0,0,0-2.221-.245c-.548.232-1.826,1.031-1.89,3.4-.025.934.061,2.3.151,3.745.138,2.188.394,6.261-.13,6.84-1.229.6-12.358,5.837-12.471,5.89l-6.034,2.656c-.684.294-2.751.909-4.007.23a2.35,2.35,0,0,1-1.134-1.809A44.49,44.49,0,0,1,82,149.837c0-.609-.009-1.034-.036-1.221a.69.69,0,0,0-.771-.577.681.681,0,0,0-.577.771c.023.158.02.517.023,1.033a45.781,45.781,0,0,0,.6,7.946,3.672,3.672,0,0,0,1.83,2.769,4.354,4.354,0,0,0,2.077.469Z" transform="translate(-15.103 -25.553)"/><path class="e" d="M48.737,120.264a.68.68,0,0,0,.669-.56c.028-.154,2.827-15.511,5.9-21.284,3.307-6.209,10.722-9.168,16.813-11.052a58.683,58.683,0,0,1,15.814-2.063h.014a.681.681,0,1,0,.015-1.361A58.681,58.681,0,0,0,71.718,86.07c-6.341,1.96-14.074,5.063-17.613,11.711-3.174,5.962-5.923,21.043-6.039,21.682a.681.681,0,0,0,.549.791A.765.765,0,0,0,48.737,120.264Z" transform="translate(-9.003 -15.727)"/><path class="e" d="M60.355,143.89c6.468,0,14.146-.031,14.261-.031a4.693,4.693,0,0,0,3.393-1.114c1.689-1.394,2.618-3.891,2.76-7.422.351-8.728.364-14.647.262-17.276a.638.638,0,0,0-.707-.654.682.682,0,0,0-.654.707c.1,2.6.088,8.479-.262,17.167-.123,3.085-.906,5.307-2.264,6.428a3.428,3.428,0,0,1-2.428.811c-.183,0-7.733.023-14.167.023-3.334,0-6.366-.007-7.91-.031-3.721-.056-4.659-5.687-4.762-6.38l.719-7.282a.682.682,0,0,0-.611-.744.7.7,0,0,0-.744.611l-.726,7.361a.679.679,0,0,0,0,.149c.037.31.982,7.569,6.1,7.645C54.139,143.883,57.093,143.89,60.355,143.89Z" transform="translate(-8.714 -21.994)"/><path class="e" d="M166.282,125.24a.681.681,0,0,0,.68-.67c.008-.584.147-14.381-5.34-24.436-5.574-10.22-19.095-11.473-19.668-11.521-5.513-1.326-14.629-2.383-14.721-2.393a.7.7,0,0,0-.754.6.683.683,0,0,0,.6.753c.09.009,9.126,1.057,14.66,2.38.234.028,13.469,1.264,18.69,10.833,5.313,9.736,5.175,23.625,5.172,23.765a.681.681,0,0,0,.671.69Z" transform="translate(-23.696 -16.153)"/><path class="e" d="M164.833,150.3q.4,0,.75-.008c2.266-.059,3.812-.625,4.6-1.682a2.659,2.659,0,0,0,.484-2.1l-.441-9.829a.635.635,0,0,0-.71-.649.678.678,0,0,0-.648.71l.444,9.89a.594.594,0,0,0,.024.152,1.318,1.318,0,0,1-.261,1.037c-.364.476-1.272,1.055-3.522,1.112-5.226.147-20.906-1.349-22.063-1.478a.681.681,0,0,0-.151,1.353C144.447,148.931,158.921,150.3,164.833,150.3Z" transform="translate(-26.741 -25.486)"/><path class="e" d="M130.89,23.428s8.513-18.3-3.875-21.313-8.243,5.091-12.473,7.508-5.717.846-11.458.242S93.2,12.222,91.466,17.858s1.631,5.607-2.112,7.687c-2.279,1.267-3.458,6.508-1.177,12.2.935,2.334,1.655,3.787,2.472,4.513l2.7,3.2c.557-2.48,1.27-1.53.624-3.989-1.01-3.848-2.506-2.111,1.944-8.839,1.189-1.8,4.741-5.249,5.829-4.977,3.626.906,4.932,2.919,10.069,3.508S126.689,34.306,130.89,23.428Z" transform="translate(-16.29 -0.272)"/><path class="e" d="M133.345,48.229s3.478-12.188,2.207-17.728c-1.09-4.75-2.725-2.543-2.725-2.543l-2.013,6.788C135.322,34.481,133.082,47.252,133.345,48.229Z" transform="translate(-24.509 -5.142)"/><path class="l" d="M107.722,35.738s-2.582-1.88-5.19-4.235c-2.12-1.914-4.1,1.551-6.742,1.129-7.027-1.124-8.471,2.16-8.857,4.542s1.174,6.093,1.174,6.093a23.2,23.2,0,0,0,2.472,4.513c1.311,1.556,2.755,3.2,2.755,3.2A7.245,7.245,0,0,1,94,49.17c.767-1.353-1.064-4.363-1.176-5.292a5.615,5.615,0,0,1,1.212-2.922,34.772,34.772,0,0,1,2.573-3.727c1.3-1.5,4.118-4.239,5.063-4.053A35.527,35.527,0,0,1,107.722,35.738Z" transform="translate(-16.276 -5.793)"/><path class="e" d="M124.355,81.684a.6.6,0,0,0,.07,0,.679.679,0,0,0,.607-.745c-.427-4.188-.827-11.335-.081-12.687a8.924,8.924,0,0,1,2.452-2.1.68.68,0,1,0-.718-1.156,10.213,10.213,0,0,0-2.925,2.6c-1.171,2.12-.274,11.6-.081,13.481A.68.68,0,0,0,124.355,81.684Z" transform="translate(-23.077 -12.157)"/><path class="e" d="M129.39,62.5a.679.679,0,0,0,.493-.211c1.394-1.462,3.723-6.47,3.748-9.417a.681.681,0,0,0-.675-.686h-.005a.68.68,0,0,0-.68.675c-.021,2.477-2.178,7.237-3.373,8.489a.681.681,0,0,0,.493,1.15Z" transform="translate(-24.114 -9.777)"/><path class="e" d="M97.972,78.75a.677.677,0,0,0,.586-.336c.878-1.494,1.3-8.159,1.506-13.488A5.547,5.547,0,0,0,99,61.459a55.975,55.975,0,0,1-3.43-5.591.681.681,0,1,0-1.2.635A56.487,56.487,0,0,0,97.9,62.25a4.2,4.2,0,0,1,.807,2.625c-.265,6.993-.769,11.917-1.317,12.85a.678.678,0,0,0,.242.93.671.671,0,0,0,.344.094Z" transform="translate(-17.666 -10.399)"/><path class="e" d="M131.591,40.774a.682.682,0,0,0,.662-.521c.08-.331,1.919-7.985,1.748-11.447.837-1.209,4.972-7.394,5.523-12.469l.109-.965c.6-5.179,1.417-12.273-8.01-14.85-7.821-2.141-9.194,2.807-9.93,5.465a5.2,5.2,0,0,1-.57,1.558,14.03,14.03,0,0,1-3.36,2.174.681.681,0,0,0,.558,1.241,15.235,15.235,0,0,0,3.75-2.44A4.891,4.891,0,0,0,123,6.351c.778-2.805,1.742-6.3,8.26-4.514,8.3,2.269,7.618,8.172,7.017,13.38l-.11.976c-.562,5.174-5.371,11.957-5.42,12.025a.687.687,0,0,0-.123.453c.262,3.106-1.679,11.183-1.7,11.265a.682.682,0,0,0,.5.821.737.737,0,0,0,.159.019Z" transform="translate(-21.988 0)"/><path class="e" d="M92.334,46.873a.68.68,0,0,0,.549-1.083,49.764,49.764,0,0,1-4.464-7.28c-1.215-2.864-.852-9.412.562-10.155,1.991-1.046,2.764-2.218,2.667-4.048-.073-1.386-.108-2.031.8-5.736.849-3.473,5.01-5.531,7.336-6.2,1.718-.5,7.441.518,9.5.95a.68.68,0,0,0,.279-1.332c-.791-.166-7.792-1.608-10.156-.926-.717.206-7.053,2.163-8.28,7.183-.954,3.9-.914,4.657-.841,6.03.062,1.208-.229,1.978-1.936,2.875-2.483,1.3-2.379,9.069-1.181,11.89A50.04,50.04,0,0,0,91.785,46.6.68.68,0,0,0,92.334,46.873Z" transform="translate(-16.178 -2.039)"/><path class="e" d="M95.178,50.261a.618.618,0,0,0,.086-.005.681.681,0,0,0,.59-.76c-.1-.755-.606-4.568-1.285-5.584-.1-.147-.11-.7.464-1.825,1.733-3.406,6.157-7.577,7.083-7.612a15.983,15.983,0,0,1,3.976,1.179c2.82,1.018,6.329,2.285,9.473,2.471l.985.06c4.047.246,6.727.409,8.541-.4a28.556,28.556,0,0,1,.821,5.913.679.679,0,0,0,.642.716.651.651,0,0,0,.716-.642,34.743,34.743,0,0,0-1.065-7.2.678.678,0,0,0-.436-.478.671.671,0,0,0-.639.1c-1.385,1.061-4.062.9-8.5.631l-.987-.06c-2.948-.174-6.354-1.4-9.09-2.392a16.567,16.567,0,0,0-4.486-1.26c-1.873.064-6.58,5.1-8.237,8.33-.744,1.454-.874,2.508-.4,3.224a21.579,21.579,0,0,1,1.067,5A.681.681,0,0,0,95.178,50.261Z" transform="translate(-17.453 -6.204)"/><path class="e" d="M.68,255.883H186.568a.68.68,0,1,0,0-1.361H.68a.68.68,0,1,0,0,1.361Z" transform="translate(0 -47.686)"/></svg>