<svg xmlns="http://www.w3.org/2000/svg" width="163.861" height="392.792" viewBox="0 0 163.861 392.792"><defs><style>.a{fill:#fff5bd;}.b{fill:#3e4496;}.c{fill:#9e0473;}.d{fill:#e20080;}.e,.h{fill:#457ed1;}.e{opacity:0.5;}.f{fill:#faed94;}.g{fill:#4c322d;}.i{fill:#fff3c8;}.j{fill:#dec48c;}.k{fill:#62433b;}</style></defs><path class="a" d="M188.788,413.3s2.52,18.616,2.926,25.109c.046.736-11.251,4.678-11.148,5.263.81,4.576,15.382,4.4,23.439,4.433,3.509.013,2.045-4.2,1.083-11.734-1.277-10.008-1.8-24.136-1.8-24.136Z" transform="translate(-73.576 -63.359)"/><path class="b" d="M209.529,448.266l-1.156,10.1H203.4l-.511-6.666Z" transform="translate(-75.756 -66.877)"/><path class="b" d="M203.877,438.985s6.171,5.849,1.149,10.313-6.583,1.583-13.116,4.481c-5.033,2.232-1.495,3.2-11.54,3.636-9.94.432-12.49.28-12.186-5,.179-3.1,16.485-8.6,16.485-8.6s-8.727,3.041-2.537,3.551C185.008,447.6,199.277,443.891,203.877,438.985Z" transform="translate(-72.365 -65.97)"/><path class="b" d="M186.345,443.6a1.012,1.012,0,0,1-.2-2c2.2-.443,4.772-1.429,5.1-2.2.184-.822-.542-6.656-1.362-11.782a1.013,1.013,0,1,1,2-.32c.838,5.237,1.73,11.728,1.22,12.907-.907,2.093-5.252,3.113-6.563,3.376a1,1,0,0,1-.2.02Z" transform="translate(-74.041 -64.746)"/><path class="b" d="M207.125,435.316a1.012,1.012,0,0,1-1.006-.923s-.65-7.447-.668-7.631a1.026,1.026,0,0,1,.233-.747,1.011,1.011,0,0,1,.692-.36c1.03-.083,1.006-.067,1.759,8.56a1.013,1.013,0,0,1-.919,1.1C207.185,435.314,207.155,435.316,207.125,435.316Z" transform="translate(-76.005 -64.668)"/><path class="b" d="M173.755,458.617a13.5,13.5,0,0,1-5.527-.836,2.413,2.413,0,0,1-1.425-1.708c-.053-.279-.115-.548-.176-.813-.97-4.183.18-6.674,14.854-11.418a1.012,1.012,0,0,1,.787,1.856l-.217.121c3.912-.293,12.851-1.769,16.667-4.646,5.055-3.815,5.059-3.821,5.762-3.023a.813.813,0,0,1,.095.125,9.007,9.007,0,0,1,2.378,9.888l-1.048,8.5a1.012,1.012,0,0,1-1,.888h-5.126a1.013,1.013,0,0,1-1.01-.935l-.259-3.4a71.4,71.4,0,0,0-9.123,3.023C187.551,457.118,179.636,458.617,173.755,458.617Zm4.987-11.718c-11.074,3.89-10.659,5.683-10.145,7.905.067.29.137.589.194.9,0,.022.077.132.354.273,3.165,1.613,16.6-.234,19.359-1.56a84.594,84.594,0,0,1,10.661-3.469.979.979,0,0,1,.842.154,1.007,1.007,0,0,1,.421.747l.282,3.679H204l.955-7.733a1.013,1.013,0,0,1,.063-.247,6.917,6.917,0,0,0-1.469-7.423c-.548.384-1.6,1.147-3.62,2.669-5.207,3.924-18.372,5.49-20.156,5.007a1.382,1.382,0,0,1-1.036-.9Z" transform="translate(-72.19 -65.848)"/><path class="c" d="M201.938,276.375c-10.048,4.187-19.991,7.559-26.607,16.308-.535,6.091-6.215,7.4-3.076,24.556,2.085,11.4,4.771,28.837,5.549,35.468.771,6.571,1.579,24.527,3.995,39.849a107.78,107.78,0,0,0,2.889,13.521c1.3,4.372,5.428,4.274,9.989,4.274,9.968,0,14.423-1.389,13.561-15.94-1.781-30.062-2.915-50.629-2.915-67.367,0-41.121,4.649-36.652,9.105-52.479C215.21,271.789,209.713,273.135,201.938,276.375Z" transform="translate(-72.673 -49.771)"/><path class="c" d="M181.514,392.272c1.182,3.326,3.227,10.685,5.588,13.047s6.219,7.422,11.038,1.687a38.068,38.068,0,0,0,8.262-15.182c1.85-5.805,1.124-12.971,1.124-12.971s.847,9.386,1.422,18.58c.373,5.972.983,11.36-.028,15.759-.616,2.678-1.768,4.812-4.261,5.967a17.512,17.512,0,0,1-2.451.692,16.835,16.835,0,0,1-4.151.784c-6.942.239-9.6-.338-11.433-2.807a9.382,9.382,0,0,1-1.268-3.262c-.679-2.394-1.611-6.736-2.295-10.943C182.117,397.829,181.514,392.272,181.514,392.272Z" transform="translate(-73.668 -60.099)"/><path class="b" d="M191.688,416.663c-9-.858-9.623-8.477-10.08-14.041-.113-1.38-.219-2.683-.427-3.8-1.087-5.845-8.411-67.291-8.722-69.9a1.011,1.011,0,0,1,2.009-.241c.077.64,7.629,63.993,8.7,69.772.227,1.218.338,2.572.455,4.005.464,5.652.943,11.5,8.158,12.185a1.013,1.013,0,0,1-.095,2.021Z" transform="translate(-72.784 -55.114)"/><path class="b" d="M201.392,411.952a12.236,12.236,0,0,1-2.208-.182,1.011,1.011,0,1,1,.39-1.984c.043.006,4.594.85,7.6-1.732,1.995-1.71,2.931-4.582,2.781-8.534-.223-5.958-.842-17.094-1.439-27.863-.779-14.037-1.583-28.551-1.567-32.432l0-.611c.032-8.176.128-33.052,1.417-39.485a120.263,120.263,0,0,1,5.256-16.894,1.012,1.012,0,0,1,1.878.755,117.82,117.82,0,0,0-5.15,16.534c-.828,4.141-1.293,17.3-1.378,39.1l0,.611c-.016,3.819.789,18.305,1.566,32.311.6,10.777,1.216,21.923,1.441,27.9.174,4.608-1,8.026-3.5,10.157A10.891,10.891,0,0,1,201.392,411.952Z" transform="translate(-75.314 -50.604)"/><path class="a" d="M155.758,417.311s2.6,13.866,3.011,20.359c0,0-16.047,6.745-14.209,7.725,4.1,2.187,18.772.858,26.828.888,4.084.015.241-9.369-1.511-16.658-2.214-9.207-2.214-12.285-2.214-12.285Z" transform="translate(-70.046 -63.854)"/><path class="b" d="M176.817,448.434l-1.871,10.153h-4.767v-6.715Z" transform="translate(-72.562 -66.893)"/><path class="b" d="M171.024,439.153s6.171,5.849,1.149,10.313-7.077,1.174-13.61,4.072c-5.033,2.232-2.529,4.093-11.046,4.046-9.95-.056-14-.436-13.7-5.72.179-3.1,18.3-9.585,18.3-9.585s-8.364,3.381-2.954,3.937c1.639.168,7.031-.558,12.213-2.125C165.273,442.912,169.049,441.258,171.024,439.153Z" transform="translate(-69.01 -65.987)"/><path class="b" d="M156.044,441.33a1.012,1.012,0,0,1-.425-1.931c3.414-1.58,2.916-3.92,2.847-4.181l-.9-6.393a1.012,1.012,0,0,1,.862-1.143,1.024,1.024,0,0,1,1.142.862l.878,6.265c.387,1.309.1,4.542-3.975,6.428a1.018,1.018,0,0,1-.425.093Z" transform="translate(-71.083 -64.866)"/><path class="b" d="M173.294,434.738a1.014,1.014,0,0,1-.982-.769l-1.556-6.272a1.012,1.012,0,1,1,1.965-.487l1.556,6.273a1.011,1.011,0,0,1-.739,1.225A1.025,1.025,0,0,1,173.294,434.738Z" transform="translate(-72.615 -64.746)"/><path class="b" d="M171.254,458.583a.884.884,0,0,1-.1-.006l-6.565-.674a1.01,1.01,0,0,1-.91-1.006v-3.289a76.694,76.694,0,0,0-8.761,3.406,1.042,1.042,0,0,1-.362.091c-1.613.1-15.882.963-19.211-.041-3.161-.949-3.177-2.289-2.857-4.08a11.031,11.031,0,0,0,.18-1.3c.162-2.341,8.745-6.361,15.919-9.323a1.011,1.011,0,0,1,1.137,1.613c-.455.5-.484.728-.484.729.64.524,5.675.261,11.685-1.686a37.477,37.477,0,0,0,9.358-4.79,1.008,1.008,0,0,1,1.093-.069c6.521,3.635,1.431,18.122.83,19.76a1.012,1.012,0,0,1-.951.664Zm-5.553-2.6,4.863.5c1.441-4.268,3.637-13.442.328-16.21a38.8,38.8,0,0,1-9.344,4.671c-.121.04-12.027,3.847-14.047.725a1.761,1.761,0,0,1-.239-.552c-6.008,2.6-12.072,5.7-12.6,6.82a10.091,10.091,0,0,1-.184,1.4c-.225,1.257-.229,1.281,1.445,1.785,2.5.745,13.883.241,18.315-.03,1.1-.5,6.923-3.112,10.254-3.77a1,1,0,0,1,.838.21,1.019,1.019,0,0,1,.37.783Z" transform="translate(-68.869 -65.877)"/><path class="d" d="M160.6,336.637c-1.013-3.679,7.16-20.825,13.455-32.288a41.277,41.277,0,0,1,13.655-14.774c5.67-3.686,24-18.457,27.171-20.858a54.945,54.945,0,0,0,12.237-34.738.93.93,0,0,0-.117-.309c-3.9-10.19-58.4-9.1-64.946-2.547l-6.146,6.146a3.054,3.054,0,0,0-.622.881c-1.984,4.32-7.565,31.377-16.316,51.57-11.039,25.472-15.182,36.268-10.138,51.07,5.086,14.925,17.286,46.42,20.532,61.06a5.385,5.385,0,0,0,4.784,3.918h10.623a7.883,7.883,0,0,0,7.816-8.986C170.226,380.4,163.451,347,160.6,336.637Z" transform="translate(-68.317 -45.186)"/><path class="e" d="M209.92,279.344s-25.382,9.648-32.179,16.4-18.605,16.285-16.244,25.011-7.085,14.8-10.121,22.559,6.073,28.149,11.133,36.678,7.422,11.032,2.361,18.89-13.855,4.579-13.855,4.579.263,6.43,4.7,7.174,12.571,1.25,15.209-.988c1.237-1.049,4.675-3.532,4.1-8.048s-5.048-28.5-5.048-28.5-5.953-30.85-6.94-31.648a38.026,38.026,0,0,1,4.354-14.056c3.767-6.606,7.436-17.7,14.434-25.816a44.629,44.629,0,0,1,5.035-4.792c.6-.5,1.278-1.056,2.012-1.56C198.766,288.434,209.92,279.344,209.92,279.344Z" transform="translate(-70.667 -50.384)"/><path class="b" d="M127.384,338.2a1.01,1.01,0,0,1-.974-.744c-1.4-5.052-.085-14.709-.028-15.116.741-7.2,8.287-25.033,14.777-39.756,2.032-4.608,11.972-39.461,12.61-42.13a1.037,1.037,0,0,1,.063-.281,1.051,1.051,0,0,1,.814-.658.987.987,0,0,1,.949.391,1.862,1.862,0,0,1-.027.933l.154.065a1.016,1.016,0,0,1-.227.348c-1.386,7.354-12.333,41.806-12.485,42.15-5.929,13.448-13.893,32.143-14.619,39.179-.018.132-1.317,9.686-.032,14.338a1.009,1.009,0,0,1-.706,1.244A.977.977,0,0,1,127.384,338.2Z" transform="translate(-68.226 -46.494)"/><path class="b" d="M158.662,419.212c-4.165,0-8.393-.935-9.447-3.533-1.194-2.94-5.849-18.728-6.047-19.4L128,353.425a1.013,1.013,0,0,1,1.909-.676l15.186,42.907c.063.215,4.841,16.415,6,19.26.809,1.991,6.939,2.892,12.389,1.825a1.011,1.011,0,0,1,.391,1.985,27.672,27.672,0,0,1-5.207.486Z" transform="translate(-68.438 -57.485)"/><path class="b" d="M170.525,408.552a1.012,1.012,0,0,1-.287-1.983c.279-.083,6.777-2.117,4.918-9.678-.753-3.06-1.977-9.835-3.392-17.677-2.669-14.767-5.988-33.145-8.469-40.03a1.011,1.011,0,0,1-.057-.4c.024-.475.767-11.865,14.737-33.23.551-1.271,6.039-12.493,33.806-29.684.122-.079,13.359-8.686,15.211-22.405a1.011,1.011,0,1,1,2,.269c-1.978,14.668-15.561,23.483-16.139,23.85-28.176,17.441-33,28.711-33.047,28.824-12.8,19.584-14.373,30.745-14.535,32.3,2.528,7.2,5.826,25.449,8.478,40.145,1.411,7.808,2.629,14.555,3.367,17.554,2.329,9.467-6.227,12.078-6.314,12.1A1.064,1.064,0,0,1,170.525,408.552Z" transform="translate(-71.884 -47.772)"/><path class="f" d="M164.725,136.443a18.306,18.306,0,0,0,.943,6.43c2.18,6.424,4.036,12.683,5.383,18.482,2.877,12.244,3.546,22.394.614,27.565-4.32,7.624-19.708,28.072-12.721,33.7s26.6,3.959,39.912,2.892,29.6,15.4,34.42,3.51c2.853-7.041-16.129-37.93-15.084-54.086s13.157-43.441,11.545-59.4-24.587-15.355-24.587-15.355-12.487-.73-14.483-5.642C190.668,94.543,165.1,117.333,164.725,136.443Z" transform="translate(-71.29 -32.341)"/><path class="a" d="M209.11,113.552s14.848,4.076,12.481,12.786-20.766,13.843-17.945,25.965,2.919,24.66.358,27.847c-6.559,8.162-3.443,16.171,3.855,22.064s10.067,19,2.482,17.2-17.139-9.4-20.519-6.157-17.525,9.426-29.365-3.186c0,0-11.16,14.266,7.5,17.169a70.9,70.9,0,0,0,15.31.586,108.023,108.023,0,0,0,12.947-.79,27.3,27.3,0,0,1,7.91.174c3.932.728,8.968,2.517,16.075,5.794,9.885,4.559,15.606-.683,12.329-9.863-3.033-8.5-4.876-13.876-4.876-13.876l-5.664-14.638c-.257-.719-2.5-8.267-2.694-9-2.156-8.067-1.1-9.345,2.6-23.623,3.62-13.938,9.912-37.28,8.59-44.412-1.151-6.207-.755-6.315-3.134-8.837S209.11,113.552,209.11,113.552Z" transform="translate(-71.289 -33.676)"/><path class="g" d="M200.661,62.318a1,1,0,0,1-.464-.113c-2.554-1.318-10.687-14.644-15.307-22.47a4.269,4.269,0,0,1-.33-3.612c4.242-11.839,23.823-10.5,24.655-10.44a1.011,1.011,0,0,1,.931,1.085.987.987,0,0,1-1.083.935c-.2-.022-18.873-1.291-22.6,9.1a2.234,2.234,0,0,0,.168,1.9c6.411,10.859,11.72,18.95,13.844,21.154,1.176-1.455,3.762-4.114,6.613-3.38a1.011,1.011,0,1,1-.494,1.961c-2-.5-4.4,2.374-5.088,3.422A1.011,1.011,0,0,1,200.661,62.318Z" transform="translate(-73.941 -25.611)"/><path class="b" d="M165.748,134.158a1.181,1.181,0,0,1-.318-.047c-.631-.18-.86-.245-.65-1.366.123-.66.39-1.653.8-3.212,3.07-11.5,21.371-31.835,22.148-32.694a1.012,1.012,0,0,1,1.5,1.356c-.188.208-18.75,20.838-21.694,31.861-.387,1.447-.6,2.245-.708,2.688a.993.993,0,0,1-.042.344C166.578,133.8,166.226,134.158,165.748,134.158Z" transform="translate(-72.027 -32.532)"/><path class="b" d="M184.841,235.828c-5.509,0-16.344-.492-22.658-1.848a7.59,7.59,0,0,1-6.079-5.075c-1.218-3.657.166-8.643,3.446-12.408,4.454-5.116,10.6-18.5,12-21.8.635-1.493.65-8.629.51-12.776a1.013,1.013,0,1,1,2.024-.067c.037,1.143.346,11.244-.672,13.634-.067.16-7.085,16.309-12.333,22.336-2.779,3.195-4.035,7.486-3.052,10.44A5.652,5.652,0,0,0,162.61,232c7.453,1.6,21.974,1.981,24.908,1.738a1.045,1.045,0,0,1,1.091.925,1.01,1.01,0,0,1-.925,1.091C187.1,235.8,186.113,235.828,184.841,235.828Z" transform="translate(-71.145 -40.77)"/><path class="b" d="M230.987,237.494c-6.266,0-23.609-8.627-23.8-8.722-2.979-1.493-10.266-.294-12.822.289a1.012,1.012,0,0,1-.45-1.973c.4-.093,9.943-2.244,14.178-.126,8.144,4.07,21.185,9.417,23.514,8.443.261-.111.542-.217.834-.33,1.528-.585,3.11-1.192,3.814-2.961,1.1-2.75-.1-7.808-3.566-15.035-8.384-17.509-12.409-33.315-11.986-37.548.174-1.765,2.311-10.663,4.784-20.964,3.108-12.942,6.974-29.049,7.225-32.38.453-5.96.441-7.081-.1-10a1.012,1.012,0,1,1,1.989-.371c.583,3.119.6,4.4.136,10.528-.265,3.491-3.989,19.009-7.277,32.7-2.354,9.8-4.578,19.062-4.74,20.691-.35,3.515,3.291,18.709,11.8,36.472,3.768,7.868,4.952,13.316,3.622,16.659-1.034,2.594-3.309,3.465-4.972,4.1-.269.1-.528.2-.771.306A3.718,3.718,0,0,1,230.987,237.494Z" transform="translate(-74.803 -34.337)"/><path class="a" d="M103.757,137.949s7.1-7.642,3.739-11.3-10.644-6.046-15.221-11.467c-4.651-5.509-7.108-7.673-10.483-4.692-3.831,3.383-2.853,5.434-1.55,7.913,3.585,6.822,2.837,5.934,7.806,11.284S103.757,137.949,103.757,137.949Z" transform="translate(-63.668 -33.767)"/><path class="b" d="M91.012,133.55a1,1,0,0,1-.556-.166c-1.382-.909-4.982-4.707-8.927-9.955-4.549-6.051-2.853-10.536-2.777-10.726a1.012,1.012,0,1,1,1.884.739c-.063.174-1.3,3.707,2.51,8.769,4.432,5.893,7.587,8.933,8.421,9.481a1.012,1.012,0,0,1-.555,1.858Z" transform="translate(-63.599 -34.051)"/><path class="h" d="M.619,0H7.731A.619.619,0,0,1,8.35.619V41.884a.619.619,0,0,1-.619.619H.619A.619.619,0,0,1,0,41.884V.619A.619.619,0,0,1,.619,0Z" transform="translate(0.039 63.728) rotate(-52.955)"/><path class="b" d="M94.852,121.3a1.012,1.012,0,0,1-.609-.2L62.535,97.162a1.01,1.01,0,0,1-.336-.445,4.513,4.513,0,0,1,.81-4.173c.471-.623.751-1.054.986-1.415a9.134,9.134,0,0,1,1.526-1.894,1.012,1.012,0,1,1,1.411,1.451,7.186,7.186,0,0,0-1.24,1.544c-.255.391-.557.86-1.067,1.536a2.655,2.655,0,0,0-.585,2l31.42,23.716a1.012,1.012,0,0,1-.609,1.821Z" transform="translate(-62 -31.795)"/><path class="b" d="M98.287,120.691l-1.613-1.222,2.71-3.59a1.768,1.768,0,0,0,.34-1.56L69.416,91.444a1.012,1.012,0,0,1,1.218-1.617l30.542,23.051a1.038,1.038,0,0,1,.293.348A3.741,3.741,0,0,1,101,117.1Z" transform="translate(-62.684 -31.861)"/><path class="f" d="M207.331,132.421c-.3,7.446-8.468,14.675-12.85,20.1-9.138,11.306-36.342,22.923-43.2,21.234C140.935,171.2,96.25,142.1,96.6,136.324s6.551-25.4,15.522-13.83,24.084,20.448,32.271,23.572,32.869-28.936,38.926-32.274,16.89-7.116,19.876-.093A55.371,55.371,0,0,1,207.331,132.421Z" transform="translate(-65.378 -33.824)"/><path class="b" d="M147.757,148.1c-2.394,0-6.276-1.544-15.362-6.478-13.381-7.267-17.683-13.456-19.751-16.429a14.135,14.135,0,0,0-1.022-1.372c-1.081-1.162-3.151-3.4-5.4-3.068-1.825.273-3.594,2.155-5.256,5.595a1.012,1.012,0,1,1-1.823-.882c1.971-4.076,4.252-6.335,6.779-6.715,3.305-.5,5.873,2.273,7.108,3.608a15.022,15.022,0,0,1,1.279,1.678c1.979,2.846,6.1,8.769,19.054,15.807,13.452,7.3,14.526,6.658,16.469,5.492.36-.217.747-.449,1.2-.67,6.174-3,30.072-27.857,30.313-28.108a1.012,1.012,0,1,1,1.459,1.4c-.992,1.034-24.392,25.372-30.886,28.527-.4.192-.731.393-1.046.581a5.6,5.6,0,0,1-3.114,1.032Z" transform="translate(-65.616 -34.46)"/><path class="b" d="M151.146,176.723c-2.534-.089-6.591-2.384-10.169-4.41-.836-.472-1.629-.921-2.341-1.3-3.7-2-32.2-21.095-35.017-23.32-2.955-2.337-6.9-6.5-8.067-8.975-1.208-2.564,1.253-7.433,1.759-8.384a1.012,1.012,0,0,1,1.787.951c-1.058,1.992-2.291,5.349-1.716,6.571.931,1.973,4.432,5.828,7.494,8.249,2.789,2.208,31.05,21.142,34.721,23.127.724.39,1.528.844,2.376,1.325,3.04,1.722,7.205,4.078,9.208,4.148a1.012,1.012,0,1,1-.036,2.024Z" transform="translate(-65.243 -35.783)"/><path class="b" d="M161.177,179.685a1.012,1.012,0,0,1-.219-2,101.42,101.42,0,0,0,35.513-17.349,1.012,1.012,0,1,1,1.237,1.6A103.589,103.589,0,0,1,161.4,179.661,1.06,1.06,0,0,1,161.177,179.685Z" transform="translate(-71.584 -38.744)"/><path class="i" d="M186.517,39.391s-9.881,21.069-4.232,32.042a8.065,8.065,0,0,0,6.895,4.261c3.765.129,5.189,2.9,3.833,12.716C191.793,97.232,207.43,94.8,207.43,94.8l14.333-41.472Z" transform="translate(-73.574 -26.956)"/><path class="j" d="M187.109,43.322s10.214,13.8,6.364,18.672,3.654,10.751,6.085,15.469-3.845,10.511-3.618,14.512,22.537,3.165,22.537,3.165,2.986-40.827,1.512-41.107S192.92,39.751,192.92,39.751Z" transform="translate(-74.215 -26.991)"/><path class="k" d="M186.612,34.5a15.588,15.588,0,0,1,8.524-5.971c8.774-2.533,28.169-5.46,35.92,14.822,7.1,18.585,4.416,43.556,2.705,54.067-.383,2.352-2.75,6.444-4.145,8.376-4.2,5.819-11.463,9.094-20.074,3.786-5.249-3.236-9.825-6.369-9.919-14.927-.075-6.735,3.2-15.62,4.526-25.851,0,0,6.659-5.655,4.615-9.32-1.584-2.841-5.276-4.008-8.02,1.938-.794,1.72-13.4-17.821-15.389-22.33C184.777,37.775,185.516,36.07,186.612,34.5Z" transform="translate(-74.024 -25.72)"/><path class="g" d="M193.108,88.165a.942.942,0,0,1-.128-.008,1.012,1.012,0,0,1-.878-1.131c.166-1.315-.1-6.3-.218-8.1-.212-1.085-.4-1.192-3.355-1.775-.484-.1-1.026-.2-1.627-.33-4.7-1-6.826-7.72-6.913-8.006-2.588-5.258,2.758-22.287,3.376-24.212a1.011,1.011,0,0,1,1.925.621c-1.609,5.011-5.363,18.888-3.426,22.848.075.2,1.921,6.017,5.456,6.769.593.126,1.123.231,1.6.324,2.884.571,4.474.886,4.966,3.511a81.247,81.247,0,0,1,.221,8.609,1.012,1.012,0,0,1-1,.886Z" transform="translate(-73.451 -27.396)"/><path class="g" d="M198.878,101.009a1.016,1.016,0,0,1-.346-.061,7.57,7.57,0,0,1-5.359-6.476,1.015,1.015,0,0,1,.975-1.05,1.088,1.088,0,0,1,1.05.967,5.6,5.6,0,0,0,4.027,4.657,1.012,1.012,0,0,1-.346,1.963Z" transform="translate(-74.807 -32.232)"/><path class="g" d="M219.982,112.556a24.711,24.711,0,0,1-10.872-3.024c-10.438-5.211-9.3-14.587-8.874-18.116.04-.328.075-.613.095-.85.253-2.908,4.112-21.249,4.276-22.03a1.01,1.01,0,0,1,.259-.488l2.775-2.91a6.113,6.113,0,0,0,1.591-5.45,1.013,1.013,0,0,1,1.957-.526,8.133,8.133,0,0,1-2.086,7.374l-2.576,2.7c-.5,2.37-3.954,18.906-4.181,21.5-.022.257-.059.565-.1.919-.451,3.728-1.392,11.487,7.771,16.062,11.408,5.7,16.825,1.591,20.264-2.623,4.155-5.086,7.039-31.914,5.379-42.6l-.251-1.647c-1.6-10.612-4.58-30.362-21.158-32.623a1.01,1.01,0,0,1-.866-1.139,1,1,0,0,1,1.139-.866c18.08,2.465,21.207,23.19,22.887,34.325l.249,1.637c1.641,10.562-.909,38.192-5.81,44.194C228.476,110.506,224.591,112.556,219.982,112.556Z" transform="translate(-75.471 -25.669)"/></svg>