<svg xmlns="http://www.w3.org/2000/svg" width="138.47" height="243.464" viewBox="0 0 138.47 243.464"><defs><style>.a{fill:#fff3c8;}.b{fill:#dec48c;}.c{fill:#d84853;}.d{fill:#bf4853;}.e{fill:#b82424;}.f{fill:#fee48a;}.g{fill:#17335b;}.h{fill:#20467e;}.i{fill:#e9e9e9;}.j{fill:#d4d6e8;}.k{fill:#c0c3e8;opacity:0.5;}.l{fill:#a8acce;}</style></defs><g transform="translate(178.47 296.5) rotate(180)"><path class="a" d="M112.684,122.406c-6.134-1.227-12.39-4.662-18.646-5.4-1.963-.245-2.7.736-5.03.859-.736-.613-1.472-1.349-2.208-2.085a41.464,41.464,0,0,1-6.87-18.769c-.245-2.208-.245-3.8.245-4.048,4.907-2.7,6.747-10.3,6.747-10.3s0-13,7.115-9.446,29.2,5.888,29.2,5.888,2.944,19.014,0,28.46c-2.944,9.323-6.134,11.654-9.323,12.513C113.42,119.953,112.929,122.284,112.684,122.406Z" transform="translate(9.017 4.435)"/><path class="a" d="M88.288,107.1c8.1.245,16.929,2.576,24.9,4.048-.123,4.416.245,18.278.491,21.223.245,2.576-.613,3.067-.491,4.171L82.4,146.6C82.523,146.724,87.675,123.906,88.288,107.1Z" transform="translate(9.614 12.258)"/><path class="b" d="M109.556,83.316a1.816,1.816,0,0,1-.491,2.576l-.736.368c-4.907.859-14.23,3.067-12.145,6.992,2.7,5.4,6.134,9.323,3.19,11.777-2.453,2.085-6.134,5.643-3.435,8.833,3.926,4.784.981,15.334-1.84,17.665s-1.717,9.814,4.294,10.673,8.1,3.19,8.1,3.19-16.438,2.085-20-6.256a1.688,1.688,0,0,1-.123-1.349,139.636,139.636,0,0,0,2.453-18.892c0-.491.123-1.1-.245-1.472-1.84-1.717-7.238-7.728-9.569-23.063-1.1-6.134,14.6-19.137,19.628-23.185a1.793,1.793,0,0,1,2.576.368l.123.123Z" transform="translate(8.833 4.025)"/><path class="c" d="M88.817,126.223a32.79,32.79,0,0,1-4.907.123c-2.7-.491-9.323,1.1-13.617,2.208-3.312.859-2.208,6.134-3.68,9.446-7.728,18.033-12.758,54.345-10.673,84.645,2.7,41.341-1.84,57.289-1.84,57.289H145s6.5-111.388,3.312-143.038c-.736-7.728-28.46-8.833-28.46-8.833.123,1.595-1.472,2.822-2.822,3.558-5.03,2.453-22.449,3.067-25.271-5.52Z" transform="translate(3.197 16.567)"/><path class="d" d="M85.392,126.3c-.123-.368-1.472,29.564,21.713,33.367,8.1,1.349,7.36,12.145-1.84,16.929-9.2,4.907-11.163,14.108-5.643,22.2s15.457,18.646,5.03,29.564c-5.275,5.52-15.334,5.52-15.825,11.041s3.435,12.145,7.238,16.07c2.822,2.822,9.323-.368,18.278,4.784s-7.606,15.212,10.918,17.3l-68.7-8.219s2.576-34.717-.245-53c0,0,9.691-7.851-.368-40.114C39.634,123.972,85.392,126.3,85.392,126.3Z" transform="translate(2.819 16.609)"/><path class="e" d="M101.038,134.028h1.349c10.673-.368,11.654-5.52,11.654-5.766a.786.786,0,0,0-.736-.981c-.491,0-.981.245-.981.736h0c0,.123-.981,4.048-9.937,4.294-9.569.368-14.476-2.7-16.07-5.52a.906.906,0,0,0-1.595.859C85.581,129.122,89.139,134.028,101.038,134.028Z" transform="translate(10.113 16.612)"/><path class="a" d="M171.631,180.069s1.1,34.962-9.2,49.56c-9.569,13.494-42.936,18.769-53.731,21.959-7.606,2.208-15.212,1.227-25.148,6.87C75.577,263,34.113,253.673,57.176,243s23.308-3.435,26.375-3.926A116.3,116.3,0,0,0,116.8,226.439c5.643-3.312,13.249-5.4,17.542-9.446,6.624-6.134,9.814-17.542,10.673-27.356.245-3.558.613-9.446.613-9.446S173.839,173.076,171.631,180.069Z" transform="translate(2.329 28.106)"/><path class="f" d="M77.349,258.164c1.227,0,2.576-.123,3.8-.245a17.421,17.421,0,0,0,6.5-2.453,12.87,12.87,0,0,1,3.435-1.717c4.048-1.472,14.966-3.558,15.089-3.558.245,0,16.684-3.926,37.661-9.937,16.438-4.784,19.014-11.777,21.1-17.42.245-.736.613-1.595.859-2.331,3.8-8.833,5.4-32.141,5.4-33.122a.922.922,0,0,0-1.84-.123c0,.245-1.595,24.044-5.275,32.631-.368.736-.613,1.595-.981,2.453-2.085,5.52-4.416,11.777-20,16.316-20.977,6.011-37.416,9.937-37.538,9.937-.368.123-11.041,2.085-15.334,3.558a21.741,21.741,0,0,0-3.8,1.84,15.207,15.207,0,0,1-5.888,2.331c-5.4.981-21.1-1.472-24.289-3.19a.906.906,0,1,0-.859,1.595h0C58.7,256.079,70.112,258.164,77.349,258.164Z" transform="translate(3.378 30.239)"/><path class="f" d="M53.843,253.061a.839.839,0,0,0,.859-.859,1.242,1.242,0,0,0-.491-.859c-.736-.245-2.576-1.349-2.944-2.822a2.5,2.5,0,0,1,.613-2.208c2.7-3.558,11.163-7.238,16.07-8.587l.981-.245c4.048-1.1,6.379-1.84,14.721.491h.368A133.99,133.99,0,0,0,118.492,224.6c.613-.245,16.07-7.728,20.241-13.249,4.416-5.888,6.5-22.327,6.747-25.271a.922.922,0,0,0-1.84-.123c-.368,4.539-2.576,19.383-6.379,24.412-3.926,5.152-19.505,12.635-19.628,12.635a133.7,133.7,0,0,1-33.858,13.126c-8.587-2.331-11.409-1.595-15.457-.491l-.981.245c-4.171,1.1-13.862,4.907-17.052,9.2a4.041,4.041,0,0,0-.859,3.68c.736,2.576,3.8,3.926,3.926,3.926C53.6,253.061,53.72,253.061,53.843,253.061Z" transform="translate(2.105 29.944)"/><path class="a" d="M82.728,202.2a4.82,4.82,0,0,1-6.379-2.576,5.73,5.73,0,0,1-.368-2.085c.368-9.323-3.19-24.289-4.416-27.847-1.717-5.275-23.308,4.171-23.308,4.171S44.821,237.9,61.014,235.2c32.263-5.4,50.91-30.178,57.289-37.784l-10.182-6.87C108.244,190.428,97.326,195.948,82.728,202.2Z" transform="translate(1.803 26.088)"/><path class="c" d="M40.8,184.653a9.45,9.45,0,0,0,9.446,9.446H51.1c11.041-.981,27.234,1.349,31.037-2.453,2.944-2.944,3.558-63.668-5.766-63.545s-24.9,5.643-29.074,22.572C43.744,164.9,40.923,176.311,40.8,184.653Z" transform="translate(0.181 17.02)"/><path class="c" d="M159.722,193.141a3.826,3.826,0,0,1-3.68,3.926h-.613c-9.937-1.472-33-1.1-34.962-2.822-3.067-2.822-3.558-63.668,5.766-63.545s24.9,5.643,29.074,22.572C158.741,167.012,159.477,184.8,159.722,193.141Z" transform="translate(17.795 17.61)"/><path class="g" d="M121.881,200.395h-18.4a3.691,3.691,0,0,1-3.68-3.68V160.28a3.691,3.691,0,0,1,3.68-3.68h18.4a3.691,3.691,0,0,1,3.68,3.68v36.434A3.615,3.615,0,0,1,121.881,200.395Z" transform="translate(13.559 23.482)"/><path class="a" d="M100.4,202.293s22.449-13.985,25.516-21.1c2.7-6.256,5.152-9.814.491-11.9-6.992-3.19-18.156,9.691-22.2,10.182s-.491-9.323-4.662-7.851c-2.085.736-2.208,5.275-1.963,9.323a98.067,98.067,0,0,1-.981,13.371Z" transform="translate(12.834 26.245)"/><path class="h" d="M100.018,172.561a.839.839,0,0,0,.859-.859h0v-7.851a6.663,6.663,0,0,1,.859-4.294,5.225,5.225,0,0,1,3.558-1.963h14.966c.613.123,4.416,1.349,4.416,4.416v7.115a.859.859,0,1,0,1.717,0v-6.992c0-4.662-5.643-6.011-5.888-6.134H105.047a6.665,6.665,0,0,0-4.907,2.7,7.71,7.71,0,0,0-1.227,5.4V171.7a1.31,1.31,0,0,0,1.1.859Z" transform="translate(13.342 23.346)"/><path class="h" d="M108.159,195.744h10.427c3.926,0,5.766-3.926,6.134-6.011v-7.974a.859.859,0,0,0-1.717,0v7.851s-.859,4.416-4.416,4.416H108.159a.859.859,0,0,0,0,1.717Z" transform="translate(15.26 28.992)"/><path class="f" d="M60.626,235.291c8.1,0,19.873-5.03,27.847-9.569a111.766,111.766,0,0,0,30.791-26.5c1.472-1.1,16.684-12.758,19.137-18.892.245-.613.491-1.1.736-1.717,1.349-3.067,2.331-5.52,1.595-7.483a4.382,4.382,0,0,0-2.576-2.331,8.8,8.8,0,0,0-6.134,0,33.254,33.254,0,0,0-6.011,2.7.885.885,0,1,0,.981,1.472,46.844,46.844,0,0,1,5.643-2.576,6.447,6.447,0,0,1,4.784,0,2.9,2.9,0,0,1,1.595,1.349c.491,1.349-.368,3.558-1.472,6.134-.245.613-.491,1.1-.736,1.717-2.453,5.888-18.524,18.033-18.646,18.156l-.123.123a106.76,106.76,0,0,1-30.3,26.13c-10.918,6.256-22.449,9.937-28.583,9.2-3.067-.368-6.011-6.747-8.1-17.42-.981-5.275-1.84-28.706-1.84-28.951a.839.839,0,0,0-.859-.859h0a.839.839,0,0,0-.859.859h0c0,.981.859,23.921,1.84,29.319,2.331,12.022,5.52,18.4,9.691,18.892.245.245.859.245,1.595.245Z" transform="translate(1.701 26.124)"/><path class="f" d="M75.493,202.666a11.388,11.388,0,0,0,4.048-.859l7.851-3.435c.613-.245,14.721-6.87,16.316-7.728,1.472-.736,1.472-3.926,1.1-10.55-.123-1.84-.245-3.558-.245-4.662a2.926,2.926,0,0,1,1.349-2.822,1.344,1.344,0,0,1,.981,0,15.534,15.534,0,0,1,.736,3.435c.368,2.331.491,3.19,1.1,3.558,1.227.736,4.539-.859,9.814-4.784a.872.872,0,0,0-1.1-1.349c-2.944,2.208-6.5,4.416-7.728,4.662-.123-.491-.245-1.595-.368-2.208-.368-2.331-.613-3.8-1.227-4.416a3.152,3.152,0,0,0-2.944-.368c-.736.245-2.331,1.349-2.453,4.416,0,1.227.123,2.944.245,4.907.123,2.822.491,8.1-.123,8.955-1.595.736-16.07,7.606-16.193,7.728L78.8,200.58c-.859.368-3.558,1.227-5.275.245a3.03,3.03,0,0,1-1.472-2.331,54.748,54.748,0,0,1-.736-10.059v-1.595c-.123-.491-.491-.859-.981-.736s-.859.491-.736.981v1.349a72.777,72.777,0,0,0,.736,10.3,4.793,4.793,0,0,0,2.331,3.558,10.456,10.456,0,0,0,2.822.368Z" transform="translate(6.707 26.732)"/><path class="e" d="M42.363,172.731a1.052,1.052,0,0,0,.859-.736c0-.245,3.68-20.241,7.728-27.724,4.294-8.1,13.985-11.9,21.836-14.353,9.323-2.944,20.487-2.7,20.609-2.7h0a.859.859,0,1,0,0-1.717h0a72.339,72.339,0,0,0-21.1,2.822c-8.219,2.576-18.278,6.624-22.94,15.212-4.171,7.728-7.728,27.356-7.851,28.215a.786.786,0,0,0,.736.981Z" transform="translate(0.336 16.429)"/><path class="e" d="M58.156,188.771H76.68A5.882,5.882,0,0,0,81.1,187.3c2.208-1.84,3.435-5.03,3.558-9.691.491-11.409.491-19.014.368-22.449a.839.839,0,0,0-.859-.859H84.04a.948.948,0,0,0-.859.981c.123,3.435.123,11.041-.368,22.327-.123,4.048-1.227,6.87-2.944,8.342a4.8,4.8,0,0,1-3.19,1.1H47.974c-4.907-.123-6.011-7.36-6.256-8.342l.981-9.446c0-.491-.368-.981-.736-.981a1.069,1.069,0,0,0-.981.736L40,178.589v.245c0,.368,1.227,9.814,7.974,9.937Z" transform="translate(0 22.961)"/><path class="e" d="M160.991,178.164a.839.839,0,0,0,.859-.859c0-.736.245-18.769-6.992-31.773-7.238-13.249-24.9-14.966-25.639-14.966-7.238-1.717-19.014-3.067-19.137-3.067a.933.933,0,0,0-.981.736c0,.491.245.981.736.981.123,0,11.9,1.349,19.137,3.067.245,0,17.542,1.595,24.289,14.108,6.87,12.635,6.747,30.791,6.747,30.914a.875.875,0,0,0,.981.859Z" transform="translate(15.668 16.884)"/><path class="e" d="M151.928,188.924h.981c2.944-.123,4.907-.859,6.011-2.208a3.03,3.03,0,0,0,.613-2.7l-.613-12.758a.839.839,0,0,0-.859-.859h-.123a.948.948,0,0,0-.859.981h0l.613,12.881v.245a1.384,1.384,0,0,1-.368,1.349c-.491.613-1.717,1.349-4.539,1.472-6.747.245-27.234-1.717-28.706-1.963a1.041,1.041,0,0,0-.981.859.933.933,0,0,0,.736.981C125.308,187.084,144.2,188.924,151.928,188.924Z" transform="translate(18.842 26.611)"/><path class="i" d="M132.161,82.884s11.041-23.8-5.03-27.724c-16.193-3.926-10.8,6.624-16.193,9.814-5.52,3.19-7.483,1.1-14.966.368S83.091,68.408,80.883,75.769s2.085,7.36-2.7,10.059c-2.944,1.595-4.539,8.465-1.595,15.825,1.227,3.067,2.208,4.907,3.19,5.888l3.558,4.171c.736-3.19,1.595-1.963.859-5.152-1.349-5.03-3.312-2.7,2.576-11.531,1.595-2.331,6.134-6.87,7.606-6.5,4.662,1.227,6.379,3.8,13.126,4.539S126.763,96.991,132.161,82.884Z" transform="translate(7.941 0.286)"/><path class="j" d="M116.112,103.695s4.539-15.825,2.822-23.063c-1.472-6.134-3.558-3.312-3.558-3.312L112.8,86.152C118.688,85.784,115.867,102.468,116.112,103.695Z" transform="translate(16.507 5.359)"/><path class="k" d="M102.126,85.958s-3.312-2.453-6.747-5.52c-2.822-2.453-5.4,1.963-8.833,1.472-9.2-1.472-11.041,2.822-11.531,5.888s1.472,7.974,1.472,7.974a34.021,34.021,0,0,0,3.19,5.888c1.717,2.085,3.558,4.171,3.558,4.171a13.081,13.081,0,0,1,.859-2.331c.981-1.717-1.349-5.643-1.472-6.87a7.471,7.471,0,0,1,1.595-3.8,43,43,0,0,1,3.312-4.907c1.717-1.963,5.4-5.52,6.624-5.275A45.51,45.51,0,0,1,102.126,85.958Z" transform="translate(7.921 6.044)"/><path class="b" d="M107.8,130.837h0a.809.809,0,0,0,.859-.981h0c-.613-5.4-1.1-14.721-.123-16.561a9.618,9.618,0,0,1,3.19-2.7.885.885,0,1,0-.981-1.472,11.31,11.31,0,0,0-3.8,3.435c-1.472,2.822-.368,15.089-.123,17.542A1.069,1.069,0,0,0,107.8,130.837Z" transform="translate(15.008 12.688)"/><path class="b" d="M111.964,111.471a.937.937,0,0,0,.613-.245c1.84-1.963,4.907-8.465,4.907-12.267a.839.839,0,0,0-.859-.859h0a.839.839,0,0,0-.859.859c0,3.19-2.822,9.446-4.416,11.041a.82.82,0,0,0,0,1.227.937.937,0,0,0,.613.245Z" transform="translate(16.116 10.218)"/><path class="b" d="M86.084,131.2a.673.673,0,0,0,.736-.491c1.1-1.963,1.717-10.673,1.963-17.542a7.585,7.585,0,0,0-1.349-4.539c-1.595-2.331-3.067-4.784-4.416-7.238a.906.906,0,1,0-1.595.859c1.349,2.576,2.944,5.03,4.539,7.483a5.739,5.739,0,0,1,1.1,3.435c-.368,9.078-.981,15.58-1.717,16.684a.876.876,0,0,0,.368,1.227h0c.123,0,.245.123.368.123Z" transform="translate(9.364 10.853)"/><path class="l" d="M119.709,106.11a.9.9,0,0,0,.859-.736c.123-.491,2.453-10.427,2.331-14.844,1.1-1.595,6.5-9.569,7.238-16.193l.123-1.227c.736-6.747,1.84-15.948-10.427-19.383-10.182-2.822-12.022,3.68-12.881,7.115a7.085,7.085,0,0,1-.736,2.085A20.784,20.784,0,0,1,101.8,65.75a.934.934,0,1,0,.736,1.717h0a21.044,21.044,0,0,0,4.907-3.19,6.415,6.415,0,0,0,1.227-2.822c.981-3.68,2.208-8.219,10.8-5.888,10.8,2.944,9.937,10.673,9.078,17.42l-.123,1.227c-.736,6.747-6.992,15.58-7.115,15.7a.919.919,0,0,0-.123.613c.368,4.048-2.208,14.6-2.208,14.721a.878.878,0,0,0,.613,1.1c0-.245.123-.245.123-.245Z" transform="translate(13.891)"/><path class="l" d="M82.231,109.3a.839.839,0,0,0,.859-.859c0-.245,0-.368-.123-.491A57.205,57.205,0,0,1,77.2,98.508c-1.595-3.68-1.1-12.267.736-13.249,2.576-1.349,3.558-2.944,3.435-5.275-.123-1.84-.123-2.7,1.1-7.606,1.1-4.539,6.5-7.238,9.569-8.1,2.208-.613,9.691.613,12.39,1.227a.938.938,0,1,0,.368-1.84h0c-.981-.245-10.182-2.085-13.249-1.227-.981.245-9.2,2.822-10.8,9.323-1.227,5.03-1.227,6.011-1.1,7.851.123,1.595-.245,2.576-2.576,3.8-3.19,1.717-3.067,11.777-1.595,15.457a61.856,61.856,0,0,0,6.011,9.814C81.74,109.181,81.986,109.3,82.231,109.3Z" transform="translate(7.82 2.081)"/><path class="l" d="M82.955,103.859h0c.613-.123.981-.491.859-.981-.123-.981-.736-5.888-1.717-7.238-.123-.245-.123-.859.613-2.331,2.208-4.416,7.974-9.814,9.2-9.937a18.012,18.012,0,0,1,5.152,1.595c3.68,1.349,8.219,2.944,12.39,3.19l1.227.123c5.275.368,8.71.491,11.163-.491a41.911,41.911,0,0,1,1.1,7.728,1.041,1.041,0,0,0,.859.981h0a.933.933,0,0,0,.981-.736V95.64c.123-3.067-1.349-9.078-1.349-9.323a1.008,1.008,0,0,0-.613-.613,1.077,1.077,0,0,0-.859.123c-1.84,1.349-5.275,1.227-11.041.859l-1.227-.123c-3.8-.245-8.219-1.84-11.777-3.067A19.027,19.027,0,0,0,92.033,81.9c-2.453.123-8.587,6.624-10.673,10.8-.981,1.84-1.1,3.312-.491,4.171a23.615,23.615,0,0,1,1.349,6.5C82.1,103.491,82.464,103.859,82.955,103.859Z" transform="translate(9.182 6.545)"/></g></svg>